<svg xmlns="http://www.w3.org/2000/svg" xmlns:xlink="http://www.w3.org/1999/xlink" width="960" height="944" viewBox="0 0 960 944">
  <defs>
    <style>
      .cls-1 {
        fill: #fff;
      }

      .cls-2 {
        clip-path: url(#clip-path);
      }

      .cls-3 {
        fill: url(#linear-gradient);
      }

      .cls-4 {
        opacity: 0.12;
        fill: url(#linear-gradient-4);
      }

      .cls-5 {
        fill: #7263d2;
      }

      .cls-6 {
        fill: #a59ce2;
      }

      .cls-7 {
        fill: #877ad8;
      }

      .cls-8 {
        fill: #a096e0;
      }

      .cls-9 {
        fill: #eae8f8;
      }

      .cls-10 {
        fill: #fdfdfd;
      }

      .cls-11 {
        fill: #dbd7f3;
      }

      .cls-12 {
        fill: #8c80da;
      }

      .cls-13 {
        fill: #7769d3;
      }

      .cls-14 {
        fill: #5e4dcb;
      }

      .cls-15 {
        fill: #4b39c2;
      }

      .cls-16 {
        fill: #887cd9;
      }

      .cls-17 {
        fill: #bab3e9;
      }

      .cls-18 {
        fill: #7f72d6;
      }

      .cls-19 {
        fill: #aea6e5;
      }

      .cls-20 {
        fill: #5341c8;
      }

      .cls-21 {
        fill: #444747;
      }

      .cls-22 {
        fill: #dedeff;
      }

      .cls-23 {
        fill: #9b90df;
      }

      .cls-24 {
        fill: #4a38c0;
      }

      .cls-25 {
        fill: #5847ca;
      }

      .cls-26 {
        fill: #f0f0ff;
      }

      .cls-27 {
        fill: #f9762d;
      }

      .cls-28 {
        fill: #f0eff9;
      }

      .cls-29 {
        fill: #7364d2;
      }

      .cls-30 {
        fill: #c8c6f7;
      }

      .cls-31 {
        fill: #b5ade7;
      }

      .cls-32 {
        fill: #72515e;
      }

      .cls-33 {
        fill: #8275d7;
      }

      .cls-34 {
        fill: #a49be2;
      }

      .cls-35 {
        fill: #958add;
      }

      .cls-36 {
        fill: #bcb5e9;
      }

      .cls-37 {
        fill: #6f60d1;
      }

      .cls-38 {
        fill: #4b39c3;
      }

      .cls-39 {
        fill: #cecedb;
      }

      .cls-40 {
        fill: #a5a5af;
      }

      .cls-41 {
        fill: #897dd9;
      }

      .cls-42 {
        fill: #b1a9e6;
      }

      .cls-43 {
        fill: #364760;
      }

      .cls-44 {
        fill: #98939e;
      }

      .cls-45 {
        fill: #e8e8e8;
      }

      .cls-46 {
        fill: #d8d8d8;
      }

      .cls-47 {
        fill: #7f7e89;
      }

      .cls-48 {
        fill: #7566d3;
      }

      .cls-49 {
        fill: url(#linear-gradient-5);
      }

      .cls-50 {
        fill: #7e71d6;
      }

      .cls-51 {
        fill: #4b39c0;
      }

      .cls-52 {
        fill: #515656;
      }

      .cls-53 {
        fill: #c8ccd3;
      }

      .cls-54 {
        fill: #8e80eb;
      }

      .cls-55 {
        fill: #4f5656;
      }

      .cls-56 {
        fill: url(#linear-gradient-9);
      }

      .cls-57 {
        fill: url(#linear-gradient-10);
      }

      .cls-58 {
        fill: url(#linear-gradient-11);
      }

      .cls-59 {
        filter: url(#_Path_3);
      }

      .cls-60 {
        filter: url(#_Path_2);
      }

      .cls-61 {
        filter: url(#_Path_);
      }
    </style>
    <clipPath id="clip-path">
      <rect id="Rectangle_401" data-name="Rectangle 401" class="cls-1" width="960" height="944" transform="translate(0 2074)"/>
    </clipPath>
    <linearGradient id="linear-gradient" x1="0.125" y1="0.072" x2="0.526" y2="1" gradientUnits="objectBoundingBox">
      <stop offset="0" stop-color="#fdfdff"/>
      <stop offset="1" stop-color="#fcfbff"/>
    </linearGradient>
    <linearGradient id="linear-gradient-4" y1="0.602" x2="1" y2="0.536" gradientUnits="objectBoundingBox">
      <stop offset="0" stop-color="#d1c2f7"/>
      <stop offset="1" stop-color="#c7b5f5"/>
      <stop offset="1" stop-color="#f8f6fe"/>
    </linearGradient>
    <linearGradient id="linear-gradient-5" x1="0.166" y1="0.5" x2="8.483" y2="0.5" gradientUnits="objectBoundingBox">
      <stop offset="0" stop-color="#fff"/>
      <stop offset="1"/>
    </linearGradient>
    <filter id="_Path_" x="407.041" y="298.455" width="91.138" height="108" filterUnits="userSpaceOnUse">
      <feOffset dy="3" input="SourceAlpha"/>
      <feGaussianBlur stdDeviation="3" result="blur"/>
      <feFlood flood-color="#036cd6" flood-opacity="0.149"/>
      <feComposite operator="in" in2="blur"/>
      <feComposite in="SourceGraphic"/>
    </filter>
    <linearGradient id="linear-gradient-9" x1="0.5" y1="0.084" x2="0.5" y2="8.983" xlink:href="#linear-gradient-5"/>
    <filter id="_Path_2" x="590.979" y="92" width="91.089" height="108" filterUnits="userSpaceOnUse">
      <feOffset dy="3" input="SourceAlpha"/>
      <feGaussianBlur stdDeviation="3" result="blur-2"/>
      <feFlood flood-color="#036cd6" flood-opacity="0.149"/>
      <feComposite operator="in" in2="blur-2"/>
      <feComposite in="SourceGraphic"/>
    </filter>
    <linearGradient id="linear-gradient-10" x1="0.493" y1="-0.163" x2="0.556" y2="9.077" xlink:href="#linear-gradient-5"/>
    <filter id="_Path_3" x="660.948" y="605.596" width="91.081" height="108" filterUnits="userSpaceOnUse">
      <feOffset dy="3" input="SourceAlpha"/>
      <feGaussianBlur stdDeviation="3" result="blur-3"/>
      <feFlood flood-color="#036cd6" flood-opacity="0.149"/>
      <feComposite operator="in" in2="blur-3"/>
      <feComposite in="SourceGraphic"/>
    </filter>
    <linearGradient id="linear-gradient-11" x1="0.498" y1="-0.108" x2="0.498" y2="9.175" xlink:href="#linear-gradient-5"/>
  </defs>
  <g id="Mask_Group_7" data-name="Mask Group 7" class="cls-2" transform="translate(0 -2074)">
    <g id="Group_6464" data-name="Group 6464">
      <g id="Layer_2" data-name="Layer 2" transform="translate(-261 2074)">
        <g id="dizajn">
          <g id="Group_6461" data-name="Group 6461" transform="translate(0 306.585)">
            <path id="Path_6774" data-name="Path 6774" class="cls-3" d="M107.177,704.926C63.435,553.309-82.663,344.543,63.435,273.849c67.787-37.116,181.169-42.365,256.753-28.6,79.52,15.22,121.191,49.583,136.372,124.06,27.017,147.951,50.728,419.782-102.15,481.574-73.538,33.9-142.933,27.429-178,2.11C137.8,826.3,133.474,780.741,107.177,704.926Z" transform="translate(-0.014 -238.294)"/>
          </g>
          <g id="Group_6462" data-name="Group 6462" transform="translate(168.96 192.463)">
            <path id="Path_6775" data-name="Path 6775" class="cls-3" d="M269.976,243.327c-2.573,11.682-9.932,12.557-20.469,11.386-10.511-1.364-24.212-4.786-39.175-6.124-15.1-1.647-27.48-2.444-39.175-6.819s-22.463-12.132-31.469-25.538c-8.491-13.084-11.926-30.336-3.461-44.63,7.964-14.088,27.828-25.216,54.2-21.176,26.322,3.319,50.316,21.755,63.915,41.336C268.457,211.485,272.175,232.353,269.976,243.327Z" transform="translate(-131.343 -149.588)"/>
          </g>
          <g id="Group_6463" data-name="Group 6463" transform="translate(512.395)">
            <path id="Path_6776" data-name="Path 6776" class="cls-3" d="M398.341,42.214C400.631,4.75,425.59-.306,462.784,0c37.309.939,86.725,7.269,139.357,6.729,53.378.373,96.708-1.094,139.794,8.877,42.558,9.7,84.911,30.877,123.751,70.013C902.661,123.9,924.455,176.9,903.266,224.4c-19.555,46.688-82.068,87.87-175.817,83.624-93.222-2.007-186.984-52.13-245.354-109.2C421.859,141.521,397,77.336,398.341,42.214Z" transform="translate(-398.29 0.01)"/>
          </g>
          <path id="Path_6777" data-name="Path 6777" class="cls-4" d="M627.711,53.67C750.2,26.653,792.593,56.629,830.584,107.7c36.023,51.6,72.123,121.384,124.678,195.643,105.109,148.427,228.1,178.094,241.327,244.955,13.56,65.9-10.974,131.869-95.679,216.5C1017.028,846.1,871.1,927.352,696.567,936.693c-170.182,10.935-490.966-88.282-575.709-219.7-91.434-128.859-29.1-297.188,92.63-422.87C333.907,165.8,513.725,80.159,627.711,53.67Z" transform="translate(22.098 12.483)"/>
        </g>
      </g>
      <g id="Group_1908" data-name="Group 1908" transform="translate(0 330)">
        <path id="_Path_4" data-name="&lt;Path&gt;" class="cls-5" d="M212.593,206.72v7.391l-89.36,53.764-90-44.717v-7.391Z" transform="translate(423.912 2123.283)"/>
        <path id="_Path_5" data-name="&lt;Path&gt;" class="cls-6" d="M123.233,188.88l89.36,44.1-89.36,53.764-90-44.717Z" transform="translate(423.912 2097.024)"/>
        <path id="_Path_6" data-name="&lt;Path&gt;" class="cls-7" d="M33.23,210.38l90,44.717v7.391l-90-44.717Z" transform="translate(423.912 2128.67)"/>
        <path id="_Path_7" data-name="&lt;Path&gt;" class="cls-5" d="M330.727,96.96v7.391l-89.36,53.764L151.34,113.4v-7.391Z" transform="translate(597.76 1961.725)"/>
        <path id="_Path_8" data-name="&lt;Path&gt;" class="cls-6" d="M241.367,79.12l89.36,44.1-89.36,53.764L151.34,132.266Z" transform="translate(597.76 1935.466)"/>
        <path id="_Path_9" data-name="&lt;Path&gt;" class="cls-7" d="M151.34,100.62l90.027,44.717v7.391L151.34,108.011Z" transform="translate(597.76 1967.113)"/>
        <path id="_Path_10" data-name="&lt;Path&gt;" class="cls-5" d="M337.407,246.12v7.391l-89.36,53.764L158.02,262.558v-7.366Z" transform="translate(607.593 2181.277)"/>
        <path id="_Path_11" data-name="&lt;Path&gt;" class="cls-6" d="M248.047,228.28l89.36,44.1-89.36,53.764L158.02,281.451Z" transform="translate(607.593 2155.018)"/>
        <path id="_Path_12" data-name="&lt;Path&gt;" class="cls-7" d="M158.02,249.79l90.027,44.692v7.391L158.02,257.156Z" transform="translate(607.593 2186.679)"/>
        <path id="_Path_13" data-name="&lt;Path&gt;" class="cls-5" d="M13.13,232.366l30.232,15L72.6,228.856v-7L13.13,225.395Z" transform="translate(394.326 2145.568)"/>
        <path id="_Path_14" data-name="&lt;Path&gt;" class="cls-6" d="M13.13,234.55l30.232,15L72.6,231.015,41.038,215.64Z" transform="translate(394.326 2136.413)"/>
        <path id="_Path_15" data-name="&lt;Path&gt;" class="cls-7" d="M43.362,245.265v-6.971l-30.232-15v6.971Z" transform="translate(394.326 2147.673)"/>
        <path id="_Path_16" data-name="&lt;Path&gt;" class="cls-5" d="M60.33,75.7l30.232,15L119.8,72.186v-7L60.33,68.725Z" transform="translate(463.801 1914.963)"/>
        <path id="_Path_17" data-name="&lt;Path&gt;" class="cls-6" d="M60.33,77.88l30.232,15L119.8,74.345,88.263,58.97Z" transform="translate(463.801 1905.807)"/>
        <path id="_Path_18" data-name="&lt;Path&gt;" class="cls-7" d="M90.562,88.6V81.625l-30.232-15v6.971Z" transform="translate(463.801 1917.067)"/>
        <path id="_Path_19" data-name="&lt;Path&gt;" class="cls-5" d="M202.05,231.656l30.232,15,29.243-18.539V221.15l-59.474,3.51Z" transform="translate(672.401 2144.523)"/>
        <path id="_Path_20" data-name="&lt;Path&gt;" class="cls-6" d="M202.05,233.83l30.232,15,29.243-18.515-31.542-15.4Z" transform="translate(672.401 2135.353)"/>
        <path id="_Path_21" data-name="&lt;Path&gt;" class="cls-7" d="M232.282,244.57v-7l-30.232-15v7Z" transform="translate(672.401 2146.613)"/>
        <path id="_Path_22" data-name="&lt;Path&gt;" class="cls-8" d="M130.73,192.707l16.957-10.258v-11.1L130.73,181.707Z" transform="translate(567.424 2071.221)"/>
        <path id="_Path_23" data-name="&lt;Path&gt;" class="cls-9" d="M141.681,191.795,123.29,182.97v-11l18.391,8.825Z" transform="translate(556.473 2072.134)"/>
        <path id="_Path_24" data-name="&lt;Path&gt;" class="cls-10" d="M141.681,186.992l-18.391-8.825,17.229-10.407,18.119,8.874Z" transform="translate(556.473 2065.937)"/>
        <path id="_Path_25" data-name="&lt;Path&gt;" class="cls-11" d="M124.79,176.55l14.683,6.847,13.2-8.058-14.362-6.7Z" transform="translate(558.681 2067.233)"/>
        <path id="_Path_26" data-name="&lt;Path&gt;" class="cls-12" d="M130.73,190.455h14.09l18.045-10.407-15.178-7.169V180.2Z" transform="translate(567.424 2073.474)"/>
        <path id="_Path_27" data-name="&lt;Path&gt;" class="cls-8" d="M190.51,279.4l34.533-20.888V235.92L190.51,257.03Z" transform="translate(655.415 2166.263)"/>
        <path id="_Path_28" data-name="&lt;Path&gt;" class="cls-9" d="M212.824,277.546,175.35,259.6V237.18l37.474,18Z" transform="translate(633.101 2168.118)"/>
        <path id="_Path_29" data-name="&lt;Path&gt;" class="cls-10" d="M212.824,267.79l-37.474-18,35.1-21.184,36.906,18.07Z" transform="translate(633.101 2155.503)"/>
        <path id="_Path_30" data-name="&lt;Path&gt;" class="cls-11" d="M178.41,246.477l29.91,13.966,26.895-16.414-29.268-13.62Z" transform="translate(637.605 2158.153)"/>
        <path id="_Path_31" data-name="&lt;Path&gt;" class="cls-12" d="M190.51,273.528h12.31l41.825-25.139-19.6-8.479v12.73Z" transform="translate(655.415 2172.136)"/>
        <path id="_Path_32" data-name="&lt;Path&gt;" class="cls-13" d="M176.682,228.565c3.312,2.769,24.2,12.187,24.2,12.187a16.834,16.834,0,0,0,8.182.4c4.6-.89,61.4-34.978,61.4-34.978s5.389-4.351,3.832-6.674-21.555-15.425-21.555-15.425l-77.643,35.5v5.784l.544,1.656Z" transform="translate(632.733 2089.944)"/>
        <path id="_Path_33" data-name="&lt;Path&gt;" class="cls-14" d="M189.3,208.547s6.526.4,7.787,1.409,2.052,2.818,3.065,3.189,2.2.2,4.7-1.088,7.416-8.231,7.416-8.231l-10.555-8.306-13.793,7.02Z" transform="translate(651.603 2106.798)"/>
        <path id="_Path_34" data-name="&lt;Path&gt;" class="cls-14" d="M207,196.294s4.944-1.533,6.378,0,2.175,3.312,3.189,3.584a7.416,7.416,0,0,0,3.139-.618,37.389,37.389,0,0,0,2.719-5.908,67.233,67.233,0,0,0-1.928-6.773l-8.182-.519-4.6,3.584Z" transform="translate(679.688 2092.873)"/>
        <path id="_Path_35" data-name="&lt;Path&gt;" class="cls-15" d="M197.21,208.1c-.766,2.225-.692,6.056-2.274,6.7-.89.346-3.362-1.829-4.2-2.249-2.472-1.285-3.164-5.661-1.36-9.294,1.631-3.263,4.5-4.425,6.452-2.991,1.038.742,3.485,1.829,3.658,3.411S197.7,206.712,197.21,208.1Z" transform="translate(652.25 2112.885)"/>
        <path id="_Path_36" data-name="&lt;Path&gt;" class="cls-15" d="M215.127,197.406c-.766,2.225-.692,6.056-2.274,6.7-.89.346-3.362-1.829-4.2-2.249-2.472-1.285-3.164-5.661-1.335-9.294,1.632-3.263,4.5-4.425,6.452-2.991,1.038.742,3.485,1.829,3.658,3.411S215.6,196,215.127,197.406Z" transform="translate(678.63 2097.15)"/>
        <path id="_Path_37" data-name="&lt;Path&gt;" class="cls-16" d="M177.546,235.681l21.506,10.753a27.93,27.93,0,0,0,7.663,1.014c2.3-.4,5.117-.569,5.488-1.928s.964-8.058,2.472-10.16a10.333,10.333,0,0,1,7.169-3.807c1.533.4,1.632,1.014,1.632,2.744v3.584s0,2.694,1.533,2.694,30.528-17.3,30.528-17.3a13.841,13.841,0,0,0,1.73-4.227,42.319,42.319,0,0,1,2.1-8.825,11.989,11.989,0,0,1,6.526-4.4c1.978-.247,2.2,1.137,2.3,2.1a11.836,11.836,0,0,1,0,2.175s-1.162,2.991,0,3.387,4.2-2.3,4.944-3.634a18.07,18.07,0,0,0,3.634-10.53c0-4.622.2-7.292-1.335-8.627s-25.09-13.027-26.623-13.423a4.944,4.944,0,0,0-4.029,0c-1.533.766-8.825,3.263-8.825,3.263l-6.328-3.708a4.943,4.943,0,0,0-3.263,0c-1.533.643-24.324,13.472-24.324,13.472L190.82,207.328s-15.721,11.124-16.488,13.225a19.183,19.183,0,0,0-.964,8.232,8.627,8.627,0,0,0,1.335,4.6A18.512,18.512,0,0,0,177.546,235.681Z" transform="translate(630.04 2078.873)"/>
        <path id="_Path_38" data-name="&lt;Path&gt;" class="cls-17" d="M173.889,202.185l28.2,15.054,17.526-12.112-2.126-2.62-26.227-12.9-.865-.643s-8.108,5.784-8.454,6.056a90.863,90.863,0,0,0-7.416,6.378C172.851,203.2,173.889,202.185,173.889,202.185Z" transform="translate(630.484 2097.142)"/>
        <path id="_Path_39" data-name="&lt;Path&gt;" class="cls-17" d="M236.446,192.031a3.238,3.238,0,0,0-.939-1.483c-1.533-1.335-25.09-13.027-26.623-13.423a4.944,4.944,0,0,0-4.029,0,46.818,46.818,0,0,1-4.425,1.706l31.072,15.8Z" transform="translate(670.017 2079.091)"/>
        <path id="_Path_40" data-name="&lt;Path&gt;" class="cls-18" d="M275.479,183.482l-.272-.2a2.3,2.3,0,0,1-1.013,1.73l-9.072,3.93-1.533.667-10.728-8.133-26.3,13.645-8.207,20.888s-14.214,11.124-15.375,11.494-1.656-.124-1.656-.124-23.434-12.211-25.115-13.225-1.656-1.261-1.607-1.533c-.272.321-.2.272-.247.445a19.181,19.181,0,0,0-.964,8.231,8.626,8.626,0,0,0,1.335,4.6,18.516,18.516,0,0,0,2.818,2.472l21.506,10.753a27.932,27.932,0,0,0,7.663,1.014c2.3-.4,5.117-.569,5.488-1.928s.964-8.058,2.472-10.16a10.332,10.332,0,0,1,7.169-3.807c1.533.4,1.631,1.013,1.631,2.744v3.584s0,2.694,1.533,2.694,30.528-17.3,30.528-17.3a13.843,13.843,0,0,0,1.73-4.227,42.316,42.316,0,0,1,2.1-8.825,11.988,11.988,0,0,1,6.526-4.4c1.978-.247,2.2,1.137,2.3,2.1a11.836,11.836,0,0,1,0,2.175s-1.162,2.991,0,3.387,4.2-2.3,4.944-3.634a18.07,18.07,0,0,0,3.634-10.53C276.789,187.487,277.011,184.817,275.479,183.482Z" transform="translate(630.069 2086.132)"/>
        <g id="_Group_" data-name="&lt;Group&gt;" transform="translate(847.804 2269.417)">
          <path id="_Path_41" data-name="&lt;Path&gt;" class="cls-19" d="M209.78,188.73Z" transform="translate(-164.025 -172.613)"/>
          <path id="_Path_42" data-name="&lt;Path&gt;" class="cls-19" d="M220.173,188.662c-.371,2.3-1.063,1.483-2.3,4.227-.816,1.78-4.548,3.51-7.094,4.524,1.928-.222,2.151,1.137,2.249,2.1a11.836,11.836,0,0,1,0,2.175s-1.162,2.991,0,3.386,4.2-2.3,4.944-3.634a18.07,18.07,0,0,0,3.634-10.53c0-4.622.346-7.416-1.631-8.7a30.6,30.6,0,0,1,.2,6.452Z" transform="translate(-162.553 -182.21)"/>
          <path id="_Path_43" data-name="&lt;Path&gt;" class="cls-19" d="M230.821,200.893a42.32,42.32,0,0,1,2.1-8.825,10.9,10.9,0,0,1,3.658-3.238l-45.31,25.782h0a7.069,7.069,0,0,1,4.1-1.261c1.533.371,1.632,1.014,1.632,2.719v3.584s0,2.694,1.533,2.694,30.528-17.3,30.528-17.3A13.84,13.84,0,0,0,230.821,200.893Z" transform="translate(-191.27 -172.466)"/>
        </g>
        <path id="_Path_44" data-name="&lt;Path&gt;" class="cls-19" d="M201.294,199.12s-5.339,4.079-7.688,5.438a9.121,9.121,0,0,1-8.627.371l-.47,3.461.618,4.944a17.528,17.528,0,0,0,5.117.445c2.3-.4,5.117-.569,5.488-1.928s.964-8.058,2.472-10.16a10.283,10.283,0,0,1,3.065-2.472Z" transform="translate(646.584 2112.097)"/>
        <path id="_Path_45" data-name="&lt;Path&gt;" class="cls-16" d="M204.426,219.98c-2.274-1.607-1.829-1.458-2.324-3.56a35.816,35.816,0,0,1,1.162-7.416,2.472,2.472,0,0,1-1.953-.2S177.877,196.6,176.2,195.583s-1.656-1.261-1.607-1.533c-.272.321-.2.272-.247.445a19.183,19.183,0,0,0-.964,8.232,8.627,8.627,0,0,0,1.335,4.6,18.514,18.514,0,0,0,2.818,2.472l21.506,10.753a27.93,27.93,0,0,0,7.663,1.014l1.73-.272a10.259,10.259,0,0,1-4-1.31Z" transform="translate(630.055 2104.634)"/>
        <path id="_Path_46" data-name="&lt;Path&gt;" class="cls-14" d="M180.72,198.189l10.209-15.079a89.686,89.686,0,0,0,10.357,5.364c6.649,2.942,13.076,5.216,13.076,5.216l-7.416,17.3s-9.888-4.622-14.09-6.847S180.72,198.189,180.72,198.189Z" transform="translate(641.005 2088.531)"/>
        <path id="_Path_47" data-name="&lt;Path&gt;" class="cls-20" d="M205.831,185.65c0,.4,4.029,12.236,4.029,12.236l-1.78,1.013L195.6,206.068s-1.953.742-2.62,0,0-2.151,0-2.151l5.858-14.535Z" transform="translate(658.61 2092.27)"/>
        <path id="_Path_48" data-name="&lt;Path&gt;" class="cls-20" d="M198.71,189.339l4.845,11.643,13.25-7.614-5.636-10.679Z" transform="translate(667.485 2087.913)"/>
        <path id="_Path_49" data-name="&lt;Path&gt;" class="cls-20" d="M204.29,182.94l6.007,10.283,6.9-3.955a89.8,89.8,0,0,0-9.443-7.144A4.7,4.7,0,0,0,204.29,182.94Z" transform="translate(675.698 2086.996)"/>
        <path id="_Path_50" data-name="&lt;Path&gt;" class="cls-21" d="M201.726,194.81a2.645,2.645,0,0,1-2.3.766,1.582,1.582,0,0,1-1.137-1.533,2.324,2.324,0,0,1,1.31-1.458,1.854,1.854,0,0,1,1.508-.148,1.434,1.434,0,0,1,1.063,1.533,1.508,1.508,0,0,1-.445.84Z" transform="translate(666.867 2102.119)"/>
        <path id="_Path_51" data-name="&lt;Path&gt;" class="cls-22" d="M199.285,195.145a24.186,24.186,0,0,0,2.472-1.458s.667-.717.346-1.137-2.744,1.31-2.744,1.31-1.631.519-.84,1.013S199.285,195.145,199.285,195.145Z" transform="translate(666.885 2102.328)"/>
        <path id="_Path_52" data-name="&lt;Path&gt;" class="cls-21" d="M208.126,191.25a2.645,2.645,0,0,1-2.3.766,1.582,1.582,0,0,1-1.137-1.533,2.324,2.324,0,0,1,1.31-1.458,1.854,1.854,0,0,1,1.508-.148,1.434,1.434,0,0,1,1.063,1.533A1.508,1.508,0,0,1,208.126,191.25Z" transform="translate(676.287 2096.879)"/>
        <path id="_Path_53" data-name="&lt;Path&gt;" class="cls-22" d="M205.675,191.585a24.178,24.178,0,0,0,2.472-1.458s.667-.717.346-1.137-2.744,1.31-2.744,1.31-1.631.519-.84,1.014S205.675,191.585,205.675,191.585Z" transform="translate(676.291 2097.088)"/>
        <path id="_Compound_Path_" data-name="&lt;Compound Path&gt;" class="cls-21" d="M198.46,225.655v-1.73s-1.557-11.272-2.67-13.151a7.416,7.416,0,0,0-3.782-2.62h-.148l7.243-18.465h0l8.627-4.5,5.858,15.3.865,16.364h0Zm-6.254-17.7a7.416,7.416,0,0,1,3.782,2.719c1.162,1.928,2.645,12.8,2.719,13.274v1.285l15.45-8.528-.766-16.216-5.735-14.832-8.306,4.351Z" transform="translate(657.403 2091.593)"/>
        <path id="_Compound_Path_2" data-name="&lt;Compound Path&gt;" class="cls-21" d="M204.835,221.292v-.124l-.791-16.29-5.834-15.2,14.065-7.416,8.528,15h0a15.722,15.722,0,0,0-2.151,4.944c-.494,2.472-.964,11.124-.989,11.223h0Zm-6.3-31.591,5.76,15.029.766,16.092,12.36-7.416c0-.84.494-8.775.989-11.2a15.92,15.92,0,0,1,2.151-4.944l-.593-1.088-7.737-13.546Z" transform="translate(666.749 2087.28)"/>
        <path id="_Path_54" data-name="&lt;Path&gt;" class="cls-16" d="M180.62,189.53a3.807,3.807,0,0,0,1.014,2.645c1.013.766,18.91,9.467,18.91,9.467a5.439,5.439,0,0,0,2.175,0l1.013-.247Z" transform="translate(640.858 2097.981)"/>
        <path id="_Path_55" data-name="&lt;Path&gt;" class="cls-17" d="M184.94,190.339a44.5,44.5,0,0,0,10.7,6.13c6.229,2.867,13.744,5.982,13.744,5.982l26.3-13.719-21.753-11.049a9.445,9.445,0,0,0-2.744-1.112,11.3,11.3,0,0,0-4.7,1.78C206.223,178.449,184.94,190.339,184.94,190.339Z" transform="translate(647.217 2078.905)"/>
        <path id="_Path_56" data-name="&lt;Path&gt;" class="cls-20" d="M198.3,208.89c-1.162,3.485-3.98,5.661-6.353,4.474s-3.164-5.661-1.409-9.319c1.582-3.263,4.4-4.474,6.353-3.04A7.268,7.268,0,0,1,198.3,208.89Z" transform="translate(654.054 2113.994)"/>
        <path id="_Path_57" data-name="&lt;Path&gt;" class="cls-23" d="M195.668,206.731c-.717,2.126-2.472,3.485-3.906,2.744s-1.953-3.485-.865-5.71,2.694-2.744,3.906-1.879a4.474,4.474,0,0,1,.865,4.845Z" transform="translate(655.128 2115.585)"/>
        <path id="_Path_58" data-name="&lt;Path&gt;" class="cls-20" d="M216.458,198.27c-1.162,3.485-3.98,5.661-6.353,4.474s-3.164-5.661-1.409-9.319c1.582-3.263,4.4-4.474,6.353-3.04A7.268,7.268,0,0,1,216.458,198.27Z" transform="translate(680.784 2098.362)"/>
        <path id="_Path_59" data-name="&lt;Path&gt;" class="cls-23" d="M213.828,196.121c-.717,2.126-2.472,3.485-3.906,2.744s-1.953-3.485-.865-5.71,2.694-2.744,3.906-1.879a4.474,4.474,0,0,1,.865,4.845Z" transform="translate(681.858 2099.968)"/>
        <path id="_Path_60" data-name="&lt;Path&gt;" class="cls-12" d="M190.939,183.13,180.73,198.209l4.079,2a23.236,23.236,0,0,0,14.832-2.62,16.142,16.142,0,0,0,7.416-6.724h0c-1.755-.692-3.658-1.508-5.587-2.472A89.777,89.777,0,0,1,190.939,183.13Z" transform="translate(641.02 2088.561)"/>
        <path id="_Path_61" data-name="&lt;Path&gt;" class="cls-24" d="M193.673,195.5a2.768,2.768,0,0,0,2.966,1.78c2.472-.173,2.472-.89,2.472-.89a3.09,3.09,0,0,0-1.706-2.472,25.62,25.62,0,0,0-3.831-1.335l-.494.766,1.137.519Z" transform="translate(659.198 2102.47)"/>
        <path id="_Path_62" data-name="&lt;Path&gt;" class="cls-25" d="M181.614,190.888a1.8,1.8,0,0,1-1.557-1.335,5.61,5.61,0,0,1,0-2.052s.865-.89,1.681-.42,1.829,1.038,1.829,1.038Z" transform="translate(639.889 2094.176)"/>
        <path id="_Path_63" data-name="&lt;Path&gt;" class="cls-13" d="M173.27,198.84s0,1.335,3.362,3.189c1.434.791,20.492,10.654,21.876,11.371a6.5,6.5,0,0,0,3.634,1.014,3.831,3.831,0,0,0,3.733-2.472,34.348,34.348,0,0,0,.371-3.832l-1.582,2.052-1.829.494-3.658-1.557-2.867-2-14.115-7.416-2.472-1.261-4.178-1.014-1.409-2.966-.717,2.966Z" transform="translate(630.04 2105.208)"/>
        <path id="_Path_64" data-name="&lt;Path&gt;" class="cls-26" d="M193.307,200.589a5.34,5.34,0,0,1-1.854,1.014l-1.706.494-4.326-1.409L183.37,199.6l-1.31,3.312,4.82,2.348a9.369,9.369,0,0,0,2.942.42c.89-.173,2.472-.247,2.991-.964a11.768,11.768,0,0,0,.494-4.128Z" transform="translate(642.978 2112.803)"/>
        <path id="_Path_65" data-name="&lt;Path&gt;" class="cls-26" d="M174.082,194.48a22.884,22.884,0,0,0,2.151,1.879c.84.569,3.436,2.076,3.436,2.076l-1.063,3.288a25.114,25.114,0,0,1-4.227-2.645,4.523,4.523,0,0,1-1.038-1.656,6.9,6.9,0,0,1,.4-1.854A3.755,3.755,0,0,0,174.082,194.48Z" transform="translate(630.143 2105.267)"/>
        <path id="_Path_66" data-name="&lt;Path&gt;" class="cls-27" d="M187.1,200.994l-1.335.4-.742,3.733h.42c.89-.173,2.472-.247,2.991-.964a11.768,11.768,0,0,0,.494-4.128A5.316,5.316,0,0,1,187.1,200.994Z" transform="translate(647.335 2113.436)"/>
        <path id="_Path_67" data-name="&lt;Path&gt;" class="cls-20" d="M213.833,187.34s-.321,1.928.4,2.62a2.175,2.175,0,0,0,2.225.494c.544-.222.569-.494.569-.494a14.831,14.831,0,0,0,.222-2.249,15.08,15.08,0,0,0-.47-2.991h-1.285Z" transform="translate(689.639 2090.901)"/>
        <path id="_Path_68" data-name="&lt;Path&gt;" class="cls-17" d="M216.766,182.9a1.335,1.335,0,0,1-.816,1.706,4.005,4.005,0,0,1-2.151.321V189.7a2.472,2.472,0,0,0,.766,1.829c1.557,1.162,2.645-.816,2.645-.816v-5.858Z" transform="translate(689.696 2088.222)"/>
        <path id="_Path_69" data-name="&lt;Path&gt;" class="cls-28" d="M217.2,185.3a9.446,9.446,0,0,1-1.236.939,3.412,3.412,0,0,1-2.175,0,2.472,2.472,0,0,0,.766,1.829c1.557,1.162,2.645-.816,2.645-.816Z" transform="translate(689.682 2091.755)"/>
        <path id="_Path_70" data-name="&lt;Path&gt;" class="cls-29" d="M174,200.317s2.472,1.928,2.867.717a4.945,4.945,0,0,0,.4-1.9l16.784,8.429a4.029,4.029,0,0,0,.346,2.991,4.943,4.943,0,0,0,2.175,1.78l1.557.791-21.778-10.852a10.847,10.847,0,0,1-1.557-1.236A4.625,4.625,0,0,0,174,200.317Z" transform="translate(631.114 2112.111)"/>
        <path id="_Path_71" data-name="&lt;Path&gt;" class="cls-30" d="M176.874,196.29l-.964,3.065,13.917,7.292,1.063-2.966Z" transform="translate(633.925 2107.931)"/>
        <path id="_Path_72" data-name="&lt;Path&gt;" class="cls-30" d="M214.942,186.788a5.215,5.215,0,0,1-.272,1.557,2.6,2.6,0,0,0,1.261-1.112V185.28c-.4.321-.742.618-1.014.791S214.942,186.59,214.942,186.788Z" transform="translate(690.977 2091.725)"/>
        <path id="_Path_73" data-name="&lt;Path&gt;" class="cls-31" d="M213.821,92.66c-.544,0-16.191,9.566-16.191,9.566l16.488,9.047,16.315-9.665Z" transform="translate(665.896 1955.396)"/>
        <path id="_Path_74" data-name="&lt;Path&gt;" class="cls-16" d="M214.192,110.4l-.074-4.82L197.63,96.53l.074,5.067Z" transform="translate(665.896 1961.093)"/>
        <path id="_Path_75" data-name="&lt;Path&gt;" class="cls-5" d="M220.615,96.28l.074,4.474-16.315,10.011-.074-4.82Z" transform="translate(675.713 1960.724)"/>
        <path id="_Path_76" data-name="&lt;Path&gt;" class="cls-32" d="M204.39,81.362v47.461l5.067-3.164L209.482,78Z" transform="translate(675.846 1933.818)"/>
        <path id="_Path_77" data-name="&lt;Path&gt;" class="cls-33" d="M202.165,78.32l-.025,47.214,5.562,2.818V80.891Z" transform="translate(672.534 1934.289)"/>
        <path id="_Path_78" data-name="&lt;Path&gt;" class="cls-33" d="M195.06,74.24l17.5,41.751v-9.072L199.312,74.24Z" transform="translate(662.113 1928.283)"/>
        <path id="_Path_79" data-name="&lt;Path&gt;" class="cls-34" d="M210.029,98.119,200.661,74.24H196.78l13.249,32.679Z" transform="translate(664.644 1928.283)"/>
        <path id="_Path_80" data-name="&lt;Path&gt;" class="cls-31" d="M197.68,75.748l1.261,13.324L214.267,104.2l5.092-37.87Z" transform="translate(665.969 1916.641)"/>
        <path id="_Path_81" data-name="&lt;Path&gt;" class="cls-35" d="M221.723,80.717c-1.236,2.1-17.3,23.483-17.3,23.483l5.092-37.87Z" transform="translate(675.89 1916.641)"/>
        <path id="_Path_82" data-name="&lt;Path&gt;" class="cls-16" d="M204.39,102.2l17.378-23.483,21.7-11.025-3.016,19.38Z" transform="translate(675.846 1918.642)"/>
        <path id="_Path_83" data-name="&lt;Path&gt;" class="cls-5" d="M197.68,77.985l4.4-13.175,17.279,3.757Z" transform="translate(665.969 1914.403)"/>
        <path id="_Path_84" data-name="&lt;Path&gt;" class="cls-16" d="M193.29,60.28l10.852,24.373,4.4-13.175Z" transform="translate(659.507 1907.735)"/>
        <path id="_Path_85" data-name="&lt;Path&gt;" class="cls-31" d="M205.229,55.97,193.29,66.624l15.252,11.2,12.187-15.1Z" transform="translate(659.507 1901.391)"/>
        <path id="_Path_86" data-name="&lt;Path&gt;" class="cls-16" d="M216.739,77.561,211.647,58.7,199.46,73.8Z" transform="translate(668.589 1905.41)"/>
        <path id="_Path_87" data-name="&lt;Path&gt;" class="cls-5" d="M186.89,59.27l3.56,6.3,10.506,18.589s3.386,0,3.56,1.953a4.326,4.326,0,0,1-1.78,3.387l4.351,6.748,7.416,1.063-1.038-11.2L202.611,61.742Z" transform="translate(650.087 1906.249)"/>
        <path id="_Path_88" data-name="&lt;Path&gt;" class="cls-5" d="M186.89,71.708l6.8-4.128-3.238-5.76Z" transform="translate(650.087 1910.002)"/>
        <path id="_Path_89" data-name="&lt;Path&gt;" class="cls-31" d="M200.931,77,193.688,64.15l-6.8,4.128Z" transform="translate(650.087 1913.432)"/>
        <path id="_Path_90" data-name="&lt;Path&gt;" class="cls-16" d="M186.89,81.187l5.685-8.157h5.883l-3.04-4.993L212.5,44.38h2.126l1.211,1.434L214.65,73.03,202.71,83.683Z" transform="translate(650.087 1884.332)"/>
        <path id="_Path_91" data-name="&lt;Path&gt;" class="cls-5" d="M206.45,49.385l12.36,64.023,21.7-11.025s-1.434-4.944-1.953-4.622-7.416,2.843-7.416,2.843l5.512-6.971L221.034,54.082l-3.214,1.236,1.78-5.858-1.953-5.339Z" transform="translate(678.878 1883.949)"/>
        <path id="_Path_92" data-name="&lt;Path&gt;" class="cls-16" d="M204.39,77.025l5.092-30.775,12.285,64.023L209.482,95.886Z" transform="translate(675.846 1887.084)"/>
        <path id="_Path_93" data-name="&lt;Path&gt;" class="cls-31" d="M212.54,48.74l18.935,11.272-11.89,6.6Z" transform="translate(687.842 1890.75)"/>
        <path id="_Path_94" data-name="&lt;Path&gt;" class="cls-35" d="M221.842,76.022l2.843-8.182a6.377,6.377,0,0,0,3.386-2.67c1.063-1.953,0-2.843,0-2.843l-2.867.89,2.151-9.888-11.964,6.6Z" transform="translate(692.037 1897.506)"/>
        <path id="_Path_95" data-name="&lt;Path&gt;" class="cls-35" d="M199.307,44.96l19.4,3.189-5.092,30.775-15.5-6.748Z" transform="translate(666.617 1885.186)"/>
        <path id="_Path_96" data-name="&lt;Path&gt;" class="cls-31" d="M198.11,49.458s5.364-1.78,5.364-3.733v-4.8l2.843,3.387,2.126-1.236,11.222,6.4,6.748-2.843,3.387,2.126a110.626,110.626,0,0,1-11.049,5.339l-19.429-3.115Z" transform="translate(666.602 1879.254)"/>
        <path id="_Path_97" data-name="&lt;Path&gt;" class="cls-35" d="M207.5,35.39,202.28,51.21l11.223,6.4Z" transform="translate(672.74 1871.099)"/>
        <path id="_Path_98" data-name="&lt;Path&gt;" class="cls-5" d="M217.145,54.77l.89-2.843L204.39,35.39,210.4,57.613Z" transform="translate(675.846 1871.099)"/>
        <path id="_Path_99" data-name="&lt;Path&gt;" class="cls-16" d="M191.92,59,190.56,48.74l4.969,5.117Z" transform="translate(655.489 1890.75)"/>
        <path id="_Path_100" data-name="&lt;Path&gt;" class="cls-31" d="M195.529,47.48l3.807,3.115-3.807,5.117-4.969-5.117Z" transform="translate(655.489 1888.895)"/>
        <path id="_Path_101" data-name="&lt;Path&gt;" class="cls-31" d="M209.91,58.065l7.564-4-4.4,14.807Z" transform="translate(683.971 1898.58)"/>
        <path id="_Path_102" data-name="&lt;Path&gt;" class="cls-35" d="M223.994,53.3l-8.4,1.879-4.4,14.807,10.382-7.416Z" transform="translate(685.855 1897.461)"/>
        <path id="_Path_103" data-name="&lt;Path&gt;" class="cls-31" d="M213.32,78.6l5.933,9.344,5.636-1.582s.964-.124,1.607,1.458,2.274-4.054,2.274-4.054l2.645-1.557L224.32,74Z" transform="translate(688.99 1927.93)"/>
        <path id="_Path_104" data-name="&lt;Path&gt;" class="cls-5" d="M210.26,84.091c.4-.173,13.5,1.112,13.5,1.112l-5.933-9.344Z" transform="translate(684.486 1930.668)"/>
        <path id="_Path_105" data-name="&lt;Path&gt;" class="cls-31" d="M77.641,207.09c-.519,0-16.191,9.566-16.191,9.566L77.938,225.7l16.315-9.665Z" transform="translate(465.449 2123.828)"/>
        <path id="_Path_106" data-name="&lt;Path&gt;" class="cls-16" d="M77.992,224.842,77.918,220,61.43,210.95l.074,5.092Z" transform="translate(465.42 2129.51)"/>
        <path id="_Path_107" data-name="&lt;Path&gt;" class="cls-5" d="M84.415,210.7l.074,4.474L68.174,225.21l-.074-4.845Z" transform="translate(475.238 2129.141)"/>
        <path id="_Path_108" data-name="&lt;Path&gt;" class="cls-32" d="M68.19,195.807v47.436l5.067-3.164.025-47.659Z" transform="translate(475.37 2102.235)"/>
        <path id="_Path_109" data-name="&lt;Path&gt;" class="cls-33" d="M65.965,192.74l-.025,47.238,5.562,2.793V195.335Z" transform="translate(472.058 2102.706)"/>
        <path id="_Path_110" data-name="&lt;Path&gt;" class="cls-33" d="M68.19,217.407s13.3-6.946,13.472-8.009,1.78-9.245,1.78-9.245l6.748-3.733L87.174,213.3,68.19,224.328Z" transform="translate(475.37 2108.123)"/>
        <path id="_Path_111" data-name="&lt;Path&gt;" class="cls-33" d="M70.94,209.279l-2.892-3.164-1.211-5.735H62.56l1.261,8.9,7.119,6.4Z" transform="translate(467.083 2113.951)"/>
        <path id="_Path_112" data-name="&lt;Path&gt;" class="cls-32" d="M78.93,197.156l4.8-1.236s-1.434,14.831-2.472,15.2-5.413,2.942-5.413,2.942Z" transform="translate(486.63 2107.386)"/>
        <path id="_Path_113" data-name="&lt;Path&gt;" class="cls-34" d="M64.29,200.38h4.1v8.9L65.5,206.115Z" transform="translate(469.63 2113.951)"/>
        <path id="_Path_114" data-name="&lt;Path&gt;" class="cls-16" d="M65.272,207.866v11.742l2.793,1.953h2.5l3.831-29.515-9.121,3.387L58.82,185.99v20.64l3.04,6.748Z" transform="translate(461.578 2092.77)"/>
        <path id="_Path_115" data-name="&lt;Path&gt;" class="cls-35" d="M55.347,184.91a33.84,33.84,0,0,0,1.063,11.025,43.258,43.258,0,0,0,4.622,11.025l3.016,1.236V187.6Z" transform="translate(456.35 2091.181)"/>
        <path id="_Path_116" data-name="&lt;Path&gt;" class="cls-31" d="M80.153,177.94l-21.333,19.9,6.452,9.443Z" transform="translate(461.578 2080.921)"/>
        <path id="_Path_117" data-name="&lt;Path&gt;" class="cls-35" d="M69.453,189.5l9.22,2.324,2.151,9.591,1.409-5.957,2.67-4.079h4.1l3.56,20.542-19.4,10.209-3.708-4.178H63.57L67.4,188.44Z" transform="translate(468.57 2096.376)"/>
        <path id="_Path_118" data-name="&lt;Path&gt;" class="cls-5" d="M55.3,189.664s7.119-.717,7.119-1.236,1.607-4.8.717-5.512,1.953-1.236,1.953-1.236l4.548,5.414L64,192.359Z" transform="translate(456.397 2086.427)"/>
        <path id="_Path_119" data-name="&lt;Path&gt;" class="cls-5" d="M89.334,184.27,73.86,197.52l3.56,20.542s3.906-.742,4.178-2.249,6.13-19.083,6.3-19.627S89.334,184.27,89.334,184.27Z" transform="translate(483.716 2090.239)"/>
        <path id="_Path_120" data-name="&lt;Path&gt;" class="cls-31" d="M65.135,194.578l37.079-10.308L86.739,197.52h-4.1l-2.67,4.079s-.89,6.748-1.434,5.957a82.391,82.391,0,0,1-2.126-9.591l-11.3-.445Z" transform="translate(470.837 2090.239)"/>
        <path id="_Path_121" data-name="&lt;Path&gt;" class="cls-35" d="M77.09,214.319s7.416,1.236,8.355,3.733a20.147,20.147,0,0,1,1.063,4.079l14.214-32.357L84.53,184.26l-2,13.694Z" transform="translate(488.47 2090.224)"/>
        <path id="_Path_122" data-name="&lt;Path&gt;" class="cls-5" d="M76.311,177.94,70.551,203.9l-9.121,3.387Z" transform="translate(465.42 2080.921)"/>
        <path id="_Path_123" data-name="&lt;Path&gt;" class="cls-35" d="M78.543,174.27s0,6.4-.742,6.575-6.9,2.472-6.9,2.472L65.12,209.272,102.2,198.964l-1.063-4.276-6.674-1.063,2.942-6.946-2.917-7.96-4.178.544,1.434-2.67L84.6,179.955Z" transform="translate(470.851 2075.52)"/>
        <path id="_Path_124" data-name="&lt;Path&gt;" class="cls-16" d="M87.041,183.164l5.685-.717-1.434,4.944s14.535,13.225,13.521,13.225-20.1-4.276-20.1-4.276l-1.063-4.276L76.98,191l2.942-6.946-2.892-7.984Z" transform="translate(488.308 2078.169)"/>
        <path id="_Path_125" data-name="&lt;Path&gt;" class="cls-5" d="M100.241,192.1c.148-.173-20.121-7.836-20.121-7.836l20.072,4.3Z" transform="translate(492.93 2090.224)"/>
        <path id="_Path_126" data-name="&lt;Path&gt;" class="cls-5" d="M80.91,218.872s6.427-6.056,8.108-5.166,2.917-1.236,2.917-1.236l-.915-8.083h2.67l5.364-15.573-3.93-2.324Z" transform="translate(494.093 2093.506)"/>
        <path id="_Path_127" data-name="&lt;Path&gt;" class="cls-5" d="M65.871,193.544l-1.261-6.9L71.63,171l-.717,14.139.717,2.942Z" transform="translate(470.101 2070.706)"/>
        <path id="_Path_128" data-name="&lt;Path&gt;" class="cls-31" d="M75.525,179.039l-7.663-8.009-.692,14.139.692,2.942,7.663-2.324Z" transform="translate(473.869 2070.75)"/>
        <path id="_Path_129" data-name="&lt;Path&gt;" class="cls-31" d="M71.32,179.46l7.688-7.49,2.6,6.2.865,1.285.1.494-7.119,3.387Z" transform="translate(479.977 2072.134)"/>
        <path id="_Path_130" data-name="&lt;Path&gt;" class="cls-36" d="M80.988,128.4,7.72,92.5V33.08L80.988,69.368Z" transform="translate(386.363 1867.699)"/>
        <path id="_Path_131" data-name="&lt;Path&gt;" class="cls-33" d="M37.36,125.262,87.713,94.215v-59L37.36,66.233Z" transform="translate(429.991 1870.834)"/>
        <path id="_Path_132" data-name="&lt;Path&gt;" class="cls-37" d="M54.139,49.42v24l-13.3,8.009V57.775Z" transform="translate(435.113 1891.75)"/>
        <path id="_Path_133" data-name="&lt;Path&gt;" class="cls-38" d="M47.78,73.422l-2.62-1.409V51.076l2.62-1.656Z" transform="translate(441.472 1891.75)"/>
        <path id="_Path_134" data-name="&lt;Path&gt;" class="cls-39" d="M40.84,67.978l13.3-8.009-2.62-1.409L40.84,64.789Z" transform="translate(435.113 1905.204)"/>
        <path id="_Path_135" data-name="&lt;Path&gt;" class="cls-37" d="M61.9,44.85v24L48.6,76.837V53.18Z" transform="translate(446.535 1885.024)"/>
        <path id="_Path_136" data-name="&lt;Path&gt;" class="cls-38" d="M55.54,68.852l-2.62-1.434V46.481l2.62-1.631Z" transform="translate(452.894 1885.024)"/>
        <path id="_Path_137" data-name="&lt;Path&gt;" class="cls-39" d="M48.6,63.4l13.3-7.984-2.62-1.434L48.6,60.234Z" transform="translate(446.535 1898.462)"/>
        <path id="_Path_138" data-name="&lt;Path&gt;" class="cls-40" d="M80.988,86.442,7.72,50.154,58.666,21.48l72.674,34.73Z" transform="translate(386.363 1850.625)"/>
        <path id="_Path_139" data-name="&lt;Path&gt;" class="cls-41" d="M7.72,37.864V29.83l73.268,35.5v8.825Z" transform="translate(386.363 1862.916)"/>
        <path id="_Path_140" data-name="&lt;Path&gt;" class="cls-25" d="M87.713,40.7,37.36,70.928V62.1L87.713,32.02Z" transform="translate(429.991 1866.139)"/>
        <path id="_Compound_Path_3" data-name="&lt;Compound Path&gt;" class="cls-42" d="M60.075,17.94,7.72,47.331l73.268,35.5L131.365,52.7ZM80.988,78.131,15.828,46.886Z" transform="translate(386.363 1845.414)"/>
        <path id="_Path_141" data-name="&lt;Path&gt;" class="cls-25" d="M57.754,27.336,19.365,49.831l-8.355-4L57.754,18.66Z" transform="translate(391.206 1846.474)"/>
        <path id="_Path_142" data-name="&lt;Path&gt;" class="cls-13" d="M33.922,77.772V53.029L19.09,45.86V70.7Z" transform="translate(403.099 1886.51)"/>
        <path id="_Path_143" data-name="&lt;Path&gt;" class="cls-39" d="M19.09,56.911l2.3-1.681,12.533,5.834v2.917Z" transform="translate(403.099 1900.302)"/>
        <path id="_Path_144" data-name="&lt;Path&gt;" class="cls-38" d="M19.09,45.86V70.7l2.3-1.681V47.195Z" transform="translate(403.099 1886.51)"/>
        <path id="_Path_145" data-name="&lt;Path&gt;" class="cls-13" d="M42.432,81.922V57.179L27.6,50.01V74.853Z" transform="translate(415.625 1892.619)"/>
        <path id="_Path_146" data-name="&lt;Path&gt;" class="cls-39" d="M27.6,61.061l2.3-1.681,12.533,5.834v2.917Z" transform="translate(415.625 1906.411)"/>
        <path id="_Path_147" data-name="&lt;Path&gt;" class="cls-38" d="M27.6,50.01V74.853l2.3-1.681V51.345Z" transform="translate(415.625 1892.619)"/>
        <path id="_Path_148" data-name="&lt;Path&gt;" class="cls-13" d="M25.652,74.032V49.313L10.82,42.12V66.963Z" transform="translate(390.926 1881.005)"/>
        <path id="_Path_149" data-name="&lt;Path&gt;" class="cls-39" d="M10.82,53.171l2.3-1.681,12.533,5.858v2.892Z" transform="translate(390.926 1894.797)"/>
        <path id="_Path_150" data-name="&lt;Path&gt;" class="cls-38" d="M10.82,42.12V66.963l2.3-1.681V43.455Z" transform="translate(390.926 1881.005)"/>
        <path id="_Path_151" data-name="&lt;Path&gt;" class="cls-19" d="M30.887,17.94l71.265,34.8-4.029,2.4L27.55,19.819Z" transform="translate(415.551 1845.414)"/>
        <path id="_Path_152" data-name="&lt;Path&gt;" class="cls-41" d="M28.78,19.32,92.432,51.158l-7.787,4.375L28.78,27.23Z" transform="translate(417.362 1847.446)"/>
        <path id="_Path_153" data-name="&lt;Path&gt;" class="cls-43" d="M28.78,19.32v7.91l6.007,3.04V22.41Z" transform="translate(417.362 1847.446)"/>
        <path id="_Path_154" data-name="&lt;Path&gt;" class="cls-42" d="M105.736,50.823,71.3,71.39l-57-27.241L49.871,22.52Z" transform="translate(396.048 1852.156)"/>
        <path id="_Path_155" data-name="&lt;Path&gt;" class="cls-12" d="M14.39,44.149H25.563l30.4-18.589-6.007-3.04Z" transform="translate(396.181 1852.156)"/>
        <path id="_Path_156" data-name="&lt;Path&gt;" class="cls-44" d="M33.7,45.4l9.517-5.76V36.5L32.19,43.248v1.434Z" transform="translate(422.381 1872.733)"/>
        <path id="_Path_157" data-name="&lt;Path&gt;" class="cls-45" d="M39.3,44.093,27.36,38.358V36.9L39.3,42.66Z" transform="translate(415.272 1873.322)"/>
        <path id="_Path_158" data-name="&lt;Path&gt;" class="cls-10" d="M39.3,46.678,27.36,40.918l11.2-6.748,11.766,5.76Z" transform="translate(415.272 1869.304)"/>
        <path id="_Path_159" data-name="&lt;Path&gt;" class="cls-46" d="M28.33,39.882l9.542,4.449,8.6-5.24L37.13,34.74Z" transform="translate(416.699 1870.143)"/>
        <path id="_Path_160" data-name="&lt;Path&gt;" class="cls-47" d="M32.8,45.4l1.879.915h1.656l11.717-7.094L42.317,36.5v3.139Z" transform="translate(423.279 1872.733)"/>
        <path id="_Path_161" data-name="&lt;Path&gt;" class="cls-8" d="M33.32,43.726l13.571-8.207v-8.9L33.32,34.926Z" transform="translate(424.044 1858.191)"/>
        <path id="_Path_162" data-name="&lt;Path&gt;" class="cls-45" d="M42.093,42.99,27.36,35.92v-8.8l14.733,7.07Z" transform="translate(415.272 1858.927)"/>
        <path id="_Path_163" data-name="&lt;Path&gt;" class="cls-10" d="M42.093,39.15,27.36,32.08l13.793-8.33,14.51,7.094Z" transform="translate(415.272 1853.966)"/>
        <path id="_Path_164" data-name="&lt;Path&gt;" class="cls-46" d="M28.56,30.778l11.766,5.488,10.58-6.452L39.387,24.45Z" transform="translate(417.038 1854.997)"/>
        <path id="_Path_165" data-name="&lt;Path&gt;" class="cls-12" d="M33.32,42.283H44.592l15.054-8.231L46.891,27.6v6.476Z" transform="translate(424.044 1859.633)"/>
        <path id="_Path_166" data-name="&lt;Path&gt;" class="cls-18" d="M82.083,170.093a6.378,6.378,0,0,1-3.609,5.315,13.3,13.3,0,0,1-6.625,1.656,13.522,13.522,0,0,1-6.155-1.409,6.575,6.575,0,0,1-4.054-5.562,6.18,6.18,0,0,1,3.164-4.944,13.052,13.052,0,0,1,7.07-1.928,13.546,13.546,0,0,1,6.155,1.409A6.6,6.6,0,0,1,82.083,170.093Z" transform="translate(465.729 2059.253)"/>
        <path id="_Path_167" data-name="&lt;Path&gt;" class="cls-18" d="M63.863,181.173a6.377,6.377,0,0,1-3.609,5.315,13.3,13.3,0,0,1-6.625,1.656,13.52,13.52,0,0,1-6.155-1.409,6.6,6.6,0,0,1-4.054-5.562,6.18,6.18,0,0,1,3.164-4.944,13.052,13.052,0,0,1,7.07-1.928,13.546,13.546,0,0,1,6.155,1.409,6.6,6.6,0,0,1,4.054,5.463Z" transform="translate(438.911 2075.562)"/>
        <g id="_Group_2" data-name="&lt;Group&gt;" transform="translate(632.5 2159.365)">
          <path id="_Path_168" data-name="&lt;Path&gt;" class="cls-18" d="M124.613,144.563A6.378,6.378,0,0,1,121,149.878a13.3,13.3,0,0,1-6.625,1.656,13.522,13.522,0,0,1-6.155-1.409,6.6,6.6,0,0,1-4.054-5.562,6.18,6.18,0,0,1,3.164-4.944,13.051,13.051,0,0,1,7.07-1.928,13.546,13.546,0,0,1,6.155,1.409,6.6,6.6,0,0,1,4.054,5.463Z" transform="translate(-104.17 -137.689)"/>
        </g>
        <g id="_Group_3" data-name="&lt;Group&gt;" transform="translate(649.853 2205.045)">
          <path id="_Path_169" data-name="&lt;Path&gt;" class="cls-18" d="M131.559,163.043a6.378,6.378,0,0,1-3.535,5.315,13.3,13.3,0,0,1-6.625,1.656,13.521,13.521,0,0,1-6.155-1.409,6.575,6.575,0,0,1-4.054-5.562,6.18,6.18,0,0,1,3.164-4.944,13.052,13.052,0,0,1,7.07-1.928,13.546,13.546,0,0,1,6.155,1.409,6.6,6.6,0,0,1,3.98,5.463Z" transform="translate(-111.19 -156.169)"/>
        </g>
        <g id="_Group_4" data-name="&lt;Group&gt;" transform="translate(574.088 2450.804)">
          <path id="_Path_170" data-name="&lt;Path&gt;" class="cls-18" d="M100.983,262.463a6.378,6.378,0,0,1-3.609,5.315,13.3,13.3,0,0,1-6.625,1.656,13.521,13.521,0,0,1-6.155-1.409,6.575,6.575,0,0,1-4.054-5.562,6.18,6.18,0,0,1,3.164-4.944,13.052,13.052,0,0,1,7.07-1.928A13.547,13.547,0,0,1,96.929,257,6.6,6.6,0,0,1,100.983,262.463Z" transform="translate(-80.54 -255.589)"/>
        </g>
        <g id="_Group_5" data-name="&lt;Group&gt;" transform="translate(669.925 2048.177)">
          <path id="_Path_171" data-name="&lt;Path&gt;" class="cls-18" d="M139.753,99.583a6.378,6.378,0,0,1-3.609,5.315,13.3,13.3,0,0,1-6.625,1.656,13.521,13.521,0,0,1-6.155-1.409,6.575,6.575,0,0,1-4.054-5.562,6.18,6.18,0,0,1,3.164-4.944,13.052,13.052,0,0,1,7.07-1.928A13.546,13.546,0,0,1,135.7,94.12a6.6,6.6,0,0,1,4.054,5.463Z" transform="translate(-119.31 -92.709)"/>
        </g>
        <g id="_Group_6" data-name="&lt;Group&gt;" transform="translate(624.886 2074.899)">
          <path id="_Path_172" data-name="&lt;Path&gt;" class="cls-18" d="M121.533,110.393a6.378,6.378,0,0,1-3.609,5.315,13.3,13.3,0,0,1-6.625,1.656,13.521,13.521,0,0,1-6.155-1.409,6.575,6.575,0,0,1-4.054-5.562,6.18,6.18,0,0,1,3.164-4.944,13.052,13.052,0,0,1,7.07-1.928,13.546,13.546,0,0,1,6.155,1.409,6.6,6.6,0,0,1,4.054,5.463Z" transform="translate(-101.09 -103.519)"/>
        </g>
        <g id="_Group_7" data-name="&lt;Group&gt;" transform="translate(375 1910.885)">
          <path id="Union_5" data-name="Union 5" class="cls-18" d="M-6631.593-7008.879l-15.918-7.86-26.845-12.83-5.414-2.473c-5.858-3.015-9.293-7.885-9.293-13.052a14.481,14.481,0,0,1,7.267-11.865l12.359-7.416,58.386-35.1h.149l22.247-13.4,54.11-32.383h-.148l61.279-36.832h.222l51.393-30.923h-.149l58.461-35.15,2.644-1.484.272-.172,8.477-4.8a9.89,9.89,0,0,0,5.687-8.083c0-3.287-2.372-6.4-6.5-8.528l-13.571-6.748-60.884-29.836h-.174l-61.6-30.182-7.787-3.683c-5.858-3.017-9.293-7.887-9.293-13.052a14.478,14.478,0,0,1,7.267-11.865l12.359-7.416,47.807-28.749h-.148l57.127-34.286.691-.4,3.486-2.1,7.07-3.98a9.888,9.888,0,0,0,5.685-8.082c0-3.289-2.373-6.4-6.5-8.53l-2.324-1.162-16.289-8.008a23.59,23.59,0,0,0-10.778-2.473,22.689,22.689,0,0,0-12.359,3.337l-15.2,9.2-53.765,32.307-57.62,34.608-38.934,23.409h.174l-61.279,36.832-16.586,10.133a29.658,29.658,0,0,1-27.192.569l-15.893-7.859-26.87-12.83-5.414-2.473c-5.858-3.015-9.294-7.885-9.294-13.052a14.487,14.487,0,0,1,7.416-11.915l12.359-7.416,58.313-35.05,5.291,2.718-58.486,35.152-15.005,8.923a9.389,9.389,0,0,0-4.943,7.587c0,3.214,2.472,6.329,6.8,8.454l13.052,6.181h-.148l18.489,8.825,6.155,3.04,1.681.816,8.875,4.4a23.559,23.559,0,0,0,10.8,2.473,23.277,23.277,0,0,0,11.544-2.869l16.266-9.886,55.346-33.3h-.173l61.279-36.832,42.468-25.461,50.65-30.5,17.3-10.408a27.736,27.736,0,0,1,14.98-4.1,28.632,28.632,0,0,1,13.052,2.992l6.032,2.966,12.583,6.254.469.222c5.488,3.015,8.751,7.786,8.751,12.731a14.835,14.835,0,0,1-8.207,12.359l-8.28,4.671-50.156,30.134h.148l-61.279,36.832-8.751,5.215a9.394,9.394,0,0,0-4.943,7.589c0,3.287,2.349,6.4,6.476,8.527l13.052,6.181,56.855,27.906h.172l61.4,30.084,12.583,6.254c5.833,2.992,9.294,7.859,9.344,13.1a14.828,14.828,0,0,1-8.207,12.359l-8.281,4.671-51.491,30.949h.148l-61.279,36.832h-.222l-51.441,30.925h.148l-61.279,36.83-41.528,24.967h-.148l-39.229,23.583-15.005,8.923a9.4,9.4,0,0,0-4.943,7.589c0,3.287,2.473,6.4,6.6,8.528l13.052,6.178h-.146l18.489,8.825,6.155,3.042,1.681.814,8.873,4.4a23.61,23.61,0,0,0,10.8,2.473,23.281,23.281,0,0,0,11.544-2.868l12.78-7.812,1.681-1.013,1.8-1.112,54.259-32.778h-.174l61.279-36.832,9.888-5.883,61.279-36.832,5.314,2.669-28.6,17.3-61.279,36.832-38.957,23.384h.172l-57.965,34.855-18.789,11.494a29.632,29.632,0,0,1-14.144,3.59A29.661,29.661,0,0,1-6631.593-7008.879Zm9.987-429.667,61.279-36.832h.149l42.021-25.264,34.384-20.665h-.148l61.279-36.733h.222l43.334-26.1h-.149l58.461-35.052,2.644-1.482.272-.148,8.477-4.794a9.892,9.892,0,0,0,5.687-8.084c0-3.289-2.372-6.4-6.5-8.529l-13.571-6.748-53.791-26.351h-.2l-16.289-8.008a23.615,23.615,0,0,0-10.778-2.473,22.685,22.685,0,0,0-12.359,3.337l-15.328,9.147-59.054,35.5-5.314-2.669,61.4-36.807,15.673-9.467a27.7,27.7,0,0,1,14.98-4.1,28.644,28.644,0,0,1,12.928,2.892l9.689,4.771h.172l61.428,30.157,12.583,6.253c5.833,2.917,9.269,7.787,9.221,13a14.838,14.838,0,0,1-8.207,12.359l-8.283,4.671-43.381,26.079h.149l-61.279,36.832h-.222l-51.416,30.9h.148l-61.279,36.832-41.553,24.99h-.148l-42.022,25.264Z" transform="translate(6741 7690.885)"/>
        </g>
        <g id="_Group_8" data-name="&lt;Group&gt;" transform="translate(714.963 2020.69)">
          <path id="_Path_173" data-name="&lt;Path&gt;" class="cls-18" d="M157.973,88.463a6.378,6.378,0,0,1-3.609,5.315,13.3,13.3,0,0,1-6.625,1.656,13.521,13.521,0,0,1-6.155-1.409,6.575,6.575,0,0,1-4.054-5.562,6.18,6.18,0,0,1,3.164-4.944,13.052,13.052,0,0,1,7.07-1.928A13.546,13.546,0,0,1,153.919,83a6.6,6.6,0,0,1,4.054,5.463Z" transform="translate(-137.53 -81.589)"/>
        </g>
        <g id="_Group_9" data-name="&lt;Group&gt;" transform="translate(465.991 2515.172)">
          <path id="_Path_174" data-name="&lt;Path&gt;" class="cls-18" d="M57.253,288.5a6.378,6.378,0,0,1-3.609,5.315,13.3,13.3,0,0,1-6.625,1.656,13.523,13.523,0,0,1-6.155-1.409A6.575,6.575,0,0,1,36.81,288.5a6.18,6.18,0,0,1,3.164-4.944,13.051,13.051,0,0,1,7.07-1.928A13.544,13.544,0,0,1,53.2,283.04,6.6,6.6,0,0,1,57.253,288.5Z" transform="translate(-36.81 -281.629)"/>
        </g>
        <g id="_Group_10" data-name="&lt;Group&gt;" transform="translate(694.842 2177.607)">
          <path id="_Path_175" data-name="&lt;Path&gt;" class="cls-18" d="M149.808,151.894a6.378,6.378,0,0,1-3.584,5.364,13.3,13.3,0,0,1-6.625,1.656,13.521,13.521,0,0,1-6.155-1.409,6.575,6.575,0,0,1-4.054-5.562A6.18,6.18,0,0,1,132.554,147a13.052,13.052,0,0,1,7.07-1.928,13.546,13.546,0,0,1,6.155,1.409,6.6,6.6,0,0,1,4.029,5.414Z" transform="translate(-129.39 -145.069)"/>
        </g>
        <g id="_Group_11" data-name="&lt;Group&gt;" transform="translate(619.053 2424.082)">
          <path id="_Path_176" data-name="&lt;Path&gt;" class="cls-18" d="M119.173,251.653a6.378,6.378,0,0,1-3.609,5.315,13.3,13.3,0,0,1-6.625,1.656,13.522,13.522,0,0,1-6.155-1.409,6.6,6.6,0,0,1-4.054-5.562,6.18,6.18,0,0,1,3.164-4.944,13.051,13.051,0,0,1,7.07-1.928,13.545,13.545,0,0,1,6.155,1.409,6.6,6.6,0,0,1,4.054,5.463Z" transform="translate(-98.73 -244.779)"/>
        </g>
        <g id="_Group_12" data-name="&lt;Group&gt;" transform="translate(623.082 2508.053)">
          <path id="_Path_177" data-name="&lt;Path&gt;" class="cls-18" d="M120.8,285.623a6.378,6.378,0,0,1-3.609,5.315,13.3,13.3,0,0,1-6.625,1.656,13.522,13.522,0,0,1-6.155-1.409,6.6,6.6,0,0,1-4.054-5.562,6.18,6.18,0,0,1,3.164-4.944,13.052,13.052,0,0,1,7.07-1.928,13.545,13.545,0,0,1,6.155,1.409,6.6,6.6,0,0,1,4.054,5.463Z" transform="translate(-100.36 -278.749)"/>
        </g>
        <g id="_Group_13" data-name="&lt;Group&gt;" transform="translate(759.952 1993.227)">
          <path id="_Path_178" data-name="&lt;Path&gt;" class="cls-18" d="M176.173,77.353a6.378,6.378,0,0,1-3.609,5.315,13.3,13.3,0,0,1-6.625,1.656,13.521,13.521,0,0,1-6.155-1.409,6.575,6.575,0,0,1-4.054-5.562,6.18,6.18,0,0,1,3.164-4.944,13.052,13.052,0,0,1,7.07-1.928,13.546,13.546,0,0,1,6.155,1.409,6.6,6.6,0,0,1,4.054,5.463Z" transform="translate(-155.73 -70.479)"/>
        </g>
        <g id="_Group_14" data-name="&lt;Group&gt;" transform="translate(613.738 1937.265)">
          <path id="_Path_179" data-name="&lt;Path&gt;" class="cls-48" d="M139,60.567h0l-1.508-6.254h-3.584a32.728,32.728,0,0,0-31.912,0H98.533l-1.656,6.18h0a7.417,7.417,0,0,0-.3,1.978c0,6.8,9.542,12.36,21.333,12.36s21.333-5.512,21.333-12.36A7.267,7.267,0,0,0,139,60.567Z" transform="translate(-96.58 -44.425)"/>
          <ellipse id="_Path_180" data-name="&lt;Path&gt;" class="cls-49" cx="19.627" cy="11.321" rx="19.627" ry="11.321" transform="translate(1.804)"/>
          <ellipse id="_Path_181" data-name="&lt;Path&gt;" class="cls-48" cx="9.987" cy="5.315" rx="9.987" ry="5.315" transform="translate(11.371 5.339)"/>
        </g>
        <g id="_Group_15" data-name="&lt;Group&gt;" transform="translate(567.859 2179.636)">
          <path id="_Path_182" data-name="&lt;Path&gt;" class="cls-18" d="M120.438,158.617h0l-1.508-6.254h-3.584a32.728,32.728,0,0,0-31.912,0H79.973l-1.656,6.18h0a7.415,7.415,0,0,0-.3,1.978c0,6.8,9.542,12.36,21.333,12.36s21.333-5.512,21.333-12.36A7.267,7.267,0,0,0,120.438,158.617Z" transform="translate(-78.02 -142.475)"/>
          <ellipse id="_Path_183" data-name="&lt;Path&gt;" class="cls-49" cx="19.627" cy="11.321" rx="19.627" ry="11.321" transform="translate(1.804)"/>
          <ellipse id="_Path_184" data-name="&lt;Path&gt;" class="cls-18" cx="9.987" cy="5.315" rx="9.987" ry="5.315" transform="translate(11.371 5.339)"/>
        </g>
        <g id="_Group_16" data-name="&lt;Group&gt;" transform="translate(510.239 2470.507)">
          <path id="_Path_185" data-name="&lt;Path&gt;" class="cls-50" d="M97.128,276.287h0l-1.508-6.254H92.036a32.728,32.728,0,0,0-31.912,0H56.663l-1.656,6.18h0a7.268,7.268,0,0,0-.3,1.978c0,6.8,9.542,12.36,21.333,12.36s21.333-5.512,21.333-12.36A7.269,7.269,0,0,0,97.128,276.287Z" transform="translate(-54.71 -260.145)"/>
          <ellipse id="_Path_186" data-name="&lt;Path&gt;" class="cls-49" cx="19.627" cy="11.321" rx="19.627" ry="11.321" transform="translate(1.805)"/>
          <ellipse id="_Path_187" data-name="&lt;Path&gt;" class="cls-50" cx="9.987" cy="5.315" rx="9.987" ry="5.315" transform="translate(11.396 5.339)"/>
        </g>
        <g id="_Group_17" data-name="&lt;Group&gt;" transform="translate(685.275 2452.833)">
          <path id="_Path_188" data-name="&lt;Path&gt;" class="cls-12" d="M167.938,269.127h0l-1.508-6.254h-3.584a32.728,32.728,0,0,0-31.912,0h-3.461l-1.656,6.18h0a7.417,7.417,0,0,0-.3,1.978c0,6.8,9.542,12.36,21.333,12.36s21.333-5.512,21.333-12.36A7.269,7.269,0,0,0,167.938,269.127Z" transform="translate(-125.52 -253.01)"/>
          <ellipse id="_Path_189" data-name="&lt;Path&gt;" class="cls-49" cx="19.627" cy="11.321" rx="19.627" ry="11.321" transform="translate(1.805)"/>
          <ellipse id="_Path_190" data-name="&lt;Path&gt;" class="cls-12" cx="9.987" cy="5.315" rx="9.987" ry="5.315" transform="translate(11.371 5.339)"/>
        </g>
        <g id="_Group_18" data-name="&lt;Group&gt;" transform="translate(578.019 2534.824)">
          <path id="_Path_191" data-name="&lt;Path&gt;" class="cls-18" d="M102.573,296.453a6.378,6.378,0,0,1-3.609,5.315,13.3,13.3,0,0,1-6.625,1.656,13.522,13.522,0,0,1-6.155-1.409,6.575,6.575,0,0,1-4.054-5.562,6.18,6.18,0,0,1,3.164-4.944,13.052,13.052,0,0,1,7.07-1.928,13.546,13.546,0,0,1,6.155,1.409,6.6,6.6,0,0,1,4.054,5.463Z" transform="translate(-82.13 -289.579)"/>
        </g>
        <path id="_Path_192" data-name="&lt;Path&gt;" class="cls-13" d="M19.427,182.114l17.3,8.38s7.416,3.733,11.766,2.694a66.888,66.888,0,0,0,11.865-4.944l52.281-32.456s4.227-3.189,2.126-4.721-13.793-11.717-13.793-11.717L17.944,166.541l-3.831,8.751a3.757,3.757,0,0,0,.569,3.436,20.444,20.444,0,0,0,4.746,3.386Z" transform="translate(395.495 2024.12)"/>
        <path id="_Path_193" data-name="&lt;Path&gt;" class="cls-14" d="M30.488,160.424s5.611-1.656,7.91,0,1.137,2.175,2.472,3.065a9.047,9.047,0,0,0,4.524.519s5.315-4.944,5.438-5.389-.519-6.007-.519-6.007L37.953,149.3l-8.083,4.6Z" transform="translate(418.966 2038.766)"/>
        <path id="_Path_194" data-name="&lt;Path&gt;" class="cls-14" d="M46.91,146.776s3.831-1.013,5.611.643,1.285,3.312,2.818,4.227a8.28,8.28,0,0,0,3.362,1.038,14.831,14.831,0,0,0,3.263-3.115c.124-.371-.124-5.858-.124-5.858l-4.079-3.881-5.364.939Z" transform="translate(444.048 2024.827)"/>
        <path id="_Path_195" data-name="&lt;Path&gt;" class="cls-51" d="M38.451,161.521c-.791,2.3-.717,6.279-2.472,6.921-.915.371-3.485-1.9-4.351-2.348-2.67-1.335-3.263-5.858-1.409-9.64,1.681-3.362,4.672-4.6,6.7-3.115,1.063.791,3.609,1.9,3.807,3.535S38.946,160.062,38.451,161.521Z" transform="translate(417.9 2043.799)"/>
        <path id="_Path_196" data-name="&lt;Path&gt;" class="cls-51" d="M55.03,150.6c-.766,2.225-.692,6.056-2.274,6.7-.89.346-3.362-1.829-4.2-2.249-2.472-1.285-3.164-5.661-1.36-9.294,1.631-3.263,4.5-4.425,6.452-2.991,1.038.742,3.485,1.829,3.658,3.411S55.624,149.187,55.03,150.6Z" transform="translate(442.972 2028.249)"/>
        <path id="_Path_197" data-name="&lt;Path&gt;" class="cls-16" d="M18.4,185.628c.569,0,20.121,9.888,20.121,9.888a8.183,8.183,0,0,0,1.137,2.472c.742.989,5.834,2.175,8.454,2.472s6.946-.2,7.712-1.78,1.508-9.121,2.818-11.321,7.144-5.562,8.454-5.166,3.016.989,2.818,2.472a25.389,25.389,0,0,0,0,3.98s.173,1.78,1.681,1.384,26.524-17.476,26.524-17.476.742-.4,1.137-2.472.371-9.715,2.472-11.124,5.636-3.362,5.636-3.362a2.472,2.472,0,0,1,2.076,1.582,42.023,42.023,0,0,1,0,6.946.989.989,0,0,0,1.384.519,14.238,14.238,0,0,0,4.524-3.782,16.24,16.24,0,0,0,2.076-7.737c-.371-2.769.2-6.551-1.508-8.33s-25.757-12.706-25.757-12.706a8.256,8.256,0,0,0-5.265,0c-2.645.989-14.832,4.153-15.326,4.351a48.528,48.528,0,0,1-6.921-2.225,7.91,7.91,0,0,0-3.535.42A174.1,174.1,0,0,0,42,142.938l-7.589,4.944a18.094,18.094,0,0,0-2.175,2.744,52.8,52.8,0,0,1-7.416,10.333c-1.879,1.384-9.393,5.142-9.393,5.142a19.133,19.133,0,0,0-3.362,6.427c-.371,2.472,2.472,9.1,2.472,9.1a2.076,2.076,0,0,0,.84,2.3c1.31,1.187.791,3.09,1.36,2.892A7.067,7.067,0,0,0,18.4,185.628Z" transform="translate(392.717 2012.795)"/>
        <path id="_Path_198" data-name="&lt;Path&gt;" class="cls-18" d="M117.612,145.118c-.346-2.645.124-6.18-1.285-8.058a5.142,5.142,0,0,1-1.236,1.261l-14.04,4.944-14.832-5.858L62.068,151.422l-3.906,17.3s-6.526,5.265-9.912,5.265H43.578s-22.4-10.58-24.719-12.36a8.775,8.775,0,0,1-3.139-3.881A7.836,7.836,0,0,0,12.308,162a27.463,27.463,0,0,0,0,8.948,13.052,13.052,0,0,0,1.953,5.488c1.31,1.187,2.3,2.2,2.843,2a7.071,7.071,0,0,0,1.508-.989c.569,0,20.121,9.888,20.121,9.888a8.181,8.181,0,0,0,1.137,2.472c.742.989,5.834,2.175,8.454,2.472s6.946-.2,7.712-1.78,1.508-9.121,2.818-11.321,7.144-5.562,8.454-5.166,3.016.989,2.818,2.472a25.39,25.39,0,0,0,0,3.98s.173,1.78,1.681,1.384,26.524-17.476,26.524-17.476.742-.4,1.137-2.472.371-9.715,2.472-11.124,5.636-3.362,5.636-3.362A2.472,2.472,0,0,1,109.653,149a42.024,42.024,0,0,1,0,6.946.989.989,0,0,0,1.31.742,14.239,14.239,0,0,0,4.524-3.782A16.241,16.241,0,0,0,117.612,145.118Z" transform="translate(392.577 2020.749)"/>
        <path id="_Path_199" data-name="&lt;Path&gt;" class="cls-20" d="M18,150.741s3.436-5.067,5.142-7.614,3.115-4.6,3.115-4.6l25.683,12.137-3.411,14.065s-.519.89-1.162.89S18,151.656,18,151.656Z" transform="translate(401.495 2022.913)"/>
        <path id="_Path_200" data-name="&lt;Path&gt;" class="cls-20" d="M35.283,143.221c.247.371,2.744,13.052,2.744,13.052L31.18,160.4a161.566,161.566,0,0,1,3.436-16.587C35.283,142.8,35.283,143.221,35.283,143.221Z" transform="translate(420.894 2029.691)"/>
        <path id="_Path_201" data-name="&lt;Path&gt;" class="cls-20" d="M33.72,146.852l3.09,12.335,12.829-7.836-4.5-11.321Z" transform="translate(424.633 2025.121)"/>
        <path id="_Path_202" data-name="&lt;Path&gt;" class="cls-20" d="M39.11,142.461l4.524,11.074,12.112-7.416,2.843-1.681a1.038,1.038,0,0,0,0-1.928C57.081,141.5,46.6,137.74,46.6,137.74Z" transform="translate(432.567 2021.75)"/>
        <path id="_Path_203" data-name="&lt;Path&gt;" class="cls-17" d="M21.831,146.042l-.321.569.321.4,24.2,11.445s1.953.84,2.942.272,3.189-1.953,3.189-1.953l9.665-5.735,4.079-2.472,6.6-3.955L49.912,133.164a4.989,4.989,0,0,0-5.933,0L25.737,143.4Z" transform="translate(406.661 2013.571)"/>
        <path id="_Path_204" data-name="&lt;Path&gt;" class="cls-17" d="M37.27,135.1l30.479,14.831,10.085-3.485,1.236-1.261a77.963,77.963,0,0,0-12.8-6.921l-13.175-6.13a5.191,5.191,0,0,0-3.04-.519,26.942,26.942,0,0,0-3.757.717Z" transform="translate(429.858 2012.671)"/>
        <path id="_Path_205" data-name="&lt;Path&gt;" class="cls-12" d="M26.182,138.5s-1.409,2.052-3.115,4.6S18,150.711,18,150.711v.939l9.146,4.425.124-.124a23.458,23.458,0,0,0,11.791-3.56,10.8,10.8,0,0,0,4.6-5.636h0Z" transform="translate(401.495 2022.869)"/>
        <path id="_Path_206" data-name="&lt;Path&gt;" class="cls-20" d="M39.816,162.571c-1.187,3.609-4.128,5.883-6.575,4.647s-3.288-5.858-1.483-9.665c1.631-3.386,4.548-4.622,6.575-3.164a7.416,7.416,0,0,1,1.483,8.182Z" transform="translate(420.317 2045.369)"/>
        <path id="_Path_207" data-name="&lt;Path&gt;" class="cls-23" d="M37.116,160.342c-.742,2.225-2.472,3.609-4.054,2.843s-2.027-3.609-.915-5.933,2.793-2.843,4.029-1.928a4.622,4.622,0,0,1,.939,5.018Z" transform="translate(421.41 2047.005)"/>
        <path id="_Path_208" data-name="&lt;Path&gt;" class="cls-20" d="M56.428,151.54c-1.162,3.485-3.98,5.661-6.353,4.474s-3.164-5.661-1.409-9.319c1.582-3.263,4.4-4.474,6.353-3.04a7.267,7.267,0,0,1,1.409,7.885Z" transform="translate(445.233 2029.58)"/>
        <path id="_Path_209" data-name="&lt;Path&gt;" class="cls-23" d="M53.8,149.384c-.717,2.126-2.472,3.485-3.906,2.744s-1.953-3.461-.865-5.71,2.694-2.744,3.906-1.879a4.474,4.474,0,0,1,.865,4.845Z" transform="translate(446.306 2031.167)"/>
        <path id="_Path_210" data-name="&lt;Path&gt;" class="cls-14" d="M45.813,142.347a2.769,2.769,0,0,0,2.966,1.78c2.472-.173,2.472-.89,2.472-.89a3.09,3.09,0,0,0-1.706-2.472,25.61,25.61,0,0,0-3.831-1.335l-.494.766,1.137.519Z" transform="translate(441.56 2024.238)"/>
        <g id="_Group_19" data-name="&lt;Group&gt;" transform="translate(459.391 2172.74)">
          <path id="_Path_211" data-name="&lt;Path&gt;" class="cls-19" d="M68.4,143.1,34.14,165.347a1.311,1.311,0,0,1,.519,0c1.31.4,3.016.989,2.818,2.472a25.363,25.363,0,0,0,0,3.98s.173,1.78,1.681,1.384,26.524-17.476,26.524-17.476.742-.4,1.137-2.472.371-7.416,1.607-9.888Z" transform="translate(-34.14 -143.1)"/>
        </g>
        <g id="_Group_20" data-name="&lt;Group&gt;" transform="translate(500.302 2159.54)">
          <path id="_Path_212" data-name="&lt;Path&gt;" class="cls-19" d="M52.494,148.043a42.022,42.022,0,0,1,0,6.946.989.989,0,0,0,1.434.667,14.239,14.239,0,0,0,4.524-3.782,16.24,16.24,0,0,0,2.076-7.737c-.272-1.978,0-4.474-.544-6.378l-2.2,4.252-7.094,4.6a2.3,2.3,0,0,1,1.8,1.434Z" transform="translate(-50.69 -137.76)"/>
        </g>
        <g id="_Group_21" data-name="&lt;Group&gt;" transform="translate(433.288 2194.74)">
          <path id="_Path_213" data-name="&lt;Path&gt;" class="cls-19" d="M28.746,158.476a9.492,9.492,0,0,1,1.236-4.944v-.519L26.571,152l-2.991,5.413,2.472,12.063a30.676,30.676,0,0,0,5.166.964c2.62.2,6.946-.2,7.712-1.78s1.508-9.121,2.818-11.321a86.2,86.2,0,0,1-10.184,4.227C29.933,161.888,29.142,160.4,28.746,158.476Z" transform="translate(-23.58 -152)"/>
        </g>
        <path id="_Path_214" data-name="&lt;Path&gt;" class="cls-18" d="M44.192,174.431a13.62,13.62,0,0,1,.643-8.38,10.579,10.579,0,0,1,3.708-3.708c-1.261-.3-4.944-.643-4.944-.643s-22.4-10.58-24.719-12.36a8.775,8.775,0,0,1-3.139-3.881,7.836,7.836,0,0,0-3.411,4.252,27.463,27.463,0,0,0,0,8.948,13.052,13.052,0,0,0,1.953,5.488c1.31,1.186,2.3,2.2,2.843,2a7.066,7.066,0,0,0,1.508-.989c.569,0,18.539,9.072,18.539,9.072a9.369,9.369,0,0,0,1.137,2.472c1.112,1.582,7.416,3.04,10.061,3.238C45.205,178.93,44.834,176.8,44.192,174.431Z" transform="translate(392.606 2033.114)"/>
        <path id="_Path_215" data-name="&lt;Path&gt;" class="cls-17" d="M13.451,147.984s-1.706,1.681,0,2.472c3.93,2.126,25.659,12.483,25.659,12.483a8.528,8.528,0,0,0,8.306.89,31.017,31.017,0,0,0,3.955-2.052l1.063-.618c.519-.3.3-.618.3-.618l-.371-.569-.742-.346L19.483,144.35l-4.944,2.719Z" transform="translate(393.684 2031.48)"/>
        <g id="_Group_22" data-name="&lt;Group&gt;" transform="translate(470.12 2158.353)">
          <path id="_Compound_Path_4" data-name="&lt;Compound Path&gt;" class="cls-13" d="M45.6,170.9l-.89-13.966L38.48,142.446h0l8.7-5.166h0l14.832,6.18.865,3.312s0,.2-1.582,1.78a6.674,6.674,0,0,0-1.829,4.351L58.4,162.494h0Zm-6.847-28.353,6.155,14.337.915,13.546,12.36-8.058,1.038-9.443a6.822,6.822,0,0,1,1.928-4.524,13.77,13.77,0,0,0,1.483-1.483l-.84-3.213L46.959,137.6Z" transform="translate(-38.48 -137.28)"/>
        </g>
        <g id="_Group_23" data-name="&lt;Group&gt;" transform="translate(456.87 2163.445)">
          <path id="_Compound_Path_5" data-name="&lt;Compound Path&gt;" class="cls-13" d="M41.03,175.727v-.148A65.16,65.16,0,0,0,39.325,165c-.791-1.483-1.706-1.137-1.755-1.112h-.148v-.148l-4.3-16.414h0l13.373-7.984,6.279,14.584.939,13.843h0Zm-3.263-12.236c.42,0,1.112.2,1.706,1.31a59.153,59.153,0,0,1,1.73,10.456l12.211-7.688L52.6,153.9l-6.13-14.238-13.027,7.786,4.227,16.092Z" transform="translate(-33.12 -139.34)"/>
        </g>
        <path id="_Path_216" data-name="&lt;Path&gt;" class="cls-52" d="M45.046,147.03a2.645,2.645,0,0,1-2.3.766,1.582,1.582,0,0,1-1.137-1.533,2.324,2.324,0,0,1,1.31-1.458,1.854,1.854,0,0,1,1.508-.148,1.434,1.434,0,0,1,1.063,1.533,1.508,1.508,0,0,1-.445.84Z" transform="translate(436.247 2031.791)"/>
        <path id="_Path_217" data-name="&lt;Path&gt;" class="cls-22" d="M42.585,147.365a24.149,24.149,0,0,0,2.472-1.458s.667-.717.346-1.137-2.744,1.31-2.744,1.31-1.631.519-.84,1.013S42.585,147.365,42.585,147.365Z" transform="translate(436.235 2032)"/>
        <path id="_Path_218" data-name="&lt;Path&gt;" class="cls-16" d="M46.456,139.83l-.766,2.027A3.115,3.115,0,0,0,49,142.945c1.261-.223.84-.445.84-.445s.445,0-.346-1.112a3.139,3.139,0,0,0-.865-.692A6.106,6.106,0,0,0,46.456,139.83Z" transform="translate(442.252 2024.827)"/>
        <path id="_Path_219" data-name="&lt;Path&gt;" class="cls-53" d="M53.24,140.191v1.533s.124.939,1.211.544c.593-.223,1.533-.667,1.533-.667l.742-.519v-2.1H54.773Z" transform="translate(453.365 2023.575)"/>
        <path id="_Path_220" data-name="&lt;Path&gt;" class="cls-54" d="M56.033,137.4l-.742,1.384a2.843,2.843,0,0,1-1.088.865,3.016,3.016,0,0,0-.964.544v2.348s0,1.706.865,1.384a5.906,5.906,0,0,0,1.928-.989,3.091,3.091,0,0,0,.643-.766,23.041,23.041,0,0,0-.173-3.436C56.305,138.24,56.033,137.4,56.033,137.4Z" transform="translate(453.365 2021.25)"/>
        <path id="_Path_221" data-name="&lt;Path&gt;" class="cls-31" d="M20.5,149.118,36.866,157.7l4.178,6.724L47,165.878l1.829-1.483s-.3,2.472-1.137,3.09a5.191,5.191,0,0,1-4.6,1.137c-6.229-2.175-30.948-15.128-30.948-15.128a19.208,19.208,0,0,1-.247-3.016c0-1.261,3.955-1.978,3.955-1.978Z" transform="translate(392.516 2037.588)"/>
        <path id="_Path_222" data-name="&lt;Path&gt;" class="cls-23" d="M12.108,154.925a41.356,41.356,0,0,0,6.106,3.189c.816,0,.717-.2,1.211-1.285a31.911,31.911,0,0,0,1.063-4.771,22.262,22.262,0,0,0-2.249-1.285l-4.1-1.953s-1.063-.42-1.063-1.112a3.585,3.585,0,0,1,.173-1.187,7.639,7.639,0,0,0-.865,1.953,36.83,36.83,0,0,0-.445,3.683,14.608,14.608,0,0,0,.173,2.769Z" transform="translate(392.555 2034.674)"/>
        <path id="_Path_223" data-name="&lt;Path&gt;" class="cls-23" d="M35.169,153.777a5.414,5.414,0,0,1-2,1.557,4.525,4.525,0,0,1-2.126.3s-3.189-1.088-4.944-1.854-3.362-1.557-3.362-1.557-.865,2.818-.989,3.683-.692,2.3.766,3.016,6.2,2.892,6.2,2.892a11.7,11.7,0,0,0,3.164-.766,7.416,7.416,0,0,1,2.076-.84s.569-.2.964-2.225A19.774,19.774,0,0,0,35.169,153.777Z" transform="translate(406.696 2043.064)"/>
        <path id="_Path_224" data-name="&lt;Path&gt;" class="cls-5" d="M38.39,168.777a5.216,5.216,0,0,1-1.854-2.472,15.548,15.548,0,0,1-.272-4.6L16.217,151.82a15.326,15.326,0,0,1-1.458,3.98,2.076,2.076,0,0,1-1.458,0h0c.89.816,1.557,1.36,1.978,1.211a7.07,7.07,0,0,0,1.508-.989c.569,0,18.539,9.072,18.539,9.072a9.369,9.369,0,0,0,1.137,2.472A5.562,5.562,0,0,0,38.81,169a1.359,1.359,0,0,0-.42-.223Z" transform="translate(394.577 2042.475)"/>
        <g id="_Group_24" data-name="&lt;Group&gt;" transform="translate(448.463 2192.826)">
          <path id="_Compound_Path_6" data-name="&lt;Compound Path&gt;" class="cls-55" d="M30.167,156.575h-.2a.643.643,0,0,1-.247-.569v-2.225a1.508,1.508,0,0,1,.643-1.236l2.324-1.261a.445.445,0,0,1,.445,0,.643.643,0,0,1,.247.569v2.225a1.508,1.508,0,0,1-.643,1.236l-2.324,1.261Zm2.719-5.29h-.2l-2.324,1.261a1.384,1.384,0,0,0-.593,1.112v2.225a.519.519,0,0,0,.2.47.321.321,0,0,0,.346,0l2.324-1.261a1.384,1.384,0,0,0,.593-1.112v-2.225a.519.519,0,0,0-.2-.47Z" transform="translate(-29.719 -151.226)"/>
        </g>
        <path id="_Path_225" data-name="&lt;Path&gt;" class="cls-16" d="M15.844,148.593,14.707,148l-.816,4.128-.371,2.744h0l.643.321a6.429,6.429,0,0,0,1.73.717c.816,0,.717-.2,1.211-1.285a31.911,31.911,0,0,0,1.063-4.771A22.264,22.264,0,0,0,15.844,148.593Z" transform="translate(394.9 2036.852)"/>
        <path id="_Path_226" data-name="&lt;Path&gt;" class="cls-28" d="M19.5,153.669a6.748,6.748,0,0,0,.346-1.137,1.457,1.457,0,0,1-.593,0l-.791-.3L11.987,148.7v.346a16.834,16.834,0,0,0,0,2.472,43.461,43.461,0,0,0,6.254,3.288C19.007,154.979,18.908,154.781,19.5,153.669Z" transform="translate(392.577 2037.883)"/>
        <path id="_Path_227" data-name="&lt;Path&gt;" class="cls-16" d="M26.75,154.089l-.643-.272c-1.656-.742-3.362-1.557-3.362-1.557s-.865,2.818-.989,3.683-.692,2.3.766,3.016l3.04,1.434Z" transform="translate(406.711 2043.123)"/>
        <path id="_Path_228" data-name="&lt;Path&gt;" class="cls-28" d="M33.949,158.021s.569-.2.964-2.225a8.763,8.763,0,0,1,.173-1.162,6.4,6.4,0,0,1-2.892,2.126,5.562,5.562,0,0,1-3.189,0c-.816-.272-5.24-2.151-7.243-3.04h0c-.148,1.112-.692,2.3.766,3.016s6.2,2.892,6.2,2.892a8.651,8.651,0,0,0,3.139,0A4.474,4.474,0,0,0,33.949,158.021Z" transform="translate(406.705 2045.271)"/>
        <path id="_Path_229" data-name="&lt;Path&gt;" class="cls-52" d="M39.6,150.47a2.645,2.645,0,0,1-2.3.766A1.582,1.582,0,0,1,36.16,149.7a2.323,2.323,0,0,1,1.31-1.458,1.854,1.854,0,0,1,1.508-.148,1.434,1.434,0,0,1,1.063,1.533,1.508,1.508,0,0,1-.445.84Z" transform="translate(428.225 2036.854)"/>
        <path id="_Path_230" data-name="&lt;Path&gt;" class="cls-22" d="M37.155,150.785a24.222,24.222,0,0,0,2.472-1.458s.667-.717.346-1.137-2.744,1.31-2.744,1.31-1.631.519-.84,1.013S37.155,150.785,37.155,150.785Z" transform="translate(428.243 2037.034)"/>
        <path id="_Path_231" data-name="&lt;Path&gt;" class="cls-30" d="M13.519,149.6l-1.582-.865v.346a16.834,16.834,0,0,0,0,2.472l1.458.865a8.924,8.924,0,0,1,0-1.829C13.42,150.287,13.47,149.917,13.519,149.6Z" transform="translate(392.504 2037.927)"/>
        <path id="_Path_232" data-name="&lt;Path&gt;" class="cls-30" d="M30.63,155.252a8.763,8.763,0,0,1,.173-1.162,6.4,6.4,0,0,1-2.892,2.126,5.637,5.637,0,0,1-2.892,0c-.247,1.038-.445,2.052-.569,2.818a8.454,8.454,0,0,0,3.115,0,4.474,4.474,0,0,0,2.1-1.607S30.234,157.279,30.63,155.252Z" transform="translate(410.988 2045.816)"/>
        <g class="cls-61" transform="matrix(1, 0, 0, 1, 0, 1744)">
          <path id="_Path_233" data-name="&lt;Path&gt;" class="cls-50" d="M89.336,120.09A36.567,36.567,0,1,0,46.457,156.1l6.312,17.413,6.312-17.472A36.567,36.567,0,0,0,89.336,120.09Z" transform="translate(399.84 220.94)"/>
        </g>
        <path id="_Compound_Path_7" data-name="&lt;Compound Path&gt;" class="cls-56" d="M69.867,108.634h0a23.923,23.923,0,0,0-46.758,0h0a23.943,23.943,0,1,0,46.758,0ZM46.5,94.327a19.431,19.431,0,0,1,18.838,14.7c-4.571.376-11.873.91-18.818.989a184.741,184.741,0,0,1-18.838-.91A19.431,19.431,0,0,1,46.5,94.327ZM27.107,114.59c.455,0,11.516.218,13.277,5.56a76.54,76.54,0,0,1,2.731,12.743,19.412,19.412,0,0,1-16.008-18.3Zm23.31,18.2a67.278,67.278,0,0,1,2.3-12.644c1.741-5.659,12.506-5.165,13.159-5.145A19.431,19.431,0,0,1,50.416,132.794Z" transform="translate(406.054 1971.072)"/>
        <g class="cls-60" transform="matrix(1, 0, 0, 1, 0, 1744)">
          <path id="_Path_234" data-name="&lt;Path&gt;" class="cls-50" d="M160.058,36.546a36.543,36.543,0,1,0-42.851,35.99L123.515,90l6.308-17.461a36.543,36.543,0,0,0,30.235-35.99Z" transform="translate(513.01 98)"/>
        </g>
        <path id="_Compound_Path_8" data-name="&lt;Compound Path&gt;" class="cls-57" d="M130.424,35.983a8.9,8.9,0,0,1-3.7,7.653,17.164,17.164,0,0,1-10.283,2.689H98.31V10.019h16.571a18,18,0,0,1,10.045,2.294,7.672,7.672,0,0,1,3.4,6.8,8.028,8.028,0,0,1-1.7,5.2,8.76,8.76,0,0,1-5.2,2.946,11.133,11.133,0,0,1,6.7,2.768A7.91,7.91,0,0,1,130.424,35.983Zm-9.709-15.82a3.836,3.836,0,0,0-1.562-3.461,8.424,8.424,0,0,0-4.607-1.028H105.9v8.978h8.681a7.692,7.692,0,0,0,4.667-1.127,3.955,3.955,0,0,0,1.444-3.3Zm2.116,15.167q0-5.082-7.3-5.082h-9.61V40.67h9.887a8.642,8.642,0,0,0,5.339-1.325,4.746,4.746,0,0,0,1.661-3.955Z" transform="translate(524.096 1851.762)"/>
        <g class="cls-59" transform="matrix(1, 0, 0, 1, 0, 1744)">
          <path id="_Path_235" data-name="&lt;Path&gt;" class="cls-50" d="M188.76,246.347a36.539,36.539,0,1,0-42.787,35.986l6.307,17.459,6.307-17.459a36.539,36.539,0,0,0,30.172-35.986Z" transform="translate(554.27 401.8)"/>
        </g>
        <path id="_Compound_Path_9" data-name="&lt;Compound Path&gt;" class="cls-58" d="M153.291,255.073l-3.124-9.253H136.326l-3.2,9.253H125.55l13.208-36.2h8.937l13.168,36.2Zm-10.123-30.627-.158.573q-.257.929-.613,2.116t-4.429,13.01h10.4l-3.579-10.4-1.107-3.5Z" transform="translate(563.916 2154.676)"/>
      </g>
    </g>
  </g>
</svg>
