<svg id="mockup_cover" data-name="mockup cover" xmlns="http://www.w3.org/2000/svg" xmlns:xlink="http://www.w3.org/1999/xlink" width="1920" height="449.61" viewBox="0 0 1920 449.61">
  <defs>
    <linearGradient id="linear-gradient" x1="-257.957" y1="176.272" x2="-257.711" y2="176.272" gradientUnits="objectBoundingBox">
      <stop offset="0.11" stop-color="#4f6389"/>
      <stop offset="0.27" stop-color="#4f6389"/>
    </linearGradient>
    <linearGradient id="linear-gradient-2" x1="-234.956" y1="121.975" x2="-234.725" y2="121.975" xlink:href="#linear-gradient"/>
  </defs>
  <g id="Layer_1" data-name="Layer 1">
    <path id="Path_563" data-name="Path 563" d="M1385.46,58.56V70.08h-10.34V58.56h-18.34V70.08h-14.11v51.85h-28.93V104.07H1303.3V58.56H1294v-15h-2.11v15h-8.55V52.12H1267.2v6.43h-15.9V90.84H1240V84.53h-34.56v6.32h-9.52V77.32h-3.17V90.83h-9.51V137.4h-28V70.08h-2.81l-7.88-5.34V52.12l-5.79-3.63a8.08,8.08,0,0,0-6.8-7.84v-18a1.52,1.52,0,0,0-3,0v18a8.07,8.07,0,0,0-6.8,7.84l-5.79,3.63V64.74l-7.84,5.34h-3.28v67.33h-12.29V116.26h-9.7V90.86h-13.8V72.62l-8.3-7.73V56.27L1047.27,46l-5.87-3.75h-8.92V26.36h-1.7v15.9h-1.45V46h-4.2V90.84h-11.76v25.4h-9.71v21.15h-12.3v-32.5c-14.18-9.9-29-19.37-42.94-29.42V61h-13V56.54H882.33V61h-13V84.53H856.57v6.32H845.32V58.56H832.41V6.77L829.67,0l-.37,18.54L786,44.88l-.37,59.19h-2.81v17.86h-1.5V119.1h-10V79.92l-4.52-4.77h-4.49V71.21l-14.5-21.6-15.47,21.6v3.94H727.9l-4.57,4.77V119.1h-10.2l-7.64,2.83v39.33H685V121.93H649.75V104.07H639.34V58.56H630v-15h-2.11v15h-8.56V52.12h-16.1v6.43h-15.9V90.84H576.07V84.53H541.5v6.32H532V77.32h-3.17V90.83h-9.49L506.47,137.4H491.29V70.08l-2.8-5.34h-7.87V52.12l-5.79-3.63a8.08,8.08,0,0,0-6.8-7.84v-18a1.52,1.52,0,0,0-3,0v18a8.07,8.07,0,0,0-6.8,7.84l-5.79,3.63V64.74h-7.89l-3.28,5.38v67.33H428.95V116.26h-9.67V90.86H405V79.69h-2.82V90.84h-6.7V81.05h-12.7v9.79h-7.52V331.05H1402.34V1.72Z" fill="#f3f2fb"/>
    <path id="Path_564" data-name="Path 564" d="M1531.18,250.34a14.622,14.622,0,0,0,.15-1.95c0-8.41-7.14-15.22-15.95-15.22a15.79,15.79,0,0,0-15.63,12.18c-.43,0-.86-.07-1.3-.07a14.13,14.13,0,0,0-9.5,3.63,9.92,9.92,0,0,0-6.7-5.94V165.23H1436v79.9a15.179,15.179,0,0,0-5.8,8.49l.47-163.89-47.25.55-.16,58.68h-22.7v1.56l-13.93,36.31v1.56h-6.52l-19.44-15.73V72.43h-4.7V67.12h-7.51v-3h-14.75V52.39h-.89V29.87h-.39V52.39h-.9V64.07h-12.58v3h-8.19v5.31h-5.8V186.9l-3.11-1.64V146.34h-6.09v7.92h-4.29V129h-5.66v25.24h-8.19v18.18l-17.6-9.3V116.36l-8.07-9.95v-.66l-26.48-8V88.5l-11.63-5.74V94.23l-1.54-.47v80.18l-11.74-.82.07-8.05h0V164h-5.08V138l-3.81-1.23-1.81-5-4.42-6.64V118.2h0l-1.42-1.33-3.79-3.54V113l-.88-30.88-.6,13.88.12,17.59-4.31,4.6h0l.08,6.94-3.92,6.64-2.07,4.83-3,1.41h0v26h-6.4v7h-30.65v3.86h-11.31l-1.19-74.08v-.06a.523.523,0,0,0,0-.17h0l-15-24a1.16,1.16,0,0,0-1.37-.17l-35.66,27.13v.06h-.06a.546.546,0,0,0,0,.06l-.06.11a.515.515,0,0,0,0,.13.447.447,0,0,0,0,.06v79.59H1006.9v-45.7H960.6v69.05l-23.54,9.49-1,25c-7.32.2-13.19,5.86-13.19,12.82a12.216,12.216,0,0,0,.12,1.64c-11.2-2.34-16.28,7.57-16.9,14.75h18.85l-1.09.34,76.09-.18c70.28.11,154.36.16,154.36-.32h0l105.87-.25a.92.92,0,0,0,.09.28h284.35A26.02,26.02,0,0,0,1531.18,250.34Z" fill="#f4f3fb"/>
    <path id="Path_594" data-name="Path 594" d="M969.73,254.79l-.43.14-.52.19c-.74.28-1.64.66-2.53,1s-1.81.76-2.56,1l-.43.15.13-.21a4.356,4.356,0,0,0,.3-.63l.13-.31.1-.3c.06-.2.13-.4.17-.6l.11-.57q.079-.5.11-1v-.88a2.882,2.882,0,0,0-.11-.67l-.17-.58.08.59v.68c0,.26-.07.56-.1.88a4.613,4.613,0,0,1-.26,1l-.19.57c-.07.2-.17.39-.26.59l-.14.3-.18.3a4.99,4.99,0,0,1-.39.62c-.16.2-.3.43-.49.63l-.3.31c-.1.11-.24.2-.35.31a15.718,15.718,0,0,1-1.7,1.21c-.62.39-1.28.82-1.91,1.15s-1.24.75-1.78,1.1c-.26.18-.53.35-.75.52l-.34.25v-1.27a7.627,7.627,0,0,0-.18-.9l-.2-.88a8.647,8.647,0,0,0-.29-.82c-.2-.56-.39-1.11-.63-1.64l-.66-1.52-.63-1.39-.53-1.25a10.875,10.875,0,0,1-.4-1.11l-.31-.94c-.12-.57-.2-1-.25-1.33l-.09-.47v.48c0,.31.06.76.12,1.34l.22,1a10.073,10.073,0,0,0,.29,1.11l.4,1.26.49,1.4.52,1.52a16.657,16.657,0,0,1,.47,1.64c.07.28.16.57.2.82l.11.87a7.206,7.206,0,0,1,.09.89l-.11.85-.06.93-.07.92-.15.34a.188.188,0,0,1-.06.14,8.913,8.913,0,0,0,.09,1c-.01.18,0,.32,0,.48v1.3l-.73-.23-1-.28-2.28-.66a20.793,20.793,0,0,1-2.34-.82l-.52-.25-.5-.27c-.33-.18-.7-.36-1-.56l-1-.57c-.34-.2-.63-.4-1-.6l-.47-.3-.42-.31-.43-.31-.2-.16-.17-.16-.35-.33a3.419,3.419,0,0,1-.29-.33l-.27-.33-.23-.33-.82-1.3c-.14-.21-.32-.42-.47-.61a7.656,7.656,0,0,0-.57-.58c-.19-.19-.47-.36-.68-.53l-.34-.25-.29-.25c-.36-.33-.63-.63-.89-.89a6.991,6.991,0,0,0-.76-.68,3,3,0,0,0-.71-.41l-.27-.09h0l.26.1a2.732,2.732,0,0,1,.67.42,6.211,6.211,0,0,1,.7.69c.25.27.49.57.82.9l.27.25.32.25c.2.17.45.35.63.53a4.94,4.94,0,0,1,.52.58,5.82,5.82,0,0,1,.42.61l.75,1.3.2.34.25.34a3.068,3.068,0,0,0,.27.34l.32.33.16.16.2.16.32.26h-.24a2.443,2.443,0,0,1-.66-.14l-.77-.18-.82-.21-.92-.23c-.31-.08-.67-.15-1-.22l-.57-.09h-1.81l-1.17-.06H931.6a2.241,2.241,0,0,1-.66-.06l-.56-.06.54.07a2.489,2.489,0,0,1,.65.07l.86.07,1,.07,1.14.07h1.68l.52.1c.32.07.65.15.93.23l.82.25.82.23.75.2c.22.07.5.11.7.16l.31.07h.27l.51.08h0l.07.07.45.31c.3.2.58.42.9.61l1,.59c.31.2.66.38,1,.57l.47.27.53.26a20,20,0,0,0,2.36.9l2.24.69.92.29.74.25c.39.12.68.24.89.32v.15a16.31,16.31,0,0,1,2-.39c-.06-1.46-.08-3-.08-3v-.24l.09-.29c0-.11.12-.22.2-.35a2.464,2.464,0,0,1,.3-.4,3.77,3.77,0,0,1,.42-.44,6.757,6.757,0,0,1,.54-.48c.19-.16.43-.34.66-.51.47-.35,1-.71,1.59-1.1s1.17-.78,1.74-1.18a13.118,13.118,0,0,0,1.56-1.25,4.5,4.5,0,0,0,.32-.32l.26-.32v-.06l.25-.07.47-.16.51-.2c.71-.29,1.54-.69,2.35-1.08s1.64-.82,2.29-1.08l.47-.2.39-.15.38-.11Z" fill="#6150cc"/>
    <rect id="Rectangle_64" data-name="Rectangle 64" width="1920" height="48.37" transform="translate(0 266.01)" fill="#eceaf9"/>
    <path id="Path_595" data-name="Path 595" d="M1920,435.87H0L.43,311H1920Z" fill="#f3f2fb"/>
    <rect id="Rectangle_65" data-name="Rectangle 65" width="1920" height="20.6" transform="translate(0 429.01)" fill="#eceaf9"/>
    <path id="Path_596" data-name="Path 596" d="M721.23,328.13H626.08l9-10.55h95.15Z" fill="#feffff"/>
    <path id="Path_597" data-name="Path 597" d="M704.7,347.59H609.54l9-10.55h95.15Z" fill="#feffff"/>
    <path id="Path_598" data-name="Path 598" d="M688.16,367.07H593l9-10.55h95.15Z" fill="#feffff"/>
    <path id="Path_599" data-name="Path 599" d="M671.62,386.53H576.47l9-10.55h95.15Z" fill="#feffff"/>
    <path id="Path_600" data-name="Path 600" d="M655.09,406H559.93l9-10.55H664Z" fill="#feffff"/>
    <path id="Path_601" data-name="Path 601" d="M638.54,425.47H543.39l9-10.55h95.15Z" fill="#feffff"/>
    <g id="Group_72" data-name="Group 72">
      <path id="Path_583" data-name="Path 583" d="M1664.77,119.26c6.31-7.29,6.19-16.78.25-24-5.74-6.93-8.19-13.68-19.43-14.39-9.95-.62-11.19-3.52-16-9.83-3.28-4.23-7.78-9.29-14.07-9.38a17.27,17.27,0,0,0-13.76,6.47c-4.2,5.67-2.08,10.58-3.58,16.63-1.2,4.87-3.88,6.45-9.1,6-7.69-.66-16.91.17-21.36,6.15-3.73,5-5.74,11.47-4.53,17.38,1.13,5.74,8.25,11.13,7.6,16.09-.7,5.44-5.6,9.65-4.76,15.35.82,5.43,6,7.44,11.73,8.55,8.71,1.68,3.56,7.75,2.84,13.17-1.27,9.55,2,18.25,13.41,21.83,4.26,1.34,9.53,1.64,14.06,1.85,2.65.12,5.36-.12,8,.07,2.91.2,5.33,1.43,8.11,1.75,7.73.88,16.15-6.28,22.51-9.76,3.85-2.11,9.29-4.59,7.77-9.31-1-2.95-4.64-5-4.39-8.55.43-6.33,9.91-9.78,12.46-15.27,1.23-2.64,2.06-5.27.35-7.58-3.6-4.92-12.14-4.29-11.47-10.3C1651.92,126.66,1660.9,123.73,1664.77,119.26Z" fill="#d0cbf0"/>
      <path id="Path_584" data-name="Path 584" d="M1633.54,82.76c-5.44-3.1-7.42-10.33-12.86-13.28-6.78-3.66-11.37-1.55-14.38,2.88s-4.47,11.33-4.92,16.92c-1.16,3-3.46,5.31-9.17,6.13-8.19,1.17-18.42-1.48-21.26,9.48a21,21,0,0,0,.46,9.73c1.56,6,5.24,11.78,10.71,11.26,2.7-4.48,5.24-22.38,11.42-22.28,2.46,0,4.1,3.36,6.44,4.45,4.73,2.22,6.19-.42,8.5-4.57,2-3.61,2.56-10.39,5.47-13.11,3.43-3.23,5.08-.3,8,1.95,8,6.1,13.32,1.31,21.35-2C1644.63,82.16,1638.24,85.44,1633.54,82.76Z" fill="#dad6f3"/>
      <path id="Path_585" data-name="Path 585" d="M1645.36,136.53c-4.16-2.88-6.69,2.06-6.91,6.64a13,13,0,0,0,.48,4.2,18.44,18.44,0,0,0-4.1,9.9c-.22,3.93,1.37,5.74-.25,9.51-1.11,2.62-3.5,4.4-4.65,6.87-1.89,4.1-2.14,12.18,2.66,12.91,2.52.38,5.84-1.32,8.53-3.65,2.29-2,4.1-4.41,4.6-6.38,1.19-4.92-1.95-9.61-1.37-14.59.72-6.2,8.43-8.59,9-13.43C1653.63,145.52,1647.67,138.12,1645.36,136.53Z" fill="#dad6f3"/>
      <path id="Path_586" data-name="Path 586" d="M1644.66,115.1l-.61.57-.75.82c-1.06,1.16-2.37,2.77-3.67,4.38s-2.62,3.2-3.71,4.3c-.22.24-.43.43-.63.62l.17-.92c.2-.89.27-1.82.4-2.71l.18-1.34.12-1.32c.07-.87.16-1.73.21-2.57l.11-2.46c.08-1.6.06-3.11.08-4.51a34.929,34.929,0,0,0-.11-3.8c-.11-1.13-.12-2.11-.2-2.93l-.3-2.54.16,2.55v2.93c0,1.14-.06,2.4-.08,3.79s-.15,2.89-.31,4.48l-.25,2.46c-.1.82-.23,1.64-.34,2.54l-.19,1.3-.25,1.31c-.18.88-.3,1.76-.53,2.66s-.42,1.83-.68,2.69l-.43,1.32c-.14.44-.34.88-.5,1.31a49.338,49.338,0,0,1-2.46,5.12c-.89,1.64-1.83,3.28-2.74,4.92s-1.78,3.13-2.55,4.63c-.38.75-.77,1.48-1.08,2.2l-.48,1.06v-1.52l-.12-4c0-1.31-.22-2.61-.33-3.9l-.35-3.82c-.13-1.25-.33-2.46-.48-3.7-.33-2.46-.65-4.8-1-7.08l-1.09-6.55-1-6.06-.87-5.47c-.3-1.71-.47-3.33-.67-4.82l-.53-4.1c-.22-2.46-.35-4.43-.47-5.74l-.16-2,.09,2c.07,1.33.13,3.28.27,5.74l.39,4.1c.15,1.49.27,3.11.51,4.83l.68,5.49.82,6.08.86,6.61c.32,2.29.55,4.65.82,7.07.11,1.21.27,2.46.36,3.69l.22,3.78c.06,1.28.19,2.56.2,3.86V154.4l-.2,1.43c0,.21-.06.43-.07.62s.2,3.65.2,4.34v2.1l.11,5.63c-.34-.32-.69-.66-1.09-1l-1.43-1.28c-1-.9-2.19-1.91-3.42-3a29.359,29.359,0,0,1-3.52-3.8c-.26-.36-.56-.71-.82-1.09l-.76-1.19c-.5-.82-1.06-1.64-1.54-2.46l-1.51-2.56c-.51-.87-1-1.77-1.44-2.66-.24-.45-.48-.9-.71-1.35l-.65-1.38-.65-1.39c-.1-.23-.23-.48-.31-.69l-.27-.71-.54-1.43c-.19-.48-.3-1-.45-1.43l-.43-1.43-.36-1.44-1.36-5.65c-.22-.92-.51-1.81-.75-2.7s-.6-1.72-.89-2.55a25.233,25.233,0,0,0-1-2.36c-.17-.38-.34-.75-.53-1.11a10.671,10.671,0,0,1-.44-1.07c-.55-1.43-1-2.75-1.39-3.92s-.82-2.18-1.18-3a8,8,0,0,0-1.08-1.83,2.457,2.457,0,0,0-.41-.43l-.16-.14.15.14a2.46,2.46,0,0,1,.39.43,7.893,7.893,0,0,1,1,1.84c.35.82.71,1.84,1.09,3s.76,2.51,1.27,3.95c.12.36.27.73.42,1.1s.34.75.49,1.12c.31.76.69,1.53,1,2.36s.56,1.64.82,2.54.47,1.77.66,2.69l1.19,5.68.32,1.46.39,1.47c.14.48.25,1,.42,1.47l.5,1.44.25.72c.1.26.2.48.3.72l.49,1.14-.36-.21a11.257,11.257,0,0,1-1-.63c-.35-.27-.75-.52-1.15-.82l-1.25-1c-.43-.35-.89-.7-1.38-1.06s-1-.69-1.52-1l-.82-.44a3.616,3.616,0,0,0-.44-.21l-.44-.16-.43-.16-.47-.13c-.31-.08-.61-.18-.92-.23-.6-.13-1.19-.24-1.74-.33l-1.55-.27c-.47-.1-.92-.16-1.3-.28a10.018,10.018,0,0,1-1-.28l-.82-.29.82.34a10,10,0,0,0,1,.32c.37.13.82.21,1.28.34l1.53.34c.55.12,1.11.25,1.69.4a6.872,6.872,0,0,1,.82.26l.43.14.43.18.43.19a3.325,3.325,0,0,1,.38.21l.77.45c.47.34,1,.67,1.39,1s.87.73,1.27,1.11l1.19,1.06c.37.34.77.64,1.12.93s.75.52,1.06.75a2.415,2.415,0,0,0,.46.3l.39.2.75.39h0l.12.28c.21.47.46.92.68,1.38.47.91.89,1.83,1.38,2.71l1.45,2.61c.47.86,1,1.64,1.47,2.46l.72,1.2a11.428,11.428,0,0,0,.82,1.17,30.11,30.11,0,0,0,3.55,4c1.22,1.15,2.35,2.2,3.35,3.11l1.38,1.29c.42.39.77.76,1.11,1.1.59.56,1,1.07,1.34,1.44l.18,8.91c.1,2.83,0,5.67,0,8.5v6.32l-.1,2.1-.82,16.39-.82,15.35-.2,3.6-.16,3.51-.29,6.67-.26,6.14-.12,2.84v2.68c0,3.47-.07,6.48-.11,9l-.09,7.82h6.17l-.17-7.81c-.06-2.46-.12-5.51-.2-9V248.4c0-1.93,0-4,.06-6.09s0-4.33.06-6.62V232.2l.07-3.61.32-15.36c.07-5.34.16-10.84.24-16.45v-4.24l-.1-4.24c-.06-2.83-.09-5.67-.29-8.52-.31-5.69-.67-22.52-.68-22.83v-.51a2.006,2.006,0,0,1,0-.53l.11-1.25c.07-.46.17-1,.26-1.5a16.7,16.7,0,0,1,.42-1.7,18.207,18.207,0,0,1,.59-1.88c.23-.66.49-1.34.77-2s.61-1.43.94-2.16c.68-1.48,1.46-3,2.28-4.65s1.68-3.28,2.46-5a49.3,49.3,0,0,0,2.22-5.45c.15-.46.33-.9.44-1.37l.37-1.38.06-.24a3.8,3.8,0,0,0,.37-.27c.19-.17.46-.39.69-.63a11.01,11.01,0,0,0,.74-.82c1-1.2,2.23-2.87,3.4-4.54s2.33-3.34,3.28-4.54l.68-.82.56-.6.55-.49Z" fill="#6150cc"/>
      <path id="Path_587" data-name="Path 587" d="M1588.65,155.24c3.79-5.5,5.33-14.89,1.52-20.83-4-6.29-11.58-10.17-19.09-12.29-3.37-1-6.3-1.46-8.31-4-3-3.88-1.42-6.82-6.87-9.56-5.2-2.63-11.78-3.39-16.22.32s-4,9.6-8.28,13.27c-3.57,3-9.09,3.45-13,6.11-6.83,4.68-9.54,15.2-8.43,22.21.88,5.58,6.38,10.8,5.89,15.63-.71,6.93-6.68,11-1.92,18.13,3.54,5.32,8.32,7.59,13.64,8.55,8.87,1.59,19.27-.48,28,1.84,0,0,17.62-.3,20.55-1.16,5.74-1.69,8.89-3.28,10.73-8.26,1-2.56,1.6-5.11.28-7.37-2.79-4.74-9.4-4.16-8.91-10C1578.71,162.43,1585.66,159.58,1588.65,155.24Z" fill="#c9c3ed"/>
      <path id="Path_588" data-name="Path 588" d="M1569.93,124.07c-.75-1.12-1.76-2.36-3.09-2.46a6.88,6.88,0,0,1-5.61-3.37c-1.69-2.58-2.2-5.83-2.91-6.67a10.919,10.919,0,0,0-4.79-3.2,12.8,12.8,0,0,0-10.49.91,11.42,11.42,0,0,0-5.21,6.1c-1.13,2.82-.75,6.79-3.33,8.7a47.241,47.241,0,0,1-7,4.1c-3.39,1.71-6.48,3.28-8.46,6.2a20.67,20.67,0,0,0-3.44,15.3c.59,3.38,2.7,5.25,3.13,8.69.47,3.74-.39,5.8-1.78,9.11-2.27,5.46-3.21,9.06.39,14.58,2.2,3.38,9.83,6,11.76,4.58,1.53-1.11-4.92-2.74-6.26-11.37-.87-5.65,3.83-8.8,4.62-13.8,1-6.42-5.33-13.8-2.61-20,1-2.38,3.41-3.67,7.24-2.46,2,.65,2.42,2.94,4.56,3.62,7.6,2.46,8.28-9.88,14.89-10.65,6.06-.68,10.29,4.72,16.39.66C1571.71,130.15,1571.95,127.06,1569.93,124.07Z" fill="#d3cef1"/>
      <path id="Path_589" data-name="Path 589" d="M1574.72,173.72c-.67-4.17.67-7.37,2.89-10.58,1-1.53,2.33-2.46.82-4a2.7,2.7,0,0,0-3-.25,16.653,16.653,0,0,0-4.49,3.19c-1.72,1.64-3.19,3.62-3.48,5.31a19.728,19.728,0,0,0-3,3.7c-1.64,2.87-1.48,4.92-.14,7.92.48,1.09,1.89,3.2,1.37,4.56-.45,1.18-2,1.17-2.56,2.2a2.46,2.46,0,0,0,1.25,3.76c1.84.89,4.92,1.06,7.79.61,3.16-.49,6.12-1.73,7-3.55a5.64,5.64,0,0,0-.23-5.47C1577.59,178.59,1575.13,176.27,1574.72,173.72Z" fill="#d3cef1"/>
      <path id="Path_590" data-name="Path 590" d="M1570.75,142.19l-.46.46-.56.62c-.82.93-1.77,2.22-2.74,3.51s-2,2.57-2.77,3.45c-.16.19-.33.34-.47.49a3.826,3.826,0,0,1,.13-.74c.15-.72.2-1.46.3-2.18l.13-1.07.09-1.06c.06-.7.12-1.38.16-2.06l.09-2c.06-1.28,0-2.46.06-3.61a29.391,29.391,0,0,0-.08-3c-.08-.9-.09-1.7-.15-2.35l-.22-2,.11,2V135c0,.91,0,1.93-.07,3s-.11,2.32-.24,3.6l-.18,2c-.07.66-.17,1.34-.25,2l-.14,1-.18,1c-.13.7-.22,1.42-.4,2.14s-.31,1.47-.51,2.15l-.32,1.06a8.326,8.326,0,0,1-.38,1,41.027,41.027,0,0,1-1.82,4.1c-.66,1.34-1.37,2.65-2,3.93s-1.32,2.52-1.9,3.71c-.28.61-.57,1.18-.82,1.76l-.36.82V167.2l-.09-3.18c0-1-.16-2.1-.25-3.13l-.26-3.07c-.1-1-.25-2-.36-3-.25-1.95-.48-3.85-.78-5.68l-.82-5.29-.77-4.86-.65-4.39c-.22-1.38-.35-2.67-.5-3.87l-.39-3.28c-.16-2-.26-3.56-.34-4.62l-.12-1.64.06,1.64c0,1.07.1,2.64.2,4.63l.29,3.28c.11,1.2.2,2.5.38,3.88l.51,4.41.61,4.92.65,5.3c.24,1.84.41,3.73.6,5.68.08,1,.2,2,.27,3l.16,3c0,1,.14,2,.15,3.1s0,2.11,0,3.18v6.38l-.15,1.15a4.293,4.293,0,0,1-.06.49c0,.15.16,2.93.15,3.48v1.68q0,2.24.09,4.51c-.25-.25-.52-.53-.82-.82l-1.07-1c-.77-.72-1.64-1.53-2.55-2.46a22.991,22.991,0,0,1-2.62-3c-.2-.29-.41-.57-.59-.88l-.56-1c-.38-.65-.82-1.29-1.15-2l-1.12-2.06c-.38-.7-.71-1.42-1.07-2.14-.17-.36-.36-.72-.53-1.09l-.48-1.11-.48-1.11c-.07-.18-.17-.38-.23-.55l-.2-.57-.4-1.15c-.14-.38-.22-.77-.34-1.15l-.32-1.15-.27-1.15-1-4.53c-.16-.74-.38-1.46-.56-2.16s-.44-1.38-.66-2a15.162,15.162,0,0,0-.82-1.89c-.13-.3-.25-.6-.39-.89s-.23-.57-.34-.86c-.41-1.14-.72-2.21-1-3.15a20.711,20.711,0,0,0-.88-2.41,6.554,6.554,0,0,0-.82-1.47,1.905,1.905,0,0,0-.3-.34l-.11-.11.11.12a1.892,1.892,0,0,1,.3.34,6.484,6.484,0,0,1,.76,1.48c.26.66.53,1.48.82,2.46s.56,2,.95,3.17c.09.29.2.58.31.88s.25.6.37.9c.23.62.52,1.23.72,1.89s.43,1.34.6,2,.35,1.42.49,2.15l.89,4.56.24,1.17.3,1.18c.11.39.18.82.31,1.17l.37,1.15.19.57c.07.21.15.38.23.58l.37.91-.27-.17a8.726,8.726,0,0,1-.74-.51,10.269,10.269,0,0,1-.82-.68l-.93-.82a12.834,12.834,0,0,0-1-.82l-1.14-.82-.63-.35-.33-.17-.33-.13-.33-.13-.34-.11c-.23-.07-.46-.14-.68-.19-.45-.11-.89-.19-1.3-.26l-1.16-.21c-.35-.08-.69-.13-1-.22a7.079,7.079,0,0,1-.72-.22l-.61-.24.6.27a7.067,7.067,0,0,0,.71.26,9.281,9.281,0,0,0,1,.27l1.15.28c.41.09.82.2,1.26.32a2.5,2.5,0,0,1,.64.2l.32.12.32.15.32.15.28.17.57.36a12.562,12.562,0,0,1,1,.82c.28.28.65.59,1,.88l.89.82c.28.27.57.52.82.75a6.986,6.986,0,0,0,.82.6l.34.24.3.16.56.32h0l.09.22c.16.38.34.74.51,1.11.34.73.66,1.47,1,2.18l1.08,2.1c.35.69.75,1.34,1.1,2l.54,1c.19.33.4.63.61.94a23.766,23.766,0,0,0,2.64,3.24c.91.93,1.75,1.76,2.5,2.46l1,1c.31.32.57.62.82.88.43.45.75.86,1,1.16l.14,7.15c.07,2.27,0,4.55,0,6.82v5.06l-.07,1.68-.59,13.16-.63,12.29-.15,2.89-.11,2.82-.21,5.35-.2,4.92-.09,2.29v2.15c0,2.78-.06,5.2-.08,7.2l-.07,6.27h4.6l-.13-6.27c0-2-.09-4.42-.15-7.2V235.88l.06-2.89.24-12.29c.06-4.28.11-8.7.17-13.19v-3.38l-.07-3.4q0-3.405-.21-6.83c-.23-4.56-.5-18-.51-18.32v-.84l.08-1a8.117,8.117,0,0,1,.2-1.2c.07-.42.2-.88.31-1.37s.27-1,.44-1.52.36-1.07.57-1.64.46-1.14.7-1.74c.51-1.19,1.09-2.46,1.7-3.73s1.25-2.63,1.86-4a41.222,41.222,0,0,0,1.64-4.27c.11-.37.25-.73.34-1.1l.28-1.11v-.19l.27-.21c.14-.14.34-.31.51-.51s.37-.41.55-.66c.77-1,1.64-2.3,2.54-3.64s1.74-2.67,2.46-3.64l.51-.65.43-.48.41-.39Z" fill="#6150cc"/>
      <path id="Path_591" data-name="Path 591" d="M1654.21,243.11c-7.06-4-11.82,2.27-18.54,2.15s-2-2.69-4.46-7.54c-3.37-6.74-6-6.83-10.53-7.52-2.34-.36-5.38,1-8,.55-2.2-9.55-7.1-11.39-11.87-9.48a16.532,16.532,0,0,0-5.29,3.64,23.759,23.759,0,0,0-6.06,10c-2.65,9.46-5.35,5.79-11.8,6.06-2.4.1-6.22-.36-8,1.7-3.5,4-.55,7.63-4.92,11.06-3.48,2.76-10.32-.89-7.51,7.59,1.15,3.48,4.57,5.56,8.49,6.79,7,2.19,15.57,1.69,15.57,1.69l47.06-.72c2.41.77,11.39-1.06,18.46-4.1a25.4,25.4,0,0,0,8.69-6.65C1659.65,253.39,1661.38,247.13,1654.21,243.11Z" fill="#eae8f8"/>
      <path id="Path_592" data-name="Path 592" d="M1627.08,251l-.53.2-.65.28c-.93.41-2.06,1-3.19,1.56s-2.28,1.13-3.22,1.53l-.55.22.16-.32a7,7,0,0,0,.38-.93l.17-.46.11-.45c.07-.3.16-.6.21-.89l.13-.82c.09-.55.09-1.07.13-1.55a6,6,0,0,0,0-1.3,5.3,5.3,0,0,0-.13-1l-.21-.87.1.87v1c0,.39-.08.82-.12,1.3a7.775,7.775,0,0,1-.33,1.54l-.24.82c-.09.29-.21.58-.33.88l-.17.45-.22.45a7.846,7.846,0,0,1-.49.92c-.2.31-.39.63-.61.93l-.38.46c-.12.16-.3.3-.44.46a20.171,20.171,0,0,1-2.14,1.8c-.82.58-1.64,1.15-2.39,1.71s-1.55,1.1-2.23,1.64c-.33.26-.67.52-1,.77l-.43.37v-1.88a13.276,13.276,0,0,0-.23-1.34l-.25-1.3c-.09-.43-.25-.82-.37-1.26a21.384,21.384,0,0,0-.82-2.41l-.82-2.24-.82-2.07-.66-1.86c-.23-.58-.36-1.13-.51-1.64l-.39-1.39c-.16-.82-.25-1.52-.32-2l-.11-.7v.7c0,.46.07,1.12.16,2l.27,1.4a16.38,16.38,0,0,0,.37,1.64l.51,1.88.62,2.07.65,2.25c.24.78.41,1.59.59,2.42.08.42.2.82.25,1.26l.14,1.3a12.639,12.639,0,0,1,.11,1.32l-.07,1.36-.07,1.38-.1,1.35-.19.49c0,.07-.06.15-.07.21s.13,1.25.11,1.48,0,.48,0,.72v1.93l-.91-.34-1.2-.42-2.87-1a23.689,23.689,0,0,1-2.94-1.25c-.21-.12-.46-.24-.66-.36l-.63-.39c-.42-.27-.88-.54-1.28-.82l-1.25-.82c-.42-.29-.82-.59-1.19-.89l-.59-.45-.53-.47-.53-.47a2.855,2.855,0,0,1-.25-.23l-.22-.24-.4-.49a4.863,4.863,0,0,1-.36-.48l-.34-.48-.29-.49-1.08-1.92c-.17-.31-.4-.61-.6-.91s-.48-.58-.71-.86-.58-.54-.82-.82l-.43-.38-.37-.36a16.806,16.806,0,0,1-1.12-1.33,9.518,9.518,0,0,0-1-1,3.7,3.7,0,0,0-.9-.61,2.089,2.089,0,0,0-.34-.14h-.01a2,2,0,0,1,.33.14,3.381,3.381,0,0,1,.82.61,8.593,8.593,0,0,1,.89,1c.31.39.61.82,1,1.34a4.788,4.788,0,0,0,.34.37l.4.38c.25.25.56.52.82.82s.46.57.65.82a5.717,5.717,0,0,1,.53.91l.94,1.93.25.49.31.5a4.539,4.539,0,0,0,.34.5l.4.48.2.25.25.25.4.39-.3-.07c-.25-.06-.54-.11-.82-.2s-.64-.16-1-.27l-1.06-.32-1.16-.34q-.585-.165-1.29-.33l-.71-.14a.754.754,0,0,1-.37-.07h-.38l-.38-.07h-.39l-.78-.07-1.47-.09-1.32-.07a9.8,9.8,0,0,1-1.1-.07,2.625,2.625,0,0,1-.82-.08l-.7-.09.68.11a8,8,0,0,1,.82.1c.32,0,.69.07,1.08.1l1.3.1,1.43.11a6.709,6.709,0,0,1,.72.07h.36l.36.06.36.06.32.07.65.15c.4.11.82.22,1.17.34l1.06.36,1,.34c.31.11.65.2.94.3s.62.17.89.24l.39.1.34.07.64.12h0l.1.09.56.47c.39.3.74.61,1.14.91l1.2.88c.39.29.82.56,1.22.82l.6.4c.2.14.45.26.67.39a22.878,22.878,0,0,0,3,1.33l2.81,1,1.16.42.93.36c.49.18.82.35,1.12.48v.22a17.769,17.769,0,0,1,2.46-.57c-.07-2.16-.11-4.41-.11-4.47v-.17a.25.25,0,0,1,0-.18l.11-.43a5.692,5.692,0,0,1,.25-.52,3.69,3.69,0,0,1,.38-.59,5.375,5.375,0,0,1,.52-.66,9.06,9.06,0,0,1,.68-.71c.24-.25.54-.5.82-.75.6-.52,1.28-1.07,2-1.64s1.47-1.15,2.2-1.75a17.334,17.334,0,0,0,2-1.85,5.389,5.389,0,0,0,.4-.48l.34-.48v-.08l.32-.1c.16-.07.39-.14.59-.23s.43-.18.64-.29a33.789,33.789,0,0,0,3-1.64c1-.62,2-1.18,2.88-1.64l.59-.29.49-.21.47-.17Z" fill="#6150cc"/>
      <g id="girl3">
        <ellipse id="Ellipse_271" data-name="Ellipse 271" cx="22.19" cy="3.35" rx="22.19" ry="3.35" transform="translate(1498.31 288.49)" fill="#e7e5f7"/>
        <path id="Path_622" data-name="Path 622" d="M1521.35,186.11a15.354,15.354,0,0,0,.42-1.71,19.4,19.4,0,0,0-6-2.32,17.331,17.331,0,0,0-.58,2.46,29.66,29.66,0,0,1,6.11,2Z" fill="#f4cac1"/>
        <path id="Path_623" data-name="Path 623" d="M1515.14,184.37a4.85,4.85,0,0,0-.07.53,22.016,22.016,0,0,1-.62,3.33c-.87,3.69-3.59,10-4.32,9.88,0,0-1.78-5-2.56-7.85-.63-2.26-1.4-5.74-1.8-8a6.479,6.479,0,0,0-1.47-3.16c-.26-.23-.39-.61-.63-.3-.21.88.61,1.46.56,2.34a14.623,14.623,0,0,0-1.56-.38c-.61-.17-1.26-.27-1.85-.49a13.458,13.458,0,0,0-1.31-.69c-.27-.07-.59,0-.51.4s.18.32.34.5c-.15-.16-1.24-1.07-1.34-.48,0,.19.29.52.4.66s.41.28.48.48c-.27-.35-.82-.48-.68.12.11.42.56.71.88,1,.15.12.75.52.9.61s.25.22.4.25c-.26,0-.82-.49-1,.09s1,.82,1.58,1.07c.24.1,3.36.92,3.35.67.07,1.38,1.74,13.44,3.18,16.17s2.46,3.38,4.1,2.46c3.67-2.11,6.92-9.18,7.88-11.61a35.9,35.9,0,0,0,1.72-5.48,29.654,29.654,0,0,0-6.05-2.12Z" fill="#ffbfae"/>
        <path id="Path_624" data-name="Path 624" d="M1522,181.67c-.08-1.72-.65-3.28-2.39-3.6-1.49-.26-2.52.87-3.22,2.32a12.3,12.3,0,0,0-.68,1.79,18.269,18.269,0,0,1,6,2.46,13.989,13.989,0,0,0,.25-3Z" fill="#fce0d9"/>
        <path id="Path_625" data-name="Path 625" d="M1537.86,179.12v-.38c.11-2,0-2.88-1.27-4.37a5.2,5.2,0,0,1-1.39-4.15,15.15,15.15,0,0,0-.12-3.93,17.636,17.636,0,0,0-.92-2.28,15.913,15.913,0,0,1-.35-1.89,9.63,9.63,0,0,0-1.9-3.7,6.84,6.84,0,0,0-5.69-2.4,7.14,7.14,0,0,0-6.84,4.84,20.2,20.2,0,0,0-1.08,5.47,18.091,18.091,0,0,0,.43,6.78,16.2,16.2,0,0,1,1.24,4c.06,1.33-.82,2.59-1.09,3.77a6.821,6.821,0,0,0,.5,3.83c.39,1.21-.06,2.46.34,3.69s1.47,1.73,2.33,2.61.63,2.27.56,3.63a3.22,3.22,0,0,0,1.58,3.28,12.63,12.63,0,0,0,4.56,2.55,10.57,10.57,0,0,0,9.38-2.77,6.93,6.93,0,0,0,2-4.18c.22-1.77-1.07-2.77-1.12-4.42,0-1.43.93-2.68.72-4.15a7.151,7.151,0,0,0-1.33-2.92,4.411,4.411,0,0,1-.57-2.95Z" fill="#a53773"/>
        <path id="Path_626" data-name="Path 626" d="M1533.93,187l-.16-.75a41.95,41.95,0,0,1-.66-6.42,4.919,4.919,0,0,0-1.3-3.2c-1.89-2.58.55-5.21-1.2-7.9A39.636,39.636,0,0,1,1528,165c-.75-1.48-1.39-4.1-2.93-5s-3.86,0-5.45.61c0,.08-.08.16-.11.25a20.174,20.174,0,0,0-1.08,5.47,18.07,18.07,0,0,0,.43,6.78,16.225,16.225,0,0,1,1.24,4c.06,1.33-.82,2.59-1.09,3.77a6.81,6.81,0,0,0,.5,3.83c.39,1.21-.06,2.46.34,3.69s1.47,1.73,2.33,2.61.63,2.27.56,3.63a3.22,3.22,0,0,0,1.58,3.28,12.641,12.641,0,0,0,4.56,2.55l.34.07a17,17,0,0,1,3.79-8.33C1534.44,190.42,1534.31,189,1533.93,187Z" fill="#8c2a64"/>
        <path id="Path_627" data-name="Path 627" d="M1533.94,177.94a15.771,15.771,0,0,0-5.91-1.76c-3.38-.21-6.8.13-8.9,1.83-.75.62-1.47,2.71-1.89,5.21-.27,1.64-.14,4.34-.35,6.38a52.4,52.4,0,0,0-.39,6.85c0,1.57-.2,3.28-.21,3.84a2.25,2.25,0,0,0,1.64,2.06,43.071,43.071,0,0,0,8.72,1.07,3.93,3.93,0,0,0,4-1.86,14.168,14.168,0,0,0,2-4.1,33.176,33.176,0,0,0,1.16-4.92,50.083,50.083,0,0,0,.13-14.6Z" fill="#fce0d9"/>
        <path id="Path_628" data-name="Path 628" d="M1535.27,178.95a5.162,5.162,0,0,0-1.33-1c-.62,8.76-.56,24.76-7.32,25.48.82,0,1.64,0,2.31.06a15,15,0,0,0,3.35-.38,4.84,4.84,0,0,0,2-3.2c.21-3.79,1.13-11,1.22-11.65a31.6,31.6,0,0,0-.2-9.3Z" fill="#f4cac1"/>
        <path id="Path_629" data-name="Path 629" d="M1514.92,284s1.4,1.64,1.18,2.46l-.22.76.12,4.56h-.71l-.7-4.24s-2,4.15-2.68,4.48a8.36,8.36,0,0,1-4,.29c-1.18-.29,1.06-1.53,1.06-1.53l4-4.22Z" fill="#d35e82"/>
        <path id="Path_630" data-name="Path 630" d="M1512.18,284.34a13.073,13.073,0,0,1,.49-1.26l2.87-43.81h7.38c0,.62-2.27,16.39-4.37,27.24-1.81,9.33-3.44,16.86-3.44,16.86s-.82,1.83-1,2.46c-.48,1.19-1.7,4.42-2.77,4.28a1,1,0,0,1-.91-.82C1510.31,288.88,1512,284.87,1512.18,284.34Z" fill="#ffbfae"/>
        <path id="Path_631" data-name="Path 631" d="M1531.31,283.52s1,4.47,1,4.75a4.151,4.151,0,0,1-.78,2.8c-.47.69-1,1.48-1.54,1.35s-1.07-1.16-1.32-1.92a12.09,12.09,0,0,1,0-6c.3-1.27.82-2,1.43-2C1530.59,282.52,1531,282.84,1531.31,283.52Z" fill="#d35e82"/>
        <path id="Path_632" data-name="Path 632" d="M1526,245c-.08-1.64-.16-3.22-.21-4.78,2.46-.2,4.92-.52,7.38-.89-.16,4,.26,11.75.07,16.58-.55,13.22-1.75,23.94-1.78,24.19l-.23,2.37.66,5.21s-.07,2.3-1.43,2.36c-.6,0-1.34,0-1.89-2.24-.07-.26.2-2.74.2-3.28s.07-1.38.07-1.38-1.13-16.67-1.18-17.73C1527.47,262.09,1526.44,254.41,1526,245Z" fill="#ffbfae"/>
        <path id="Path_633" data-name="Path 633" d="M1525.15,173.5a3.33,3.33,0,0,0,3.16-1.42l-.11-2.11v-.43h-3.56s-.13,2-.3,3.42A1.37,1.37,0,0,0,1525.15,173.5Z" fill="#f4ab9d"/>
        <path id="Path_634" data-name="Path 634" d="M1524.53,180.27a3,3,0,0,0,1.84.14,3.91,3.91,0,0,0,2.35-2.88,12.56,12.56,0,0,0-.22-1.42l-.21-4a3.33,3.33,0,0,1-3.16,1.42,1.37,1.37,0,0,1-.82-.57,10.421,10.421,0,0,1-.16,1.06,18.043,18.043,0,0,0-.39,2.34,4.265,4.265,0,0,1-.29.49,6.7,6.7,0,0,0,.3,2.69,1.36,1.36,0,0,0,.75.75Z" fill="#ffbfae"/>
        <path id="Path_635" data-name="Path 635" d="M1524.7,160.47a3.66,3.66,0,0,0-2.89,1.5c-.82,1.22-.73,3-.4,5.08.25,1.58,2.67,5.88,3.92,5.74a4.65,4.65,0,0,0,2.36-1.12,6.42,6.42,0,0,0,2.32-4.79h0a6.06,6.06,0,0,0-.26-3.18,4.34,4.34,0,0,0-5.05-3.23Z" fill="#ffbfae"/>
        <path id="Path_636" data-name="Path 636" d="M1538.28,182.27a5.726,5.726,0,0,0-.42-1.18c-.92-1.47-2.2-2.58-3.86-2-1.43.48-1.77,2-1.64,3.57a17.91,17.91,0,0,0,.42,2.2,7.42,7.42,0,0,1,5.5-2.57Z" fill="#fce0d9"/>
        <path id="Path_637" data-name="Path 637" d="M1538.85,184.27c-.2-.82-.39-1.47-.56-2a7.64,7.64,0,0,0-5.54,2.3c.16.62.35,1.34.58,2.12C1534.79,184.59,1536.73,184.22,1538.85,184.27Z" fill="#f4cac1"/>
        <path id="Path_638" data-name="Path 638" d="M1534.13,242.65c.18-1.87.48-19.19.38-24-.09-4.28-.56-6.14-.7-8.19-.1-1.43-1.89-5.3-1.89-5.3l.3-2.55a48.72,48.72,0,0,1-14.16-.41l-.35,2.76a27.341,27.341,0,0,0-2.61,7.5c-.74,6-1.34,22.76-.26,29.45,2.5.72,5.15-.2,8.15.12a94.327,94.327,0,0,0,11.16.61Z" fill="#6150cc"/>
        <path id="Path_639" data-name="Path 639" d="M1518.89,223.51a39.8,39.8,0,0,1,5.79,7.42c1.93,3.57,1.34,4.46,1.34,4.46Z" fill="#5847ca"/>
        <path id="Path_640" data-name="Path 640" d="M1521.48,232.11a22,22,0,0,1,3.23,4.1c1.07,2,.75,2.46.75,2.46Z" fill="#5847ca"/>
        <path id="Path_641" data-name="Path 641" d="M1534.42,218.69c-.09-4.28-.56-6.14-.7-8.19-.1-1.43-1.89-5.3-1.89-5.3l.3-2.55c-1.07.14-2.24.23-3.47.29a6.3,6.3,0,0,1-2.71,3.28c3.28-1.64,5,.28,5.5,3.36.34,11,2.1,22.18,1.25,33.16h1.3C1534.22,240.81,1534.52,223.48,1534.42,218.69Z" fill="#5847ca"/>
        <path id="Path_642" data-name="Path 642" d="M1522.12,169.14v.18c0,.68-.39,1.2-.77,1.19s-.66-.59-.63-1.26a1.27,1.27,0,0,1,.61-1.16h-.19c-.63,0-1.18.75-1.24,1.74s.41,1.84,1,1.87,1.18-.75,1.24-1.74a2.7,2.7,0,0,0-.06-.77Z" fill="#3f98e8"/>
        <path id="Path_643" data-name="Path 643" d="M1531.31,169.53v.18c0,.68-.38,1.2-.77,1.19s-.66-.59-.63-1.26a1.27,1.27,0,0,1,.61-1.16h-.19c-.63,0-1.18.75-1.24,1.74s.41,1.84,1,1.87,1.18-.75,1.24-1.74a2.7,2.7,0,0,0-.02-.82Z" fill="#3f98e8"/>
        <path id="Path_644" data-name="Path 644" d="M1542,199.69c-.23-1.49-2.36-15.4-3.15-15.42-2.11,0-4.1.32-5.53,2.46q1.71,6.07,3.58,12.11c1.4,4.53.1,8.56-1,13.11-.26,1-1,3.19-1.64,5.36-.2.34-.4.71-.43.78-.11.25-.82.38-1.11.49a2.35,2.35,0,0,0-1.08.89,4.85,4.85,0,0,0-.26.45c-.07.15-.29,1-.33,1.19s-.19.48-.25.73-.23.48-.17.74a.28.28,0,0,0,.3.24c.24,0,.42-.31.53-.49.23-.39.4-.82.61-1.2.09-.16.35-.61.52-.38s.07.65.07.92a9.91,9.91,0,0,1-.5,3.2c-.3.72-.82,1.46-.52,1.79s.71-.19.91-.52a2.2,2.2,0,0,0,.3-.66.34.34,0,0,0,.26.41h.07c.51,0,.54-.71.54-.71s.17.38.51.31.3-.56.3-.56,0,.1.43.08.43-1.09.43-1.09V220.1a97.531,97.531,0,0,0,4-8.92C1541,206.93,1542.39,202.28,1542,199.69Z" fill="#ffbfae"/>
      </g>
      <g id="girl2">
        <ellipse id="Ellipse_272" data-name="Ellipse 272" cx="18.51" cy="2.79" rx="18.51" ry="2.79" transform="translate(1248.19 269.31)" fill="#e7e5f7"/>
        <path id="Path_645" data-name="Path 645" d="M1256.52,270.92l2.39-2.28-.41-4.2s-.06-.5-.28-2.63c-.09-.89-.31-2.86-.57-5.25,1.45,0,2.92-.07,4.4-.07,0,1-.11,2-.16,2.89-.15,2.22-.72,9.9-.72,9.9a10.688,10.688,0,0,1,0,1.18,1.909,1.909,0,0,1-.23,1.07c-.21.23-.91.21-1.39.16a2.09,2.09,0,0,1-.49-.06l-2.46.66a8.36,8.36,0,0,1-1.81-.45C1254.62,271.73,1256.52,270.92,1256.52,270.92Z" fill="#ffbfae"/>
        <path id="Path_646" data-name="Path 646" d="M1256.13,241.41c0-3.57.29-33.37.29-33.37a7.29,7.29,0,0,1,3.28,0c1.81.43,4,1.72,5.2,5.12a20,20,0,0,1,.7,7.18c-.34,8.63-3.2,20.26-3.16,22.71s-.13,8.58-.37,13.39c-1.49,0-3,0-4.4.07C1257,250.75,1256.13,242.39,1256.13,241.41Z" fill="#26bfed"/>
        <path id="Path_647" data-name="Path 647" d="M1275.71,256.41c.57,2.15,2.46,11.68,2.46,11.68a10.476,10.476,0,0,1,.42,1.1,1.92,1.92,0,0,1,.12,1.09c-.13.29-.82.51-1.27.63l-.48.11-2.51,1.24a7.875,7.875,0,0,1-1.64.11.82.82,0,0,1-.59-.23c-.09-.15.11-.39.39-.63a10,10,0,0,1,1.19-.82l2.06-2.42-1.7-3.83-1.09-2.39c-.82-1.74-1.64-3.49-2.34-4.86,1.59-.53,3.28-1,4.84-1.42A4.55,4.55,0,0,0,1275.71,256.41Z" fill="#ffbfae"/>
        <path id="Path_648" data-name="Path 648" d="M1258.1,184.17s-1,2.06-1.93,4.15c-1.07,2.46-2.84,5.49-3.9,5.55-.73,0-5-4.65-5-4.65-1.78-1.9-3.45-3.81-4.4-4.92a1.082,1.082,0,0,0,.08-.2,2.829,2.829,0,0,0,.12-1.57,3.429,3.429,0,0,0-1.12-1.31c-.41-.38-.47-.57-.69-.64s-.53.07-.24.6,1,.89,1.09,1.17-.29.41-1,.1a5.859,5.859,0,0,1-1.79-1.21c-.37-.41-.7-1-1-.86s0,.6.13.82a1.568,1.568,0,0,0,.33.4s-.22-.16-.31.15.32.6.32.6a.34.34,0,0,0-.29.31.39.39,0,0,0,.27.38s-.07,0-.13.31.56.62.56.62a13.448,13.448,0,0,0,2.19,1h.07c.7,1.19,6.39,10.42,8.06,12.13a7.58,7.58,0,0,0,2.7,2,3.14,3.14,0,0,0,2.76-.82c3.87-2.92,7.24-12.29,7.24-12.29Z" fill="#ffbfae"/>
        <path id="Path_649" data-name="Path 649" d="M1242,184.51l-1.94-6.8a.68.68,0,0,0-.52-.48l-3.15-.25a.26.26,0,0,0-.16,0,1.322,1.322,0,0,0-.24.22.37.37,0,0,0,0,.29l1.94,6.8a.731.731,0,0,0,.2.33.56.56,0,0,0,.32.16l3.15.25a.26.26,0,0,0,.15,0,1.4,1.4,0,0,0,.24-.2.35.35,0,0,0,0-.31Z" fill="#242347"/>
        <path id="Path_650" data-name="Path 650" d="M1242,184.51c.07.25,0,.43-.27.42l-3.15-.25a.68.68,0,0,1-.52-.48l-1.94-6.8c-.07-.25,0-.43.27-.42l3.15.25a.68.68,0,0,1,.52.48Z" fill="#6150cc"/>
        <path id="Path_651" data-name="Path 651" d="M1241.69,184l-3.47-.29-1.78-6.21,3.47.28Z" fill="#31d8ff"/>
        <path id="Path_652" data-name="Path 652" d="M1238.23,177.47c0,.09,0,.16-.1.16a.25.25,0,0,1-.2-.18c0-.09,0-.16.1-.16A.25.25,0,0,1,1238.23,177.47Z" fill="#95b6e0"/>
        <path id="Path_653" data-name="Path 653" d="M1240.69,184.32c0,.07,0,.13-.08.13l-1-.08a.2.2,0,0,1-.16-.15h0c0-.07,0-.13.08-.13l1,.08a.2.2,0,0,1,.16.15Z" fill="#95b6e0"/>
        <path id="Path_654" data-name="Path 654" d="M1280.73,187.11a22.258,22.258,0,0,1-3.07-4.78c-.43-1.14.59-2.41.53-3.72a6.25,6.25,0,0,0-2.41-4.58c-1.52-1.37-3.42-2.52-4.63-4.31-.35-.52.14-1.27.11-1.93a7.89,7.89,0,0,0-8.13-7.65h-.26c-4.19.18-7,3.46-6.77,8.3.16,3.75,3.8,5.13,5.24,8,.43.82-.34,1.9-.29,2.92.1,2.33,2,3.86,2.68,5.81a4.106,4.106,0,0,1,.18.82c.23,2-.66,6.36-.57,8.55a7.83,7.83,0,0,0,1.58,4.78c4.85,3.88,10.57,2,13.82-1.92a10.27,10.27,0,0,0,1.99-10.29Z" fill="#6150cc"/>
        <path id="Path_655" data-name="Path 655" d="M1256.41,208l.5-8.35,12.86,3.11a44.91,44.91,0,0,1,1.64,5,29.694,29.694,0,0,1,1,5.74,19,19,0,0,1-1.15,6.41s-1,19-.82,19.89c2.2,8.31,3.89,11.47,5.13,15.9-1.64.45-3.28.89-4.84,1.42-.4-.82-.74-1.48-1-1.93a85.77,85.77,0,0,1-5.79-15.57c-.34-1.54-1.9-18-2.26-22.2Z" fill="#30cef2"/>
        <path id="Path_656" data-name="Path 656" d="M1260.55,178.74a10.35,10.35,0,0,1,5.62-1.54,8.06,8.06,0,0,1,2.54.43,20.889,20.889,0,0,0-4,10.65c-.5,4.62,0,9.48.5,14.22-2.42-.27-5.91-.91-7.91-1a83.212,83.212,0,0,1,.76-12.49,54.824,54.824,0,0,1,2.47-10.24Z" fill="#fff"/>
        <path id="Path_657" data-name="Path 657" d="M1268.72,177.63a8.88,8.88,0,0,1,5.8,8.38c0,.66-2.51,13.75-2.51,17.35,0,2.74,2.53,32.45,2.53,32.45s-8.83.34-9.44.28c-.38-4-2.36-24.29-2.17-35.84C1263.15,186.57,1266.34,177.7,1268.72,177.63Z" fill="#4f6b99"/>
        <path id="Path_658" data-name="Path 658" d="M1255.62,196.67a67.186,67.186,0,0,1,.55-10.5,9.61,9.61,0,0,1,4.38-7.45c-2.63,7.52-4.38,56.21-4.38,56.21s-2,.18-2.46.18,2.32-33.6,1.87-34.71C1255.31,199.8,1255.72,198.18,1255.62,196.67Z" fill="#4f6b99"/>
        <path id="Path_659" data-name="Path 659" d="M1266.34,177.7" fill="#dd8576"/>
        <path id="Path_660" data-name="Path 660" d="M1266.33,177.66" fill="#dd8576"/>
        <path id="Path_661" data-name="Path 661" d="M1265.22,171.19l.17,1.69a8.939,8.939,0,0,1-3,3.6c.14-1.09.32-2.31.32-2.31Z" fill="#f4ab9d"/>
        <path id="Path_662" data-name="Path 662" d="M1265.38,172.9l.48,4.79-2.22,2.8c-.39.46-1.64,1.53-2.12,1.53s-.5-.64-.47-1.17a6.4,6.4,0,0,1,.56-1.55c.23-.5.52-1,.58-1.19a12.773,12.773,0,0,1,.15-1.64,8.94,8.94,0,0,0,3.04-3.57Z" fill="#ffbfae"/>
        <path id="Path_663" data-name="Path 663" d="M1264.9,167.53h-.13c-.82-2-2.36-3.22-3.84-2.92a3,3,0,0,0-2.21,1.46c-.59,1.1-.47,2.68-.13,4.43a12.428,12.428,0,0,0,1.48,3.52c.53,1,.82,1.41,1.8,1.21a3.649,3.649,0,0,0,1.81-1.11,6,6,0,0,0,1.64-4.28h0a.9.9,0,0,0,.46-.25,1.27,1.27,0,0,0,.32-1.14,1.52,1.52,0,0,0-.42-.91A.82.82,0,0,0,1264.9,167.53Z" fill="#ffbfae"/>
        <path id="Path_664" data-name="Path 664" d="M1275.11,191.58a33.264,33.264,0,0,0-1.29-5.79l-5.34,1.7a22.91,22.91,0,0,1,1,3.07,49.334,49.334,0,0,1,1.7,6.33,76.993,76.993,0,0,1,1,10.76c0,3.69-.26,8-.4,10.18l-.2.08a2.79,2.79,0,0,0-1.23,1.06,3.769,3.769,0,0,0-.14,1.84,4.721,4.721,0,0,0,0,1c.07.19.43.36.61-.25s-.09-1.44,0-1.71.52-.07.82.71a6.557,6.557,0,0,1,.43,2.29c0,.59-.23,1.29.07,1.38s.46-.42.52-.72h0c0,.41,0,.91.18.93s.39-.47.42-1c0,.37.08.7.2.69.29,0,.35-.67.34-1.25,0,.17.1.3.2.28.5-.1.11-2.22.11-2.22a15.242,15.242,0,0,0-.89-2.46v-.06c.91-3.66,2.52-12.41,2.56-17.79a69.36,69.36,0,0,0-.77-9Z" fill="#ffbfae"/>
        <path id="Path_665" data-name="Path 665" d="M1278,264.4a34.22,34.22,0,0,0,.77,3.93,6.894,6.894,0,0,1,.49,1.89l.07.57V272l-1.76.19-.62-.54-2.46,1.16a31.938,31.938,0,0,1-3.33-.25c-.42-.15.21-.63.82-1.06a10,10,0,0,1,1.71-.82l2.06-2.42-1.38-2.18,1.75.82a4.1,4.1,0,0,1,.37-1.51,1.64,1.64,0,0,1,1.51-.99Z" fill="#4f6b99"/>
        <path id="Path_666" data-name="Path 666" d="M1261.69,264.72a24.29,24.29,0,0,0-.25,4.17,6.879,6.879,0,0,1,.25,1.94v.57l-.15,1.19h-1.78l-.55-.61-2.56.82s-2.87-.47-3.28-.66.29-.6,1-.94a10,10,0,0,1,1.79-.6l2.34-2.15-.25-3,.82,1.75a4.1,4.1,0,0,1,.56-1.45,2.79,2.79,0,0,1,2.08-1Z" fill="#4f6b99"/>
      </g>
      <g id="men3">
        <ellipse id="Ellipse_273" data-name="Ellipse 273" cx="22.19" cy="3.35" rx="22.19" ry="3.35" transform="translate(1366 290.71)" fill="#e7e5f7"/>
        <path id="Path_667" data-name="Path 667" d="M1398.23,285.25l.06,3.14,3.81,2.15a12.654,12.654,0,0,1,1.71.46c.43.16.75.35.7.55s-.29.34-.61.48a10.346,10.346,0,0,1-2,.52l-3.41-.4a3.671,3.671,0,0,0-.61.07c-.6,0-1.47.06-1.73-.2a2.111,2.111,0,0,1-.27-1.24,11.633,11.633,0,0,1,.07-1.38l-.1-3.92Z" fill="#f9b498"/>
        <path id="Path_668" data-name="Path 668" d="M1394.86,292.15l.2-.11.4-2.68s0-.06.5.1a.75.75,0,0,1,.47.71l.17.16a1.43,1.43,0,0,0,1.44.22c.82-.24.91-.75.91-.75l-.16-.25s-.12-.06-.07-.67a1.311,1.311,0,0,1,.46-.91l.65.66s.23,0,.27.11,2.66,1.55,2.79,1.64a4.741,4.741,0,0,0,.82.2,10.358,10.358,0,0,1,1.7.25,1.26,1.26,0,0,1,.89,1l.07.15a6.22,6.22,0,0,1,.07,1.11s0,.25-1.36.72c-.37.13-4.46.25-4.45.22-1.81.08-3.7.09-4.3.07a3,3,0,0,1-1.47-.3Z" fill="#fff"/>
        <path id="Path_669" data-name="Path 669" d="M1401.95,290.95a.31.31,0,0,0,.42.13h0a.33.33,0,0,0,.15-.43.31.31,0,0,0-.42-.13h0a.33.33,0,0,0-.15.43Z" fill="#dd78d3"/>
        <path id="Path_670" data-name="Path 670" d="M1401,290.56a.31.31,0,0,0,.42.13h0a.33.33,0,0,0,.15-.43.31.31,0,0,0-.42-.13h0A.33.33,0,0,0,1401,290.56Z" fill="#dd78d3"/>
        <path id="Path_671" data-name="Path 671" d="M1400,290.08a.31.31,0,0,0,.42.13h0a.33.33,0,0,0,.15-.43.31.31,0,0,0-.42-.13h0a.33.33,0,0,0-.15.43Z" fill="#dd78d3"/>
        <path id="Path_672" data-name="Path 672" d="M1402.7,290.08l-.36.82a.19.19,0,0,1-.08.09.18.18,0,0,1-.25-.24l.36-.82a.18.18,0,0,1,.33.14h0Z" fill="#dde9f2"/>
        <path id="Path_673" data-name="Path 673" d="M1401.75,289.66l-.36.82a.19.19,0,0,1-.08.09.18.18,0,0,1-.25-.24l.36-.82a.18.18,0,0,1,.33.14h0Z" fill="#dde9f2"/>
        <path id="Path_674" data-name="Path 674" d="M1400.76,289.2l-.36.82a.19.19,0,0,1-.08.09.18.18,0,0,1-.25-.24l.36-.82a.181.181,0,0,1,.33.15Z" fill="#dde9f2"/>
        <path id="Path_675" data-name="Path 675" d="M1401.53,292.65c3.72,0,4.79-.75,4.83-.82l-.12-.27h0s-1.06.73-4.67.73a45.723,45.723,0,0,1-6-.22,1.281,1.281,0,0,1-.46-.17s-.25.13-.2.18a1.251,1.251,0,0,0,.46.21A35.381,35.381,0,0,0,1401.53,292.65Z" fill="#dd78d3"/>
        <path id="Path_676" data-name="Path 676" d="M1391.18,219s1.47,20.36,2.35,35.6,1.87,31.19,1.87,31.19h3.6s1.36-11.47,1.76-14.14a197.2,197.2,0,0,0,2-20.33c1-13.52,1.68-34,1.68-34l-6.24,1.34Z" fill="#496691"/>
        <path id="Path_677" data-name="Path 677" d="M1399.32,285.09v1.32h-4l-.06-1.14Z" fill="url(#linear-gradient)"/>
        <path id="Path_678" data-name="Path 678" d="M1391.75,170.15a10.548,10.548,0,0,1-2.14-4.24,7.371,7.371,0,0,1,.06-4.1c.16-.47.52-.62.78-1,.4-.64.11-1.56.3-2.27a3.66,3.66,0,0,1,1.52-2.13c1.13-.64,2.74.16,3.76-.66,1.29-1,1-1.84,2.94-1.83a5.741,5.741,0,0,1,1.84,0c.47.22.6,1,1,1.29.71.43,1.92.1,2.74.67a2.82,2.82,0,0,1,.82,3.21c-.31,1.15-1.43,1.39-1.85,2.32-.52,1.15-.36,2.46-.89,3.63a26.828,26.828,0,0,1-2.11,3.28,4.45,4.45,0,0,1-1.47,1.64,12.628,12.628,0,0,1-1.64.82c-1.38.55-3.33,1.31-4.7.39a5.172,5.172,0,0,1-1-1Z" fill="#6150cc"/>
        <path id="Path_679" data-name="Path 679" d="M1403.92,188.14l1.69,9.49a45.648,45.648,0,0,0,4.92-7.15,1.394,1.394,0,0,1-.1-.25,3.62,3.62,0,0,1-.14-2,4.339,4.339,0,0,1,1.42-1.64c.52-.47.6-.71.88-.82s.66.09.29.75-1.27,1.11-1.38,1.48.37.52,1.26.13a7.32,7.32,0,0,0,2.25-1.52c.47-.52.89-1.28,1.2-1.08s0,.75-.17,1.07a2,2,0,0,1-.42.51s.28-.19.39.19-.4.76-.4.76a.43.43,0,0,1,.35.4.49.49,0,0,1-.34.48s.09,0,.16.39-.7.77-.7.77a16.793,16.793,0,0,1-2.75,1.21h-.08c-.89,1.5-4.77,14.28-8.28,14.21-1.79,0-6.68-16.59-6.68-16.59Z" fill="#f9b498"/>
        <path id="Path_680" data-name="Path 680" d="M1398.58,219.12c-5.2,29.8-5.12,29.86-8.26,39.58-2.17,6.71-12.09,25-12.09,25l-3.93-1.43s5.2-18.9,6.84-25.25a97.712,97.712,0,0,0,3.38-26.43,24.272,24.272,0,0,1-1.75-5.64,18.34,18.34,0,0,1,0-5.86l7.67.59Z" fill="#4f6b99"/>
        <path id="Path_681" data-name="Path 681" d="M1377.8,283.91l-.82,2.92,2.46,3.67a12.932,12.932,0,0,1,1.33,1.2c.31.34.52.66.39.82a1,1,0,0,1-.75.15,10.327,10.327,0,0,1-2-.46l-2.87-1.93s-.25-.08-.57-.22c-.56-.24-1.33-.62-1.45-1a2.111,2.111,0,0,1,.31-1.24,6.6,6.6,0,0,1,.47-.87l1.14-3.74Z" fill="#f9b498"/>
        <path id="Path_682" data-name="Path 682" d="M1372.45,289.83h.22l1.34-2.33.43.28a.76.76,0,0,1,.17.82l.1.21a1.46,1.46,0,0,0,1.26.75,1.15,1.15,0,0,0,1.11-.36l-.06-.3s-.09-.1.18-.65a1.291,1.291,0,0,1,.75-.67l.36.82s.2.11.21.2,1.91,2.46,2,2.56a4.8,4.8,0,0,0,.7.5,10.5,10.5,0,0,1,1.48.86,1.29,1.29,0,0,1,.47,1.21v.16a6.188,6.188,0,0,1-.34,1s-.11.23-1.52.16a43.993,43.993,0,0,1-4.21-1.47c-1.71-.61-3.47-1.3-4-1.56a3,3,0,0,1-1.25-.82Z" fill="#fff"/>
        <ellipse id="Ellipse_274" data-name="Ellipse 274" cx="0.33" cy="0.31" rx="0.33" ry="0.31" transform="translate(1379.353 291.082) rotate(-5.88)" fill="#dd78d3"/>
        <ellipse id="Ellipse_275" data-name="Ellipse 275" cx="0.33" cy="0.31" rx="0.33" ry="0.31" transform="translate(1378.611 290.341) rotate(-5.88)" fill="#dd78d3"/>
        <ellipse id="Ellipse_276" data-name="Ellipse 276" cx="0.33" cy="0.31" rx="0.33" ry="0.31" transform="translate(1377.852 289.612) rotate(-5.9)" fill="#dd78d3"/>
        <path id="Path_683" data-name="Path 683" d="M1380.46,290.82l-.63.61a.18.18,0,0,1-.25-.26l.63-.61a.18.18,0,1,1,.25.26Z" fill="#dde9f2"/>
        <path id="Path_684" data-name="Path 684" d="M1379.71,290.08l-.63.61a.181.181,0,1,1-.27-.24h0l.63-.61a.18.18,0,1,1,.25.26Z" fill="#dde9f2"/>
        <path id="Path_685" data-name="Path 685" d="M1379,289.31l-.63.61a.18.18,0,1,1-.25-.26l.63-.61a.18.18,0,1,1,.25.26Z" fill="#dde9f2"/>
        <path id="Path_686" data-name="Path 686" d="M1378.43,292.79c3.46,1.4,4.71,1.11,4.77,1.09v-.3h0s-1.25.28-4.6-1.08a46.108,46.108,0,0,1-5.5-2.46,1.3,1.3,0,0,1-.37-.34s-.28,0-.25.09a1.271,1.271,0,0,0,.35.37,35.718,35.718,0,0,0,5.6,2.63Z" fill="#dd78d3"/>
        <path id="Path_687" data-name="Path 687" d="M1378.32,283.4l-.34,1.25-4-1.43.2-1.42Z" fill="url(#linear-gradient-2)"/>
        <path id="Path_688" data-name="Path 688" d="M1380,189.05a12.33,12.33,0,0,1,12-11.73c6.8,0,12.22,5.17,12.22,10.82,0,.89,1.76,29,1.76,30.53,0,3.28-5.1,5.33-13.11,5.33s-11.71-.63-11.71-3.92C1381.14,218.79,1380,190.79,1380,189.05Z" fill="#ff92a7"/>
        <path id="Path_689" data-name="Path 689" d="M1382.86,181.54a12,12,0,0,1,9-4.21h.11a12.68,12.68,0,0,0-8.39,8.27c-.49,1.6-1.37,3.7,0,5a3.64,3.64,0,0,0,1,.66l3.84-.38.16-.62s.27-2.52.27-3.1c.18.54.69,2.66.69,2.66a5.332,5.332,0,0,0,.13.65c.14-.22.36-.34.47-.62a19.526,19.526,0,0,1-.49,7.21,87.442,87.442,0,0,0-2.54,8.45,36.341,36.341,0,0,0-.66,3.74,20.2,20.2,0,0,0,1.16,9.79c1.7,4.17,4.45,4.48,8.47,4.48,1.24,0,2.39-.06,3.48-.15a33.641,33.641,0,0,1-6.78.61c-8,0-11.71-.63-11.71-3.92,0-1.3-1.16-29.32-1.16-31a11.649,11.649,0,0,1,2.95-7.52Z" fill="#f9809d"/>
        <path id="Path_690" data-name="Path 690" d="M1391.25,178.12l.82-10.59,4.7,5.46s-.34,5.09-.41,5.74a2.639,2.639,0,0,1,0,1.79,1.48,1.48,0,0,1-1.44.94,4.1,4.1,0,0,1-2.09-.74,3.09,3.09,0,0,1-1.59-2.28.87.87,0,0,1,0-.33Z" fill="#f9b498"/>
        <path id="Path_691" data-name="Path 691" d="M1392.53,163.89c.43.35.35.52.35.52,1.17-2.69,3.28-4.36,5.34-3.94a4.15,4.15,0,0,1,3,2c.82,1.51.61,3.65.14,6a16.814,16.814,0,0,1-2.09,4.79c-.75,1.31-1.16,1.92-2.51,1.64a5.069,5.069,0,0,1-2.46-1.52,8.06,8.06,0,0,1-2.24-5.86h0a1.259,1.259,0,0,1-.63-.34,1.71,1.71,0,0,1-.43-1.56,4,4,0,0,1,.44-1.7.72.72,0,0,1,1-.1h0Z" fill="#f9bfa2"/>
        <path id="Path_692" data-name="Path 692" d="M1400,170.2a1.64,1.64,0,0,0-1.34-.88,1.68,1.68,0,0,0-1.64.47c-.58.6-.82,1.53-1.64,1.64a2.48,2.48,0,0,1-1.59-1.1,17.213,17.213,0,0,1-1.73-2.74,19.552,19.552,0,0,0,.38,3.16,10.79,10.79,0,0,0,.53,1.83,5.149,5.149,0,0,0,2.15,2.29,4.47,4.47,0,0,0,3.39.76,1.42,1.42,0,0,0,1-1.9l.6-1.81a2.7,2.7,0,0,0-.11-1.71Zm-.5,1.64a1,1,0,0,1-1.18.8h-.1c-.66-.1-1.1-1.09-1.1-1.09s.78-1.22,1.52-1.17.87,1.48.87,1.48Z" fill="#6150cc"/>
        <path id="Path_693" data-name="Path 693" d="M1396.34,178.41l.26.34s.62,1.84-.7,2.72a2.58,2.58,0,0,1-2.61,0,3.67,3.67,0,0,1-1.12-.82,2.89,2.89,0,0,1-1-2.2c.1-.75.13-1.07.13-1.07a3.68,3.68,0,0,0,.44,2c.54.82,2,2.18,3.28,1.94a1.57,1.57,0,0,0,1.17-1.07,3.62,3.62,0,0,0,.13-1.87Z" fill="#f9809d"/>
        <path id="Path_694" data-name="Path 694" d="M1408.17,192.41l2.56-8.6a.87.87,0,0,1,.68-.61l4-.3a.34.34,0,0,1,.2,0,1.635,1.635,0,0,1,.3.28.46.46,0,0,1,0,.38l-2.54,8.64a.93.93,0,0,1-.27.41.72.72,0,0,1-.41.2l-4,.3a.34.34,0,0,1-.19,0,1.777,1.777,0,0,1-.3-.26.44.44,0,0,1-.03-.44Z" fill="#718faf"/>
        <path id="Path_695" data-name="Path 695" d="M1408.36,192.62c-.09.31.06.55.34.53l4-.29a.87.87,0,0,0,.68-.61l2.56-8.6c.09-.31-.06-.55-.34-.53l-4,.29a.87.87,0,0,0-.68.61Z" fill="#173756"/>
        <path id="Path_696" data-name="Path 696" d="M1412.66,185.46c-.09.29.06.52.32.5a.82.82,0,0,0,.64-.57c.09-.3-.06-.52-.32-.5A.82.82,0,0,0,1412.66,185.46Z" fill="#718faf"/>
        <path id="Path_697" data-name="Path 697" d="M1388.84,191.64s.82,2.46,2,5.09c1.35,3.13,3.14,6.55,4.5,6.65.93.06,6.29-4.86,6.29-4.86,2.3-2.38,4.47-4.79,5.74-6.18a1.376,1.376,0,0,1-.1-.25,3.53,3.53,0,0,1-.14-2,4.369,4.369,0,0,1,1.46-1.64c.52-.47.61-.71.89-.82s.68.09.29.75-1.31,1.11-1.42,1.48.38.52,1.29.13a7.539,7.539,0,0,0,2.32-1.52c.48-.52.91-1.28,1.23-1.08s0,.75-.17,1.07a2,2,0,0,1-.43.51s.29-.19.4.19-.41.76-.41.76a.44.44,0,0,1,.36.4.53.53,0,0,1-.35.48s.09,0,.16.39-.72.77-.72.77a17.478,17.478,0,0,1-2.83,1.21h-.08c-.91,1.5-8.33,13.11-10.5,15.28a9.749,9.749,0,0,1-3.5,2.46,4.1,4.1,0,0,1-3.55-1c-4.92-3.74-10.42-17.59-10.42-17.59Z" fill="#f9bfa2"/>
      </g>
    </g>
    <path id="Path_565" data-name="Path 565" d="M489.49,126.5c6.5-7.46,6.38-17.21.25-24.58-5.91-7.1-8.45-14-20-14.75-10.25-.64-11.53-3.61-16.53-10.07-3.35-4.33-8-9.52-14.5-9.61a17.84,17.84,0,0,0-14.18,6.63c-4.34,5.81-2.15,10.84-3.7,17-1.24,5-4,6.6-9.38,6.15-7.93-.67-17.43.18-22,6.3-3.84,5.14-5.87,11.72-4.67,17.81,1.16,5.88,8.51,11.4,7.84,16.5-.72,5.57-5.74,9.88-4.92,15.73.82,5.56,6.15,7.62,12.1,8.77,9,1.73,3.67,7.95,2.93,13.5-1.31,9.78,2,18.7,13.82,22.36,4.39,1.37,9.83,1.7,14.5,1.9,2.73.12,5.52-.12,8.24.07,3,.21,5.49,1.47,8.36,1.79,8,.9,16.65-6.43,23.21-10,4-2.16,9.58-4.7,8-9.54-1-3-4.78-5.12-4.53-8.77.44-6.49,10.21-10,12.84-15.65,1.26-2.7,2.12-5.4.37-7.77-3.72-5-12.52-4.39-11.86-10.55C476.26,134.08,485.5,131.11,489.49,126.5Z" fill="#eae8f8"/>
    <path id="Path_566" data-name="Path 566" d="M457.3,89.11c-5.61-3.17-7.65-10.59-13.26-13.6-7-3.75-11.72-1.58-14.82,2.94s-4.6,11.61-5,17.34c-1.2,3.08-3.57,5.44-9.45,6.28-8.43,1.2-19-1.52-21.9,9.72a21.431,21.431,0,0,0,.48,10c1.64,6.17,5.41,12.08,11,11.54,2.78-4.6,5.41-22.94,11.77-22.84,2.51,0,4.24,3.44,6.64,4.56,4.87,2.28,6.38-.43,8.76-4.69,2.06-3.7,2.65-10.65,5.63-13.45,3.54-3.28,5.24-.3,8.27,2,8.19,6.25,13.73,1.34,22-2.07C468.72,88.5,462.13,91.84,457.3,89.11Z" fill="#f0eefa"/>
    <path id="Path_567" data-name="Path 567" d="M469.48,144.22c-4.29-3-6.9,2.11-7.12,6.8a13.271,13.271,0,0,0,.5,4.31,18.85,18.85,0,0,0-4.24,10.15c-.23,4,1.41,5.83-.26,9.75-1.15,2.68-3.61,4.51-4.79,7-1.94,4.17-2.2,12.48,2.74,13.23,2.6.39,6-1.35,8.78-3.74,2.36-2,4.24-4.51,4.74-6.55,1.23-5-2-9.83-1.41-14.95.75-6.37,8.66-8.83,9.24-13.75C478,153.4,471.85,145.86,469.48,144.22Z" fill="#f0eefa"/>
    <path id="Path_568" data-name="Path 568" d="M468.76,122.23l-.64.59-.77.82c-1.1,1.19-2.46,2.84-3.79,4.48s-2.7,3.28-3.83,4.41a9.009,9.009,0,0,1-.66.63c.06-.31.12-.62.18-.94.2-.92.28-1.87.42-2.79l.18-1.37.12-1.35c.07-.89.16-1.77.22-2.63l.12-2.52c.08-1.64.06-3.19.08-4.61a34.254,34.254,0,0,0-.12-3.9c-.12-1.16-.13-2.17-.21-3l-.3-2.61.16,2.61v3c0,1.16-.06,2.46-.09,3.88s-.16,3-.33,4.59l-.25,2.5c-.1.82-.24,1.72-.35,2.61l-.19,1.34-.25,1.34c-.18.9-.3,1.81-.55,2.73s-.43,1.87-.7,2.75l-.44,1.35c-.14.45-.34.89-.52,1.34a50.4,50.4,0,0,1-2.51,5.25c-.92,1.71-1.89,3.38-2.83,5s-1.83,3.21-2.62,4.74c-.38.77-.82,1.51-1.11,2.25l-.5,1.08v-1.57l-.12-4.1c0-1.34-.23-2.68-.34-4l-.37-3.91c-.13-1.29-.34-2.55-.5-3.79-.34-2.46-.66-4.92-1.07-7.25l-1.12-6.76-1.06-6.21-.89-5.6c-.3-1.76-.48-3.41-.69-4.92l-.54-4.2c-.23-2.54-.37-4.54-.48-5.9l-.16-2.09.09,2.09c.07,1.36.14,3.37.28,5.92l.39,4.21c.15,1.53.28,3.19.52,4.92l.7,5.63.82,6.23.89,6.77c.33,2.34.57,4.76.82,7.25.12,1.25.28,2.51.37,3.78l.23,3.87c.06,1.3.2,2.61.2,4v12.19l-.2,1.47c0,.22-.07.43-.08.63s.21,3.74.2,4.45v2.15l.12,5.74a13.9,13.9,0,0,0-1.12-1l-1.48-1.31c-1.07-.92-2.25-2-3.52-3.1a30.18,30.18,0,0,1-3.62-3.89c-.27-.37-.57-.73-.82-1.12l-.82-1.22c-.52-.82-1.09-1.64-1.59-2.52L430.17,160c-.52-.88-1-1.81-1.48-2.73-.25-.46-.5-.92-.74-1.38l-.66-1.42-.66-1.43c-.11-.23-.24-.48-.32-.7l-.28-.73-.56-1.47c-.2-.48-.3-1-.47-1.47l-.43-1.47-.37-1.48-1.4-5.79c-.23-.94-.52-1.86-.77-2.76s-.62-1.76-.91-2.61-.74-1.64-1.08-2.46c-.18-.39-.35-.76-.54-1.14a11.318,11.318,0,0,1-.46-1.11c-.57-1.46-1-2.82-1.43-4s-.82-2.24-1.21-3.07a8.2,8.2,0,0,0-1.11-1.88,2.53,2.53,0,0,0-.42-.43l-.16-.14.16.14a2.461,2.461,0,0,1,.41.44,8.059,8.059,0,0,1,1.06,1.88,30.826,30.826,0,0,1,1.12,3.09c.38,1.2.82,2.57,1.31,4,.13.37.28.75.43,1.13s.34.76.51,1.15c.32.82.71,1.57,1,2.42s.59,1.7.82,2.61.48,1.81.68,2.75l1.23,5.82.33,1.49.4,1.5c.15.5.25,1,.43,1.5l.51,1.48.25.74c.1.27.2.49.31.74l.51,1.16-.37-.22a10.457,10.457,0,0,1-1-.65c-.34-.28-.78-.53-1.18-.86l-1.29-1c-.44-.36-.93-.72-1.42-1.08a12.358,12.358,0,0,0-1.57-1l-.87-.45a3.747,3.747,0,0,0-.45-.22l-.45-.17-.45-.16-.48-.13c-.32-.08-.63-.18-.94-.24-.62-.13-1.22-.25-1.79-.34l-1.64-.28c-.49-.11-1-.17-1.34-.29a10.305,10.305,0,0,1-1-.28l-.82-.3.82.34a10.256,10.256,0,0,0,1,.33c.38.13.82.22,1.32.35l1.58.35c.57.12,1.15.25,1.74.41.3.07.58.18.88.26l.44.15.43.19.44.19a3.45,3.45,0,0,1,.39.21l.82.47a17.275,17.275,0,0,1,1.43,1.08c.44.39.89.75,1.31,1.13l1.22,1.08c.38.35.82.66,1.15,1a13.3,13.3,0,0,0,1.09.77,4.567,4.567,0,0,0,.48.3l.41.21.78.4h0l.12.28c.22.48.47.94.7,1.42.48.93.92,1.88,1.42,2.78l1.5,2.68c.48.88,1,1.72,1.52,2.55l.75,1.23c.25.42.56.82.82,1.2a30.918,30.918,0,0,0,3.65,4.1c1.25,1.19,2.46,2.25,3.46,3.19l1.42,1.32c.43.41.82.82,1.14,1.12a19.612,19.612,0,0,1,1.38,1.48q.09,4.55.19,9.13c.1,2.89,0,5.81,0,8.71v6.47l-.11,2.15-.82,16.8L443,238.18l-.2,3.7-.16,3.6-.29,6.83-.27,6.29-.12,2.92v2.73c0,3.55-.08,6.64-.11,9.19l-.1,8h6.36l-.18-8-.2-9.19-.06-2.74v-2.89c0-2,0-4.1.06-6.24s0-4.44.06-6.79V242l.08-3.7c.11-5,.22-10.28.34-15.73s.16-11.11.25-16.85v-4.34q0-2.16-.1-4.34c-.07-2.9-.1-5.81-.29-8.74-.32-5.83-.7-23.07-.7-23.4v-.52a2.142,2.142,0,0,1,0-.55l.12-1.28c.07-.47.18-1,.27-1.54a17.081,17.081,0,0,1,.43-1.75c.15-.62.38-1.26.61-1.93s.5-1.37.82-2.09.63-1.46,1-2.22c.7-1.52,1.5-3.11,2.34-4.76s1.74-3.36,2.57-5.13a50.36,50.36,0,0,0,2.29-5.45c.16-.47.34-.93.46-1.4l.38-1.42.06-.25a3.915,3.915,0,0,0,.38-.28,9.365,9.365,0,0,0,.7-.65c.22-.25.51-.52.76-.82,1.07-1.24,2.3-2.94,3.51-4.65s2.41-3.42,3.41-4.65l.7-.82.58-.62.57-.5Z" fill="#6150cc"/>
    <path id="Path_569" data-name="Path 569" d="M618.57,174.33c3.47-4.92,4.88-13.37,1.39-18.7-3.7-5.65-10.58-9.13-17.45-11.05-3.08-.86-5.74-1.31-7.6-3.61-2.78-3.48-1.3-6.12-6.29-8.59-4.76-2.36-10.77-3-14.82.29s-3.62,8.62-7.56,11.91c-3.28,2.72-8.3,3.1-11.86,5.48-6.24,4.2-8.72,13.64-7.71,19.94.82,5,5.83,9.7,5.38,14-.66,6.22-6.1,9.83-1.75,16.28,3.24,4.78,7.6,6.82,12.46,7.67,8.1,1.43,17.61-.43,25.6,1.64,0,0,16.11-.28,18.78-1,5.28-1.52,8.13-2.94,9.83-7.42.87-2.3,1.46-4.59.25-6.6-2.55-4.26-8.6-3.74-8.14-9C609.48,180.78,615.84,178.23,618.57,174.33Z" fill="#e7e5f7"/>
    <path id="Path_570" data-name="Path 570" d="M601.46,146.34c-.69-1-1.64-2.12-2.82-2.18a6.3,6.3,0,0,1-5.13-3c-1.55-2.31-2-5.23-2.66-6a10,10,0,0,0-4.38-2.88,11.89,11.89,0,0,0-9.59.82,10.31,10.31,0,0,0-4.77,5.47c-1,2.53-.68,6.1-3,7.82a43.434,43.434,0,0,1-6.42,3.66c-3.1,1.54-5.92,3-7.74,5.56a18.3,18.3,0,0,0-3.15,13.73c.54,3,2.46,4.72,2.86,7.8.43,3.36-.36,5.21-1.64,8.19-2.07,4.92-2.93,8.13.35,13.11,2,3,9,5.39,10.74,4.1,1.4-1-4.52-2.46-5.74-10.21-.82-5.07,3.51-7.9,4.23-12.39.93-5.74-4.88-12.39-2.39-17.94,1-2.13,3.11-3.28,6.61-2.2,1.85.58,2.2,2.64,4.17,3.28,6.95,2.17,7.56-8.87,13.61-9.54,5.53-.61,9.41,4.24,15,.59C603.08,151.81,603.27,149,601.46,146.34Z" fill="#eceaf9"/>
    <path id="Path_571" data-name="Path 571" d="M605.83,190.92c-.61-3.74.61-6.55,2.64-9.5,1-1.38,2.13-2.19.74-3.6a2.57,2.57,0,0,0-2.74-.22,15.22,15.22,0,0,0-4.1,2.86c-1.57,1.48-2.92,3.28-3.19,4.77a17.767,17.767,0,0,0-2.78,3.33c-1.53,2.57-1.36,4.39-.13,7.11.44,1,1.72,2.88,1.25,4.1-.41,1.07-1.85,1-2.34,2a2.21,2.21,0,0,0,1.15,3.38c1.64.82,4.47,1,7.12.54,2.89-.44,5.6-1.55,6.43-3.19a5,5,0,0,0-.2-4.92C608.46,195.29,606.21,193.21,605.83,190.92Z" fill="#eceaf9"/>
    <path id="Path_572" data-name="Path 572" d="M602.2,162.62l-.42.41-.51.57c-.73.82-1.64,2-2.51,3.15a39.979,39.979,0,0,1-2.53,3.1,5.6,5.6,0,0,1-.43.44,3.149,3.149,0,0,1,.12-.66c.13-.65.18-1.31.28-2l.12-1,.08-1c0-.63.11-1.25.15-1.85l.08-1.77c.06-1.15,0-2.24.06-3.28a18.158,18.158,0,0,0-.07-2.74c-.07-.81-.08-1.52-.14-2.11l-.2-1.84.11,1.84v2.11c0,.81,0,1.73-.06,2.73s-.11,2.08-.21,3.23l-.16,1.76c-.07.6-.16,1.21-.24,1.83l-.12.93-.16.94c-.12.63-.2,1.27-.37,1.92s-.29,1.31-.47,1.93l-.3,1c-.09.32-.23.63-.34.94a36.472,36.472,0,0,1-1.64,3.69c-.61,1.2-1.25,2.38-1.87,3.52s-1.21,2.25-1.74,3.34c-.25.54-.52,1.06-.74,1.58l-.33.76v-1.1l-.08-2.85c0-.94-.16-1.88-.22-2.81l-.25-2.74c-.09-.9-.22-1.79-.33-2.66-.23-1.75-.44-3.46-.71-5.1l-.75-4.75-.72-4.35-.59-3.94c-.2-1.24-.32-2.4-.46-3.47l-.36-2.95c-.15-1.79-.25-3.19-.32-4.15l-.11-1.47.07,1.47c0,1,.09,2.37.18,4.15l.26,3c.1,1.07.18,2.24.34,3.48l.47,4,.56,4.38.59,4.76c.21,1.64.38,3.34.55,5.1.08.88.19,1.76.25,2.65l.16,2.72c0,.92.13,1.84.13,2.78v8.58l-.13,1v.44c0,.14.14,2.62.14,3.13v1.51l.08,4.06c-.23-.23-.47-.48-.74-.74l-1-.92c-.7-.65-1.49-1.38-2.33-2.17a20.772,20.772,0,0,1-2.39-2.74,8.856,8.856,0,0,1-.54-.82l-.52-.82c-.34-.58-.72-1.16-1-1.77l-1-1.84c-.34-.62-.65-1.27-1-1.92-.16-.33-.34-.65-.48-1l-.44-1-.44-1c-.07-.16-.16-.34-.21-.49l-.18-.52-.37-1c-.13-.34-.2-.69-.3-1l-.29-1-.25-1-.93-4.1c-.15-.66-.34-1.3-.51-1.94s-.41-1.24-.6-1.84-.48-1.15-.71-1.7c-.11-.28-.24-.54-.35-.82s-.21-.52-.3-.78c-.38-1-.66-2-.94-2.83a19.712,19.712,0,0,0-.82-2.16,5.849,5.849,0,0,0-.74-1.32,1.742,1.742,0,0,0-.28-.3l-.11-.1.1.1a1.712,1.712,0,0,1,.27.31,5.78,5.78,0,0,1,.7,1.33c.25.59.48,1.33.74,2.17s.52,1.81.87,2.84c.08.26.19.52.29.82s.23.53.34.82c.21.55.47,1.11.66,1.7s.39,1.2.55,1.83.32,1.28.45,1.93l.82,4.1.22,1,.27,1.06c.1.35.16.71.29,1.06l.34,1,.17.52c.07.19.14.34.2.52l.34.82-.25-.16c-.2-.14-.43-.25-.68-.45s-.52-.38-.82-.61l-.82-.71q-.44-.38-.93-.76c-.33-.25-.69-.49-1-.74l-.57-.32-.3-.16-.3-.12-.3-.12-.32-.09a6.378,6.378,0,0,0-.62-.16l-1.19-.24-1.06-.2c-.32-.07-.62-.12-.88-.2a6.542,6.542,0,0,1-.66-.2l-.56-.21.55.24a6.564,6.564,0,0,0,.66.23c.25.09.55.16.87.25l1,.25,1.15.29a1.8,1.8,0,0,1,.58.19l.3.1.29.13.3.13.25.15.52.33c.32.25.66.48,1,.76a8.553,8.553,0,0,1,.87.82l.82.76c.25.25.52.46.76.66s.51.38.72.54a1.857,1.857,0,0,0,.31.21l.27.15.52.29h0l.08.2c.15.34.31.66.47,1,.32.66.61,1.32.94,2l1,1.88c.32.62.68,1.2,1,1.79l.49.87c.17.29.37.57.55.82a21.377,21.377,0,0,0,2.42,2.9c.82.82,1.64,1.58,2.29,2.24l.94.93c.29.29.52.55.75.82a13.068,13.068,0,0,1,.92,1l.12,6.42c.07,2,0,4.1,0,6.12v4.55l-.07,1.5-.54,11.81-.69,11.07-.13,2.6-.11,2.53-.2,4.8-.18,4.42-.08,2v1.93c0,2.46,0,4.67-.07,6.46l-.07,5.63h4.2l-.11-5.63-.14-6.46V244.29l.22-11.06c0-3.84.11-7.81.16-11.84v-3.1l-.07-3c0-2-.07-4.1-.2-6.14-.21-4.1-.46-16.23-.47-16.45v-.75l.07-.89a6.569,6.569,0,0,1,.18-1.08c.07-.38.18-.82.29-1.23s.25-.88.4-1.36.34-1,.52-1.47.42-1,.64-1.56c.46-1.07,1-2.19,1.55-3.35s1.15-2.37,1.7-3.6a36.689,36.689,0,0,0,1.51-3.83c.1-.33.22-.65.3-1l.25-1v-.17l.25-.2a5.993,5.993,0,0,0,.47-.46c.16-.18.34-.37.51-.59.7-.87,1.52-2.07,2.32-3.28s1.59-2.4,2.25-3.28l.46-.58.39-.43.38-.35Z" fill="#6150cc"/>
    <path id="Path_573" data-name="Path 573" d="M413,168c3.45-5,4.84-13.53,1.38-18.93-3.67-5.74-10.51-9.24-17.35-11.18-3.07-.88-5.74-1.33-7.55-3.66-2.76-3.53-1.29-6.2-6.24-8.69-4.73-2.38-10.7-3.08-14.75.29s-3.6,8.73-7.52,12.06c-3.28,2.75-8.25,3.13-11.79,5.56-6.2,4.25-8.66,13.81-7.66,20.18.82,5.07,5.8,9.83,5.35,14.2-.65,6.3-6.06,10-1.75,16.48,3.22,4.84,7.56,6.9,12.39,7.76,8.06,1.44,17.5-.43,25.4,1.64,0,0,16-.28,18.68-1.06,5.25-1.53,8.08-3,9.75-7.51.86-2.33,1.45-4.65.25-6.69-2.54-4.31-8.55-3.79-8.1-9.09C404,174.54,410.28,171.95,413,168Z" fill="#c9c3ed"/>
    <path id="Path_574" data-name="Path 574" d="M396,139.69c-.69-1-1.64-2.15-2.8-2.2a6.25,6.25,0,0,1-5.06-3.1c-1.53-2.34-2-5.29-2.65-6.06a9.92,9.92,0,0,0-4.36-2.92,11.63,11.63,0,0,0-9.53.82,10.38,10.38,0,0,0-4.74,5.54c-1,2.56-.68,6.18-3,7.91a42.931,42.931,0,0,1-6.35,3.73c-3.08,1.56-5.89,3-7.69,5.63A18.78,18.78,0,0,0,346.63,163c.53,3.08,2.46,4.78,2.84,7.9.43,3.4-.36,5.27-1.64,8.28-2.07,5-2.92,8.19.34,13.24,2,3.08,8.91,5.46,10.65,4.16,1.39-1-4.48-2.46-5.7-10.33-.82-5.13,3.48-8,4.2-12.54.92-5.83-4.84-12.54-2.37-18.15,1-2.15,3.1-3.34,6.55-2.23,1.84.59,2.2,2.67,4.15,3.28,6.91,2.2,7.52-9,13.53-9.65,5.5-.62,9.35,4.29,14.91.59C397.6,145.21,397.82,142.4,396,139.69Z" fill="#d3cef1"/>
    <path id="Path_575" data-name="Path 575" d="M400.33,184.82c-.62-3.79.62-6.67,2.62-9.61,1-1.39,2.11-2.22.73-3.64a2.51,2.51,0,0,0-2.73-.22,15.131,15.131,0,0,0-4.1,2.89c-1.57,1.5-2.89,3.28-3.16,4.83a17.92,17.92,0,0,0-2.76,3.37c-1.52,2.61-1.35,4.44-.12,7.2.44,1,1.71,2.91,1.25,4.14-.41,1.07-1.84,1.07-2.34,2a2.26,2.26,0,0,0,1.14,3.42,12.664,12.664,0,0,0,7.08.55c2.88-.45,5.56-1.57,6.4-3.22a5.12,5.12,0,0,0-.2-5C402.95,189.21,400.71,187.11,400.33,184.82Z" fill="#d3cef1"/>
    <path id="Path_576" data-name="Path 576" d="M396.73,156.15l-.42.42-.51.57a39.2,39.2,0,0,0-2.46,3.19,33.278,33.278,0,0,1-2.52,3.14c-.15.17-.29.31-.43.45a4,4,0,0,1,.12-.67c.13-.66.18-1.33.27-2l.12-1,.08-1c0-.64.11-1.26.15-1.87l.08-1.79c.06-1.16,0-2.27.06-3.28a18.789,18.789,0,0,0-.07-2.77c-.07-.82-.08-1.54-.14-2.13l-.2-1.85.11,1.86v2.13c0,.82,0,1.75-.06,2.77s-.11,2.11-.21,3.28l-.16,1.78c-.07.61-.16,1.22-.23,1.85l-.12,1-.16,1c-.12.64-.2,1.29-.36,1.94s-.29,1.33-.46,2l-.29,1c-.09.32-.23.64-.34,1a37.234,37.234,0,0,1-1.64,3.74c-.61,1.22-1.25,2.41-1.85,3.57s-1.2,2.29-1.73,3.38c-.25.55-.52,1.07-.74,1.64l-.33.77V179l-.08-2.88c0-1-.15-1.91-.22-2.84l-.24-2.78c-.09-.92-.22-1.81-.33-2.7-.22-1.77-.43-3.5-.7-5.16l-.74-4.81-.7-4.42-.59-4c-.2-1.25-.32-2.46-.45-3.51l-.35-3c-.15-1.8-.24-3.23-.31-4.2l-.11-1.48.06,1.49c0,1,.09,2.39.18,4.2l.21,2.92c.1,1.09.18,2.27.34,3.52l.46,4,.56,4.43.58,4.82c.21,1.64.38,3.38.54,5.15.08.88.19,1.79.25,2.69l.15,2.75c0,.93.12,1.86.13,2.81s0,1.92,0,2.88v5.79l-.13,1a1.36,1.36,0,0,1,0,.45c0,.14.14,2.65.13,3.16v1.52L381,195c-.23-.23-.47-.48-.74-.75l-1-.93c-.7-.66-1.48-1.39-2.31-2.2a20.9,20.9,0,0,1-2.38-2.77c-.17-.26-.38-.52-.54-.82l-.52-.87c-.34-.58-.71-1.18-1-1.79L371.37,183c-.34-.63-.65-1.29-1-1.94-.16-.33-.33-.66-.48-1l-.43-1-.43-1a5.314,5.314,0,0,1-.21-.5l-.18-.52-.36-1c-.13-.34-.2-.7-.3-1l-.29-1-.25-1-.92-4.1c-.15-.67-.34-1.32-.51-2s-.4-1.25-.6-1.86-.48-1.16-.7-1.72c-.12-.28-.23-.54-.35-.82a7.006,7.006,0,0,1-.3-.82c-.37-1-.66-2-.93-2.86a20.32,20.32,0,0,0-.82-2.19,6,6,0,0,0-.74-1.34,1.747,1.747,0,0,0-.28-.31l-.11-.1.1.1a1.72,1.72,0,0,1,.27.31,5.879,5.879,0,0,1,.7,1.34c.24.6.48,1.34.74,2.2s.52,1.83.86,2.88c.08.26.18.53.29.82s.23.54.34.82c.21.56.47,1.12.66,1.72s.38,1.21.54,1.85.32,1.29.45,2l.82,4.1.22,1.07.26,1.07c.1.35.16.72.28,1.07l.34,1,.17.52c.07.19.14.35.2.52l.34.82-.25-.16c-.2-.14-.43-.26-.67-.46s-.51-.38-.78-.62l-.82-.72c-.29-.25-.61-.52-.93-.77s-.68-.5-1-.75l-.57-.32-.29-.16-.29-.12-.3-.12-.31-.1c-.21-.06-.42-.13-.62-.17l-1.18-.24-1-.2c-.32-.07-.62-.12-.88-.2a6.438,6.438,0,0,1-.66-.2l-.56-.21.54.25a6.4,6.4,0,0,0,.65.24c.25.09.55.16.87.25l1,.25c.37.08.75.18,1.15.29a1.877,1.877,0,0,1,.58.19l.29.1.29.13.29.13.25.16.52.33a11.666,11.666,0,0,1,.94.77c.29.28.59.53.86.82l.82.77c.25.25.52.47.76.67s.5.38.71.55a2.17,2.17,0,0,0,.31.22l.27.16.51.29h0l.08.2c.15.34.31.67.46,1,.31.66.61,1.34.93,2l1,1.91c.32.63.67,1.22,1,1.82l.49.88a9.482,9.482,0,0,0,.55.82,21.546,21.546,0,0,0,2.4,2.94c.82.82,1.59,1.64,2.27,2.27l.93.93c.29.29.52.56.75.82.4.41.69.82.91,1.06l.12,6.5c.07,2.06,0,4.1,0,6.2V214l-.07,1.53-.66,12-.57,11.19-.13,2.63-.11,2.57-.2,4.86-.18,4.47-.08,2.07v2l-.07,6.55-.07,5.74h4.18l-.12-5.74-.13-6.55V238.85l.22-11.19c0-3.88.11-7.91.16-12v-3.12l-.07-3.09c0-2.07-.07-4.1-.2-6.21-.21-4.15-.46-16.39-.46-16.65v-.76l.07-.91a8.355,8.355,0,0,1,.18-1.1c.06-.4.18-.82.28-1.25s.25-.89.4-1.38.33-1,.52-1.48.42-1,.64-1.58c.46-1.08,1-2.21,1.54-3.39s1.14-2.39,1.7-3.65a37.53,37.53,0,0,0,1.5-3.88c.1-.34.22-.66.3-1l.25-1V165l.25-.2c.13-.12.31-.29.47-.46a6.166,6.166,0,0,0,.5-.59c.7-.88,1.51-2.09,2.3-3.28s1.58-2.46,2.24-3.28l.46-.59.38-.44.37-.36Z" fill="#6150cc"/>
    <path id="Path_577" data-name="Path 577" d="M437.23,249.48c-5.61-2.67-9.41,1.53-14.75,1.44s-1.64-1.81-3.55-5.09c-2.68-4.56-4.75-4.61-8.38-5.07-1.86-.24-4.29.66-6.37.37-1.75-6.44-5.65-7.69-9.45-6.4a13.46,13.46,0,0,0-4.21,2.46,15.8,15.8,0,0,0-4.83,6.75c-2.11,6.38-4.25,3.9-9.39,4.1-1.91.07-4.92-.25-6.36,1.14-2.79,2.73-.44,5.15-3.88,7.46-2.77,1.87-8.19-.6-6,5.12.92,2.35,3.64,3.74,6.75,4.57a47.421,47.421,0,0,0,12.37,1.14l37.45-.48c1.92.52,9.06-.71,14.69-2.77a20.23,20.23,0,0,0,6.92-4.49C441.57,256.41,442.94,252.19,437.23,249.48Z" fill="#e7e5f7"/>
    <path id="Path_578" data-name="Path 578" d="M415.62,254.84l-.43.14-.52.19c-.74.28-1.64.66-2.53,1s-1.81.76-2.56,1l-.43.15.13-.21a4.326,4.326,0,0,0,.3-.63l.13-.31.1-.3c.06-.2.13-.4.17-.6l.11-.57q.079-.5.11-1v-.88a2.89,2.89,0,0,0-.11-.67l-.21-.61.08.59v.68c0,.26-.07.56-.1.88a4.613,4.613,0,0,1-.26,1l-.19.57c-.07.2-.17.39-.26.59l-.14.3-.18.3a5.057,5.057,0,0,1-.39.62c-.16.2-.3.43-.49.63l-.3.31c-.1.11-.24.2-.35.31a15.727,15.727,0,0,1-1.7,1.21c-.62.39-1.28.82-1.91,1.15a20.74,20.74,0,0,0-1.77,1.1c-.26.18-.53.35-.75.52l-.34.25v-1.27a7.609,7.609,0,0,0-.18-.9l-.2-.88a8.654,8.654,0,0,0-.29-.82c-.2-.56-.38-1.11-.63-1.64l-.66-1.52-.63-1.39-.53-1.25a10.853,10.853,0,0,1-.4-1.11l-.31-.94c-.12-.57-.2-1-.25-1.33l-.09-.47v.48c0,.31.06.76.12,1.34l.22,1a10.081,10.081,0,0,0,.29,1.11l.4,1.26.49,1.4.52,1.52a16.651,16.651,0,0,1,.47,1.64c.07.28.16.57.2.82l.12.87a7.241,7.241,0,0,1,.09.89v.92l-.06.93-.07.92-.15.34a.188.188,0,0,1-.06.14,8.927,8.927,0,0,0,.09,1c-.01.18,0,.32,0,.48v1.3l-.73-.23-1-.28-2.28-.66a20.785,20.785,0,0,1-2.34-.82l-.52-.25-.5-.27c-.33-.18-.7-.36-1-.56l-1-.57c-.34-.2-.63-.4-1-.6l-.47-.3-.42-.31-.43-.31-.2-.16-.17-.16-.35-.33a3.412,3.412,0,0,1-.29-.33l-.27-.33-.27-.37-.82-1.3a7.155,7.155,0,0,0-.48-.61,7.657,7.657,0,0,0-.57-.58c-.19-.19-.47-.36-.68-.53l-.34-.25-.29-.25c-.36-.33-.63-.63-.89-.89a7,7,0,0,0-.76-.68,3,3,0,0,0-.71-.41l-.27-.09h0l.26.1a2.732,2.732,0,0,1,.67.42,6.209,6.209,0,0,1,.7.69c.25.27.49.57.82.9l.27.25.32.25c.2.17.45.35.63.53a4.994,4.994,0,0,1,.52.58,5.8,5.8,0,0,1,.42.61l.75,1.3.2.34.25.34a3.078,3.078,0,0,0,.27.34l.32.33.16.16.2.16.32.26h-.24a2.443,2.443,0,0,1-.66-.14l-.77-.18-.82-.21-.92-.23c-.31-.08-.67-.15-1-.22l-.57-.09h-1.82l-1.17-.06h-1.87l-.66-.06-.56-.06.54.07a2.5,2.5,0,0,1,.65.07l.86.07,1,.07,1.14.07h1.68l.52.1c.32.07.65.15.93.23l.82.25.82.23.75.2c.22.07.5.11.7.16l.31.07h.27l.51.08h0l.07.07.45.31c.3.2.58.42.9.61l1,.59c.31.2.66.38,1,.57l.48.27.53.26a20,20,0,0,0,2.36.9l2.24.69.92.29.74.25c.39.12.68.24.89.32v.15a16.32,16.32,0,0,1,2-.39c-.06-1.46-.08-3-.08-3v-.24l.09-.29c0-.11.12-.22.2-.35a2.449,2.449,0,0,1,.3-.4,3.776,3.776,0,0,1,.42-.44,6.747,6.747,0,0,1,.54-.48c.19-.16.43-.34.66-.51.48-.35,1-.71,1.59-1.1s1.17-.78,1.74-1.18a13.1,13.1,0,0,0,1.56-1.25,4.5,4.5,0,0,0,.32-.32l.26-.32v-.06l.25-.07.48-.16c.16-.06.34-.12.51-.2.71-.29,1.54-.69,2.35-1.08s1.64-.82,2.29-1.08l.47-.2.39-.15.38-.11Z" fill="#6150cc"/>
    <path id="Path_579" data-name="Path 579" d="M342.89,114.46c5.74-5.74,5.63-13.26.22-19-5.2-5.48-7.45-10.81-17.65-11.37-9-.49-10.16-2.79-14.57-7.77-3-3.34-7.07-7.38-12.79-7.38-4.92-.07-9.83,2-12.5,5.11-3.82,4.48-1.89,8.36-3.28,13.11-1.09,3.84-3.52,5.1-8.27,4.75-7-.52-15.36.14-19.4,4.86-3.39,4-5.18,9-4.1,13.73,1,4.54,7.5,8.79,6.91,12.72-.64,4.3-5.09,7.62-4.33,12.13.72,4.29,5.43,5.88,10.65,6.76,7.92,1.33,3.24,6.13,2.58,10.41-1.16,7.55,1.81,14.42,12.18,17.21a59.911,59.911,0,0,0,12.78,1.47c2.4.09,4.87-.1,7.26,0,2.64.16,4.84,1.13,7.38,1.38,7,.7,14.68-5,20.49-7.71,3.5-1.64,8.45-3.63,7.06-7.37-.87-2.33-4.21-3.95-4-6.76.39-5,9-7.73,11.32-12.07,1.11-2.08,1.87-4.16.32-6-3.28-3.86-11-3.39-10.46-8.15C331.22,120.31,339.42,118,342.89,114.46Z" fill="#d0cbf0"/>
    <path id="Path_580" data-name="Path 580" d="M314.52,85.63c-4.92-2.46-6.74-8.19-11.69-10.49-6.15-2.89-10.33-1.22-13.06,2.27s-4.1,9-4.43,13.37c-1,2.38-3.14,4.2-8.33,4.84-7.43.93-16.74-1.17-19.31,7.49a14.48,14.48,0,0,0,.42,7.69c1.42,4.76,4.76,9.32,9.73,8.9,2.46-3.55,4.77-17.68,10.37-17.61,2.2,0,3.74,2.65,5.85,3.51,4.29,1.75,5.63-.33,7.72-3.61,1.81-2.84,2.33-8.19,5-10.37,3.12-2.56,4.61-.24,7.28,1.54,7.24,4.83,12.1,1,19.4-1.59C324.59,85.14,318.78,87.74,314.52,85.63Z" fill="#dad6f3"/>
    <path id="Path_581" data-name="Path 581" d="M325.26,128.1c-3.78-2.28-6.08,1.64-6.28,5.24a9,9,0,0,0,.44,3.32,13.63,13.63,0,0,0-3.77,7.83c-.2,3.1,1.25,4.5-.23,7.52-1,2.07-3.18,3.48-4.22,5.43-1.71,3.22-1.95,9.63,2.46,10.2,2.29.3,5.3-1,7.74-2.88,2.08-1.57,3.75-3.48,4.18-5,1.08-3.87-1.77-7.6-1.25-11.53.66-4.92,7.66-6.79,8.14-10.65C332.77,135.21,327.35,129.36,325.26,128.1Z" fill="#dad6f3"/>
    <path id="Path_582" data-name="Path 582" d="M327,131.47c-.23.08-.54.13-.89.22s-.75.14-1.17.22l-1.41.21c-.5.07-1,.16-1.58.26a4.02,4.02,0,0,0-.82.18l-.43.11-.4.13-.4.13-.4.16-.77.34a11.568,11.568,0,0,0-1.39.82,13.465,13.465,0,0,1-1.25.82l-1.14.82c-.36.25-.72.46-1,.66s-.64.34-.9.5l-.33.17.45-.9c.09-.19.19-.36.28-.57l.23-.57.45-1.14c.16-.38.25-.77.38-1.15l.35-1.15.29-1.15,1.08-4.48c.17-.73.41-1.43.61-2.12s.49-1.35.73-2,.6-1.26.88-1.86c.15-.3.29-.6.45-.88a8,8,0,0,0,.39-.87c.47-1.14.82-2.2,1.15-3.12a24.35,24.35,0,0,1,1-2.38,6.06,6.06,0,0,1,.93-1.46,2,2,0,0,1,.36-.34l.14-.11-.14.11a2.1,2.1,0,0,0-.37.34,6.241,6.241,0,0,0-1,1.44,24.871,24.871,0,0,0-1.07,2.38c-.38.93-.76,2-1.25,3.1a8.921,8.921,0,0,1-.4.82c-.14.25-.32.57-.47.88-.3.61-.67,1.21-1,1.87a19.1,19.1,0,0,0-.82,2c-.25.68-.47,1.4-.68,2.13l-1.23,4.47-.33,1.14-.41,1.11c-.14.38-.24.75-.41,1.13l-.49,1.13-.25.57a5.771,5.771,0,0,1-.29.54l-.59,1.1-.58,1.09c-.2.36-.43.71-.65,1.07-.44.7-.82,1.42-1.31,2.11l-.27.4a4.577,4.577,0,0,0-.08-.54,11.157,11.157,0,0,0-.32-1.34c-.16-.48-.34-1-.57-1.52s-.47-1.08-.74-1.64l-.82-1.74c-.28-.57-.47-1.21-.71-1.83a18.246,18.246,0,0,1-.43-1.88l-.15-.93a4.035,4.035,0,0,0-.07-.92,17.015,17.015,0,0,1,0-1.75,11.343,11.343,0,0,1,.07-1.57c.07-.49.08-.93.12-1.33s.08-.74.11-1l.11-.88-.15.88a10.12,10.12,0,0,1-.16,1c-.05.38-.12.82-.17,1.33s-.12,1-.13,1.57a14.006,14.006,0,0,0,0,1.76v.93l.11,1a18.329,18.329,0,0,0,.38,1.94c.22.62.37,1.25.65,1.87l.75,1.77c.25.57.47,1.12.66,1.64s.34,1,.49,1.49a10.456,10.456,0,0,1,.25,1.27,6.35,6.35,0,0,1,.07,1V143l-.33.48c-.44.66-.94,1.3-1.4,1.94l-.69.94c-.22.29-.49.58-.72.86a24.861,24.861,0,0,1-3.19,3c-1.11.88-2.16,1.64-3.11,2.38l-1.3,1c-.36.29-.69.56-1,.82q0-2.23.11-4.45v-1.64c0-.55.19-3.28.18-3.43a1.4,1.4,0,0,0-.07-.48l-.18-1.13v-9.41c0-1,.12-2,.17-3l.23-3c.08-1,.22-2,.33-2.92.2-1.7.39-3.35.64-5l.45-.67c.38-.56.9-1.37,1.64-2.28l.57-.69c.2-.23.43-.46.66-.7s.5-.45.76-.69a9.845,9.845,0,0,1,.87-.65,39,39,0,0,0,4-2.7,11.091,11.091,0,0,0,1.64-1.71l.35-.46c.11-.17.2-.33.29-.48a6.352,6.352,0,0,0,.52-1,12.47,12.47,0,0,0,.68-1.93c.14-.63.27-1.22.35-1.78.18-1.11.31-2,.43-2.66l.23-1-.28,1c-.15.64-.31,1.56-.52,2.65-.1.55-.25,1.14-.41,1.75a12.409,12.409,0,0,1-.73,1.88,6.217,6.217,0,0,1-.54.94c-.1.16-.2.33-.29.46l-.36.44a10.879,10.879,0,0,1-1.64,1.64c-1.26,1-2.72,1.74-4,2.57-.32.22-.64.43-.94.66a8.765,8.765,0,0,0-.82.7c-.25.24-.49.48-.72.71l-.62.7c-.5.61-.9,1.15-1.24,1.64l.63-4.18.75-4.8.62-4.34c.21-1.36.33-2.64.46-3.82l.35-3.28c.12-2,.19-3.51.25-4.56l.08-1.64-.15,1.64c-.1,1-.22,2.59-.43,4.55l-.53,3.2c-.18,1.18-.34,2.46-.61,3.81l-.82,4.32-.93,4.79-.92,5.21c-.36,1.8-.65,3.67-1,5.59-.14,1-.33,1.93-.44,2.93l-.33,3c-.1,1-.25,2-.29,3.08l-.12,3.13v1.2l-.44-.82c-.29-.57-.64-1.14-1-1.74-.7-1.18-1.49-2.4-2.31-3.65s-1.64-2.54-2.46-3.86a37,37,0,0,1-2.33-4.06c-.15-.34-.34-.69-.46-1l-.36-1c-.24-.68-.41-1.42-.62-2.12s-.33-1.41-.48-2.11l-.22-1-.17-1c-.11-.68-.23-1.35-.31-2l-.22-1.93c-.15-1.25-.2-2.46-.29-3.54s-.08-2.11-.07-3,0-1.64,0-2.31l.15-2-.27,2c-.07.64-.12,1.42-.18,2.31s-.07,1.9-.11,3,0,2.29.07,3.56l.11,1.94a19.345,19.345,0,0,0,.2,2l.1,1,.16,1.06c.12.7.19,1.43.37,2.15.06.25.11.48.16.73-.18-.15-.38-.29-.57-.48-1-.88-2.19-2.13-3.38-3.4s-2.37-2.54-3.33-3.46l-.68-.62-.56-.45-.53-.37.5.38.52.48.62.64c.88,1,1.94,2.27,3,3.59s2.15,2.63,3.09,3.59c.22.25.47.45.67.65a7.235,7.235,0,0,0,.62.5l.34.21v.19l.34,1.09c.11.37.27.72.41,1.08a36.269,36.269,0,0,0,2,4.2c.75,1.36,1.52,2.68,2.27,4s1.45,2.5,2.07,3.67a17.875,17.875,0,0,1,.82,1.71c.2.56.52,1.09.7,1.64a14.5,14.5,0,0,1,.56,1.42,11.808,11.808,0,0,1,.38,1.35c.08.43.19.82.24,1.19l.1,1a1.48,1.48,0,0,0,0,.43,1.32,1.32,0,0,1,0,.4,5.536,5.536,0,0,1,0,1A25.264,25.264,0,0,0,292,144.7a26.719,26.719,0,0,0-5.15-2.52c-1-.38-2-.9-3.06-1.24s-2.2-.68-3.28-1-2.23-.68-3.28-1.06a15,15,0,0,1-2.88-1.38l-.62-.43a5.973,5.973,0,0,1-.56-.48,7.31,7.31,0,0,1-.91-1,22.538,22.538,0,0,1-1.26-2.2,11.422,11.422,0,0,0-1.2-1.84c-.39-.52-.75-1-1-1.36a4.237,4.237,0,0,1-.3-.53,2,2,0,0,1-.18-.41l-.16-.34.1.36a2,2,0,0,0,.15.43,4.146,4.146,0,0,0,.26.56c.21.41.53.88.89,1.43a10.87,10.87,0,0,1,1.06,1.85,22.238,22.238,0,0,0,1.12,2.31,7.579,7.579,0,0,0,.89,1.19c.19.18.33.34.56.53l.63.5a15.569,15.569,0,0,0,3,1.64c1.06.45,2.16.82,3.23,1.25s2.17.82,3.23,1.23,2.09.82,3.06,1.22a28.368,28.368,0,0,1,5,2.62,6,6,0,0,1,2.29,2.46,2.511,2.511,0,0,1,.12.4v.24c0,.24-.1,11.37-.28,14.28-.18,2.25-.2,4.5-.26,6.74q0,1.64-.08,3.34v3.28c.07,4.43.15,8.78.21,13l.29,12.13.07,2.85V221.9c-.07,2.74-.13,5.12-.18,7.09-.16,6.17-1.07,52.4-1.07,52.4h6.79s-.19-48.45-.25-52.38c0-2-.06-4.35-.1-7.09v-2.11l-.11-2.25-.29-4.81-.26-5.27q-.07-1.37-.14-2.78l-.18-2.85-.77-12.13-.7-13-.09-1.64v-4.99c0-2.24-.09-4.48,0-6.72s.12-4.7.16-7a15.207,15.207,0,0,1,1.22-1.14c.3-.26.62-.55,1-.87l1.25-1c.91-.72,1.94-1.54,3-2.46a25.208,25.208,0,0,0,3.22-3.19c.24-.3.51-.61.74-.93l.66-1c.43-.65.91-1.29,1.34-2l1.27-2.09c.44-.7.82-1.43,1.25-2.15.2-.36.43-.72.62-1.09l.11-.22h0l.69-.31.36-.16.42-.24c.29-.18.66-.36,1-.59a11.6,11.6,0,0,0,1-.73l1.08-.82c.37-.29.75-.58,1.15-.87s.82-.56,1.26-.82l.7-.36.34-.16.39-.15.39-.15.39-.12a6.856,6.856,0,0,1,.78-.2c.52-.12,1-.23,1.54-.32L325,132c.43-.1.82-.16,1.16-.27s.65-.16.87-.25l.73-.26Z" fill="#6150cc"/>
    <g id="girl4" transform="translate(-30)">
      <ellipse id="Ellipse_270" data-name="Ellipse 270" cx="46.2" cy="4.06" rx="46.2" ry="4.06" transform="translate(614.01 328.24)" fill="#eceaf9"/>
      <path id="Path_602" data-name="Path 602" d="M668.42,146.17c2.46-2.74,5.49-7,14.05-5.36s7.48,12.84,6.5,16.77c-.45,1.79-2.65,3.61-5,5.65-2.88,2.46-6.06,5.17-6.89,8.51-1.54,6.14-5.31,14.32-7.7,14.75s-14.9,6.34-14.9,6.34l-6.51-2.46a25.941,25.941,0,0,1,4.29-3.91,22.17,22.17,0,0,1,3.83-2.25,17.6,17.6,0,0,0-5.74,2.6c-2.1,1.31-3.94,2.75-3.94,2.75a16.871,16.871,0,0,1-2.74-1.72,8.53,8.53,0,0,1-2-2.16,24.81,24.81,0,0,1-2.11-4.46s.2-2,5.16-5.09a49.629,49.629,0,0,1,9.46-4.55s-2.69.29-9.56,2.69a18.55,18.55,0,0,0-6.1,4.2,9.909,9.909,0,0,1-2.16-3.83,7.12,7.12,0,0,1,.34-4.1,10.07,10.07,0,0,1,3.74-4.16A16.68,16.68,0,0,1,648,163.8c9.07-1,11-4.5,13.87-8.79a83.1,83.1,0,0,1,6.55-8.84Z" fill="#4b39c3"/>
      <path id="Path_603" data-name="Path 603" d="M644.34,295s-6.16,10.13-8.42,14.68a48.2,48.2,0,0,1-3.88,6.1l3,2.79,14.59-19.24Z" fill="#ffbfae"/>
      <path id="Path_604" data-name="Path 604" d="M681.75,296.78l.82,13.51c.2,3,1,12,1,12l4.2.78s0-13.88.23-17.06c.06-.82-.06-9.21-.06-9.21Z" fill="#ffbfae"/>
      <path id="Path_605" data-name="Path 605" d="M679.66,285.8a127.842,127.842,0,0,0,1.84,15.27c2.52,0,5.33.1,7.17,0,.82-8.77,1.5-23.76,2.16-27.4a34.288,34.288,0,0,0,.29-10l-.07-.82c-.23-2.73,0-24.34,0-25.26l-.38-29.5H672.15c-1.25,3.77-8,24.67-8.6,37v.07c-.11.82-2.55,20.65-5.32,25.73a55.986,55.986,0,0,1-3.91,5.86,93.712,93.712,0,0,0-9.22,15c-.7,1.43-1.38,2.86-2,4.24a38.871,38.871,0,0,0,5.88,4.86c6.92-7.26,17.15-18,18.61-20.36l2.22-3.55,8.47-23.63.43,3.79c0,.35,1,8.67,1,12.76v3.89C679.56,276.82,679.5,280.45,679.66,285.8Z" fill="#6150cc"/>
      <path id="Path_606" data-name="Path 606" d="M674,167.9h10s3,2.2,5.2,7.68a29.226,29.226,0,0,1,1.53,5.41,74.746,74.746,0,0,1,.82,12.91c-.06,8.49-.82,16.84-.82,16.84a16.69,16.69,0,0,1-5.47,2.09,37,37,0,0,1-6.27,0s.27-7-.07-15c-.11-2.65-.3-5.42-.57-8.06a128.016,128.016,0,0,0-2.46-14.3C674.87,171,674,167.9,674,167.9Z" fill="#f0eefa"/>
      <path id="Path_607" data-name="Path 607" d="M709.1,188.38A12.674,12.674,0,0,1,710,186a17.863,17.863,0,0,1,1.17-2,8.537,8.537,0,0,1,.74-1c.24-.26.43-.4.55-.33s.08.2,0,.4a8.528,8.528,0,0,1-.46,1.16c-.27.6-.52,1.16-.42,1.25s.67-.08,1.3-.43a6.189,6.189,0,0,0,1.51-1.15c.3-.34.61-.7.91-1s.4-.42.57-.57.52-.41.65-.33-.16.82-.52,1.6-.82,1.64-.82,1.64a16.053,16.053,0,0,1,1.25-1.75,6.706,6.706,0,0,1,.75-.82c.24-.2.43-.31.56-.23s-.15.87-.57,1.64-1,1.71-1,1.71a15.587,15.587,0,0,1,1.18-1.41,3.937,3.937,0,0,1,.38-.34c.2-.15.35-.22.45-.16s-.07.57-.34,1.11c-.38.77-.9,1.64-.9,1.64a7.251,7.251,0,0,1,1-.61c.28-.13.52-.2.62-.08s-.11.31-.41.63-.43.43-.7.69a9.178,9.178,0,0,1-1,.82,6.217,6.217,0,0,1-.75.57c-.64.36-3.34,1.8-3.34,1.8Z" fill="#ffbfae"/>
      <path id="Path_608" data-name="Path 608" d="M684,167.9s5.61,1.64,8,6c.82,1.42,1.64,4.47,2.46,8,.57,2.46,1.2,5.24,1.8,8,1.24,5.6,2.35,10.91,2.57,11.94.12.58,2.35-2.31,4.69-5.56,2.68-3.72,5.51-7.92,5.51-7.92l4.7,2.06S709.22,200,705,207.18c-2.52,4.32-4.92,7.79-6.14,7.87-2.79.17-5.11-3.65-5.11-3.65s.64,14.15.48,22.67a113.347,113.347,0,0,1-1.12,14.47s-2.52-2.57-3.2-9,.66-19.45,0-35.53c-.33-7.89-.89-19.9-2.27-26.85C686.26,169.92,684,167.9,684,167.9Z" fill="#bc428b"/>
      <path id="Path_609" data-name="Path 609" d="M690.16,157s-.82-2.85-1-3.66-.36-3.58-.54-4.35c-.6-2.56-2.2-2.85-2.83-2.67a10.11,10.11,0,0,0-3.59,1.85c-1,.82-2.75,4.74-3.38,4.6a1.94,1.94,0,1,0-1.64,3.41,20.627,20.627,0,0,0,.16,2.17v1.75s-.28,1.57-.61,3.16c-.19.91-.39,1.83-.58,2.46a6.253,6.253,0,0,1-.94,1.43l-2.2,1.35s3.45,4.2,6.56,5.92c2.07,1.14,4.1,1.93,5.19,1.53,2.75-1,1.12-5.38-.12-6.88a7.189,7.189,0,0,1-1.11-3.42,17.7,17.7,0,0,1-.14-2s.62.09,1.48.14a12.18,12.18,0,0,0,2.89-.14c1.07-.21,1-1.74,1.08-3.42a28.3,28.3,0,0,1,.3-2.84Z" fill="#ffbfae"/>
      <path id="Path_610" data-name="Path 610" d="M652.3,235.32a12.659,12.659,0,0,1,.56,2.46,17.825,17.825,0,0,1,.1,2.34,8.538,8.538,0,0,1-.1,1.21c-.07.35-.16.57-.29.57s-.17-.12-.24-.33a8.515,8.515,0,0,1-.24-1.23c-.1-.65-.18-1.26-.32-1.28s-.52.43-.82,1.06a6.193,6.193,0,0,0-.65,1.79c-.07.45-.15.92-.23,1.34s-.11.57-.18.82-.23.62-.37.62-.31-.82-.42-1.64-.18-1.82-.18-1.82,0,1.13-.11,2.15a6.7,6.7,0,0,1-.19,1.1c-.09.3-.2.49-.34.49s-.34-.82-.39-1.64-.06-2-.06-2a15.6,15.6,0,0,1-.24,1.82,3.925,3.925,0,0,1-.13.49c-.08.23-.18.38-.3.37s-.25-.52-.31-1.12c-.1-.82-.12-1.88-.12-1.88a7.255,7.255,0,0,1-.51,1c-.16.25-.34.45-.48.4s-.07-.32,0-.75a5.775,5.775,0,0,1,.22-1c.09-.4.23-.86.35-1.24a6.2,6.2,0,0,1,.33-.89c.34-.65,1.85-3.28,1.85-3.28Z" fill="#ffbfae"/>
      <path id="Path_611" data-name="Path 611" d="M679.81,193.29c-.51-11.24-4.15-24.21-5.84-25.4a29.179,29.179,0,0,0-11.14,6.65c-5.26,5-12,23.76-13.52,31.64S648,235.81,648,235.81h4.92s2-21.53,4.66-28.14c1.42-3.51,8.6-12.5,8.6-12.5a149.3,149.3,0,0,1-.73,15.87c-.82,7.48-2.11,10.57-4.66,21.54s-4.1,17.72-4.1,17.72,5.94,2,10.37,0a12.57,12.57,0,0,0,6.94-5.9c2.39-4.15,4.55-11.57,5.81-25.65C680.35,212.71,680.24,202.81,679.81,193.29Z" fill="#bc428b"/>
      <path id="Path_612" data-name="Path 612" d="M666.18,195.17s1-1.52,2.11-3.28c1.7-2.64,3.82-5.83,3.82-5.39s-1.74,3.54-3.33,6.34c-1.34,2.37-2.59,4.49-2.59,4.49Z" fill="#a53773"/>
      <path id="Path_613" data-name="Path 613" d="M693.22,189.46s.64,7.2,1,12.82,0,16.94,0,16.94-.52-11.73-.57-16.39C693.46,196.91,693.22,189.46,693.22,189.46Z" fill="#a53773"/>
      <path id="Path_614" data-name="Path 614" d="M670.6,274.62s5.57-12,7.2-17.54,6.2-26.13,6.2-26.13l3-4.82-4.27,3.51s-3,15.25-4.1,20C677.11,255.75,670.6,274.62,670.6,274.62Z" fill="#5847ca"/>
      <path id="Path_615" data-name="Path 615" d="M637.5,314.23a4.1,4.1,0,0,0-1.28-.25,1,1,0,0,0-.51.09l-.12.07-.08-.11-1.43-2.11-2.46,2.84a17.007,17.007,0,0,1-1.43,1.39,9.934,9.934,0,0,0-1.06,1l-.4.53-1.34,3.2.64.56,1.95-1.8h.06c.08,0,.82.06,1.2,2a6.409,6.409,0,0,1,.07,2.68c.25.26,1.29,1.35,2.24,2.17a4.5,4.5,0,0,0,1.87,1l.31-.66a9.191,9.191,0,0,1-1.14-3,8.56,8.56,0,0,1,.31-4.29h0l3.92-3.72a1.81,1.81,0,0,0-1.33-1.63Z" fill="#3c567c"/>
      <path id="Path_616" data-name="Path 616" d="M638.54,313.29A5,5,0,0,0,637,313a1.22,1.22,0,0,0-.62.11l-.14.09-.1-.14-1.73-2.57-3,3.46a20.652,20.652,0,0,1-1.74,1.69,12.084,12.084,0,0,0-1.29,1.25l-.49.65-1.64,3.88.82.67,2.38-2.19h.07c.11,0,1,.07,1.46,2.4a7.79,7.79,0,0,1,.09,3.28c.3.32,1.57,1.64,2.72,2.64a5.47,5.47,0,0,0,2.26,1.24l.38-.82A11.16,11.16,0,0,1,635,325a10.41,10.41,0,0,1,.38-5.21v-.08l4.76-4.52a2.2,2.2,0,0,0-1.6-1.9Z" fill="#9185dc"/>
      <path id="Path_617" data-name="Path 617" d="M687.48,316.87a5,5,0,0,0-1.41.72,1.219,1.219,0,0,0-.41.47v.16h-.16l-3-.93-.2,4.57a20.61,20.61,0,0,1-.32,2.41,12.09,12.09,0,0,0-.23,1.78v.82l1.14,4.06h1l.5-3.19h0c.08-.07.82-.58,2.63,1a7.78,7.78,0,0,1,2.09,2.46c.43.07,2.25.32,3.77.39a5.46,5.46,0,0,0,2.54-.43l-.2-.87a11.159,11.159,0,0,1-3.28-1.94,10.409,10.409,0,0,1-2.94-4.32l-.06-.06.93-6.5a2.2,2.2,0,0,0-2.39-.6Z" fill="#9185dc"/>
      <path id="Path_618" data-name="Path 618" d="M716.49,187.12a.58.58,0,0,1-.5.38l-4.92-.24c-.2,0-.28-.2-.2-.42l3.78-9.77a.58.58,0,0,1,.51-.38l4.92.24c.2,0,.28.2.2.42Z" fill="#4b39c3"/>
      <path id="Path_619" data-name="Path 619" d="M716.41,187a.58.58,0,0,1-.5.38l-4.92-.24c-.2,0-.28-.2-.2-.42l3.78-9.77a.58.58,0,0,1,.51-.38l4.92.24c.2,0,.28.2.2.42Z" fill="#45456d"/>
      <path id="Path_620" data-name="Path 620" d="M716.24,186.48l-5-.25,3.49-9,5,.25Z" fill="#5f98ed"/>
      <path id="Path_621" data-name="Path 621" d="M714.37,186.83a.26.26,0,0,1-.23.16h-1.47c-.09,0-.13-.07-.1-.16h0a.26.26,0,0,1,.23-.16h1.47C714.36,186.67,714.4,186.74,714.37,186.83Z" fill="#4b39c3"/>
    </g>
    <g id="men2">
      <ellipse id="Ellipse_277" data-name="Ellipse 277" cx="28.44" cy="3.2" rx="28.44" ry="3.2" transform="translate(481.8 289.71)" fill="#e7e5f7"/>
      <path id="Path_698" data-name="Path 698" d="M514.65,174.91a10.71,10.71,0,0,0,2.2-4.32,7.439,7.439,0,0,0-.06-4.2c-.16-.48-.53-.63-.82-1-.38-.61-.07-1.4-.38-2.06-1-2.14-3.88-3.4-6.2-3.28a3.67,3.67,0,0,0-1.77.41c-.44.26-.75.82-1.25,1s-.82-.24-1.29-.43a3.49,3.49,0,0,0-1.78-.18c-1.9.27-2.15,2.34-1.91,3.92a2.6,2.6,0,0,0,1.48,2c1.3.77,1,1.95,1.24,3.28a8,8,0,0,0,1.46,3.11,4.54,4.54,0,0,0,1.52,1.64,13,13,0,0,0,1.64.82c1.42.56,3.43,1.34,4.84.39A5.309,5.309,0,0,0,514.65,174.91Z" fill="#6150cc"/>
      <path id="Path_699" data-name="Path 699" d="M491.11,280.91l-.82,4.92-3.75,1.93a12.284,12.284,0,0,0-1.64.39c-.42.14-.74.31-.7.5s.26.34.57.48a9.828,9.828,0,0,0,1.89.55l3.28-.28.57.07c.57.06,1.4.1,1.64-.15a2,2,0,0,0,.31-1.18,6.337,6.337,0,0,0,0-.94l1.22-5.41Z" fill="#f9b498"/>
      <path id="Path_700" data-name="Path 700" d="M481.8,289.06c.07.35.82,1.34,4.29,1.76a20.96,20.96,0,0,0,5.09.34c1.34-.26,1.32-.82,1.37-.86v-2.46c0-.17-1.39.14-1.52.16-.59.08-1.14,0-1.39-.58-.15-.37.11-1.08-.45-1.19s-1.5.73-2,.94l-1.81.75a4.592,4.592,0,0,1-.82.09,10,10,0,0,0-1.64,0C482.36,288.06,481.72,288.7,481.8,289.06Z" fill="#fff"/>
      <path id="Path_701" data-name="Path 701" d="M503.62,219.34c-9.46,27.28-9.56,27.3-11.47,36.87-1.3,6.61-1.49,26.48-1.49,26.48l3.94.63s4.41-18.19,6-24.25a93.289,93.289,0,0,1,9.4-23.61,23.17,23.17,0,0,0,4.1-3.89,17.511,17.511,0,0,0,2.74-4.87l-6.68-3.06Z" fill="#5366c4"/>
      <path id="Path_702" data-name="Path 702" d="M527.56,281.5l1.37,4.87-2.34,3.5a12.294,12.294,0,0,0-1.26,1.15c-.3.33-.49.63-.37.78a.93.93,0,0,0,.72.14,9.83,9.83,0,0,0,1.93-.44l2.74-1.84s.24-.08.54-.21c.53-.22,1.27-.6,1.38-.93a2,2,0,0,0-.29-1.18,6.326,6.326,0,0,0-.45-.82l-1.64-6Z" fill="#f9b498"/>
      <path id="Path_703" data-name="Path 703" d="M523.08,293.27c.24.27,1.4.75,4.6-.54a21.535,21.535,0,0,0,4.61-2.17c1-.88.75-1.36.78-1.42L531.82,287c-.08-.15-1.15.82-1.25.87-.48.36-1,.59-1.5.16-.31-.25-.43-1-1-.82s-1,1.36-1.3,1.8l-1.22,1.53a4.59,4.59,0,0,1-.66.48,10,10,0,0,0-1.42.82C523.08,292.12,522.83,293,523.08,293.27Z" fill="#fff"/>
      <path id="Path_704" data-name="Path 704" d="M508.33,221.72c4.92,28.44,4.92,28.51,7.89,37.78,2.07,6.41,11.54,23.89,11.54,23.89l3.75-1.36s-5-18-6.56-24.11a93.33,93.33,0,0,1-3.23-25.23,23.163,23.163,0,0,0,1.64-5.38,17.51,17.51,0,0,0,0-5.59l-7.32.57Z" fill="#5b69d1"/>
      <path id="Path_705" data-name="Path 705" d="M504.82,190s-.25,3.64-.67,7.63c-.43,4.16-1,8.71-1.75,9.91A80.841,80.841,0,0,1,495,213c-3.64,2.52-7.58,5.11-8.38,5.47a1.3,1.3,0,0,0-.2-.16,3.37,3.37,0,0,0-1.78-.69,4.17,4.17,0,0,0-1.92.86c-.58.35-.82.36-1,.59s-.11.64.61.48,1.39-.88,1.75-.88.37.49-.25,1.22a7.19,7.19,0,0,1-2,1.69c-.61.3-1.42.47-1.34.82s.68.25,1,.14a1.91,1.91,0,0,0,.58-.25s-.25.2.06.42.82-.16.82-.16a.42.42,0,0,0,.26.44.48.48,0,0,0,.53-.19s0,.09.31.26.91-.44.91-.44a16.665,16.665,0,0,0,1.9-2.24v-.07a101,101,0,0,0,10.29-3.77c4.2-1.8,8.44-4,10.14-6s3.06-7.37,4-11.64c.7-3.28,1.1-5.94,1.1-5.94Z" fill="#f9b498"/>
      <path id="Path_706" data-name="Path 706" d="M526.09,193a11.77,11.77,0,0,0-11.47-11.19c-6.47,0-11.66,4.92-11.66,10.33,0,.82-1.68,27.72-1.68,29.15,0,3.14,4.87,5.09,12.55,5.09s11.18-.6,11.18-3.74C525,221.42,526.09,194.67,526.09,193Z" fill="#4b4989"/>
      <path id="Path_707" data-name="Path 707" d="M523.33,185.84a11.47,11.47,0,0,0-8.6-4h-.11a12.1,12.1,0,0,1,8,7.9c.47,1.52,1.3,3.52,0,4.79a3.481,3.481,0,0,1-.91.63l-2.68-.26c-.43,1.28-.36,11.16.27,13.87a34.655,34.655,0,0,1,.64,3.57,19.29,19.29,0,0,1-1,9.36h0a14.749,14.749,0,0,1-1.77,4.66c5.47-.19,8-1,8-3.69,0-1.24,1.11-28,1.11-29.65a11.12,11.12,0,0,0-2.94-7.16Z" fill="#5847ca"/>
      <path id="Path_708" data-name="Path 708" d="M515.33,182.58l-.76-10.11-4.49,5.21s.33,4.85.39,5.48a2.52,2.52,0,0,0,0,1.71,1.41,1.41,0,0,0,1.38.89,3.91,3.91,0,0,0,2-.7,3,3,0,0,0,1.52-2.17A.82.82,0,0,0,515.33,182.58Z" fill="#f9b498"/>
      <path id="Path_709" data-name="Path 709" d="M514.11,169c-.4.34-.34.5-.34.5-1.12-2.57-3.15-4.16-5.1-3.76a4,4,0,0,0-2.91,1.93c-.77,1.44-.59,3.49-.13,5.74a16,16,0,0,0,2,4.57c.71,1.25,1.11,1.83,2.39,1.57a4.84,4.84,0,0,0,2.38-1.46,7.7,7.7,0,0,0,2.14-5.59h0a1.2,1.2,0,0,0,.6-.33,1.64,1.64,0,0,0,.41-1.48,3.789,3.789,0,0,0-.43-1.64.69.69,0,0,0-1-.08h0Z" fill="#f9bfa2"/>
      <path id="Path_710" data-name="Path 710" d="M510.46,182.85l-.25.33s-.59,1.75.66,2.6a2.46,2.46,0,0,0,2.46,0,3.51,3.51,0,0,0,1.07-.82,2.76,2.76,0,0,0,.94-2.1c-.09-.72-.13-1-.13-1a3.52,3.52,0,0,1-.43,1.93c-.52.82-1.87,2.08-3.1,1.85a1.5,1.5,0,0,1-1.17-1,3.46,3.46,0,0,1-.05-1.79Z" fill="#5847ca"/>
      <path id="Path_711" data-name="Path 711" d="M516.85,195s2,3,4.2,6.41,4.56,7.49,4.77,8.87a77.856,77.856,0,0,1-2.46,8.84c-1.33,4.25-2.8,8.7-3.2,9.48h-.26a3.37,3.37,0,0,0-1.82.56,4.17,4.17,0,0,0-1,1.87c-.24.63-.43.82-.41,1.07s.31.57.78,0,.55-1.55.82-1.77.59.16.57,1.11a7.19,7.19,0,0,1-.56,2.58c-.29.61-.82,1.25-.54,1.47s.69-.23.88-.52a1.911,1.911,0,0,0,.3-.56s-.07.32.3.3.53-.63.53-.63a.42.42,0,0,0,.48.19.47.47,0,0,0,.3-.48s0,.07.41,0,.43-.91.43-.91a16.664,16.664,0,0,0,.11-2.93v-.08a100.993,100.993,0,0,0,5.74-9.33c2.19-4,4.16-8.35,4.24-11s-2.15-7.67-4.1-11.6c-1.49-3-2.82-5.35-2.82-5.35Z" fill="#f9bfa2"/>
    </g>
  </g>
</svg>
